<svg xmlns="http://www.w3.org/2000/svg" width="24" height="24" viewBox="0 0 24 24">
    <g fill="none" fill-rule="evenodd">
        <g fill="#606C7F">
            <g>
                <g>
                    <g>
                        <path d="M17 2c.552 0 1 .448 1 1v3h3c.552 0 1 .448 1 1v9c0 .552-.448 1-1 1h-3v4c0 .552-.448 1-1 1H7c-.552 0-1-.448-1-1v-4H3c-.552 0-1-.448-1-1V7c0-.552.448-1 1-1h3V3c0-.552.448-1 1-1h10zm-1 12H8v6h8v-6zm4-6H4v7h2v-2c0-.552.448-1 1-1h10c.552 0 1 .448 1 1v2h2V8zm-3 1c.552 0 1 .448 1 1s-.448 1-1 1-1-.448-1-1 .448-1 1-1zm-1-5H8v2h8V4z" transform="translate(-270 -584) translate(114 224) translate(101 344) translate(55 16)"/>
                    </g>
                </g>
            </g>
        </g>
    </g>
</svg>
