<?xml version="1.0" encoding="UTF-8"?>
<svg width="20px" height="20px" viewBox="0 0 20 20" version="1.1" xmlns="http://www.w3.org/2000/svg" xmlns:xlink="http://www.w3.org/1999/xlink">
    <title>a/ic_arrow_left_r</title>
    <g id="3.0.ATM_CT_adelantoDeSueldo_k3a" stroke="none" stroke-width="1" fill="none" fill-rule="evenodd">
        <g id="a/ic_arrow_left_r" transform="translate(-2.000000, -2.000000)" fill="#FFFFFF">
            <path d="M17,2 C17.5522847,2 18,2.44771525 18,3 L18,6 L21,6 C21.5522847,6 22,6.44771525 22,7 L22,16 C22,16.5522847 21.5522847,17 21,17 L18,17 L18,21 C18,21.5522847 17.5522847,22 17,22 L7,22 C6.44771525,22 6,21.5522847 6,21 L6,17 L3,17 C2.44771525,17 2,16.5522847 2,16 L2,7 C2,6.44771525 2.44771525,6 3,6 L6,6 L6,3 C6,2.44771525 6.44771525,2 7,2 L17,2 Z M16,14 L8,14 L8,20 L16,20 L16,14 Z M20,8 L4,8 L4,15 L6,15 L6,13 C6,12.4477153 6.44771525,12 7,12 L17,12 C17.5522847,12 18,12.4477153 18,13 L18,15 L20,15 L20,8 Z M17,9 C17.5522847,9 18,9.44771525 18,10 C18,10.5522847 17.5522847,11 17,11 C16.4477153,11 16,10.5522847 16,10 C16,9.44771525 16.4477153,9 17,9 Z M16,4 L8,4 L8,6 L16,6 L16,4 Z" id="color🎨"></path>
        </g>
    </g>
</svg>