<svg xmlns="http://www.w3.org/2000/svg" width="184" height="187" viewBox="0 0 184 187">
    <g fill="none" fill-rule="evenodd">
        <path fill="#2853B8" d="M131.279 16.167c30.665 1.607 16.3 29.02 29.818 55.21s22.975 23.497 22.055 41.064c-.99 18.9-30.328 17.362-51.637 36.547-7.277 6.552-3.822 31.305-42.305 36.713-38.483 5.409-44.307-32.05-53.501-43.696C17.917 119.466-.23 116.18.948 93.733 2.35 66.96 42.344 70.07 67.04 55.98c24.697-14.091 40.082-41.079 64.238-39.813zM53.267 43c1.804 0 3.266 1.463 3.266 3.267 0 1.804-1.462 3.266-3.266 3.266S50 48.071 50 46.267 51.463 43 53.267 43z"/>
        <path fill="#8FBAFC" d="M155.7 87.267c1.263 0 2.287 1.023 2.287 2.286 0 1.263-1.024 2.287-2.287 2.287s-2.287-1.024-2.287-2.287 1.024-2.286 2.287-2.286z"/>
        <path fill="#5B90E9" d="M46.307 174c.721 0 1.306.585 1.306 1.307 0 .721-.585 1.306-1.306 1.306-.722 0-1.307-.585-1.307-1.306 0-.722.585-1.307 1.307-1.307z"/>
        <path fill="#8FBAFC" d="M99.563 4.763l76.449 152.781c.699 1.27.98 2.57.909 3.896-.31 5.735-4.155 8.493-8.496 8.493H15.558c-5.662 0-8.493-2.735-8.493-8.493 0-1.319.307-2.716.897-3.896l76.41-152.78c.516-.935 3.373-4.697 7.62-4.697 4.246 0 7.16 3.783 7.571 4.696z"/>
        <path fill="#D0E5FF" d="M91.672 5.947c-.945-.008-1.798.519-2.56 1.58L12.592 160.49c-.198.394-.3.957-.3 1.397 0 1.453 1.382 2.82 2.835 2.82l153.09-.018c1.417 0 2.835-1.417 2.835-2.834 0-.5-.113-.954-.338-1.365L94.224 7.527c-.22-.438-1.135-1.568-2.552-1.58z"/>
        <path fill="#FF9333" d="M92 130.733c4.33 0 7.84 3.51 7.84 7.84s-3.51 7.84-7.84 7.84-7.84-3.51-7.84-7.84 3.51-7.84 7.84-7.84zm0-79.053c4.625 0 7.84 3.863 7.84 8.33v56.918c0 4.466-3.215 8.579-7.84 8.579s-7.84-4.113-7.84-8.579V60.01c0-4.467 3.215-8.33 7.84-8.33z"/>
    </g>
</svg>
