<svg xmlns="http://www.w3.org/2000/svg" width="32" height="32" viewBox="0 0 32 32">
    <path fill="#FFF" fill-rule="evenodd" d="M16 2.667c3.673 0 6.667 2.99 6.667 6.666V12h2.666c.737 0 1.334.597 1.334 1.333V28c0 .736-.597 1.333-1.334 1.333H6.667c-.737 0-1.334-.597-1.334-1.333V13.333c0-.736.597-1.333 1.334-1.333h2.666V9.333c0-3.678 2.992-6.666 6.667-6.666zM16 18c-.684 0-1.247.515-1.324 1.178l-.01.155V22c0 .736.598 1.333 1.334 1.333.684 0 1.247-.514 1.324-1.178l.01-.155v-2.667c0-.736-.598-1.333-1.334-1.333zm0-12.667c-2.21 0-4 1.79-4 4V12h8V9.333c0-2.21-1.789-4-4-4z"/>
</svg>
