<svg width="32" height="32" viewBox="0 0 32 32" fill="none" xmlns="http://www.w3.org/2000/svg">
<path fill-rule="evenodd" clip-rule="evenodd" d="M13.4737 0C18.1246 0 21.8947 3.5816 21.8947 8V11.2H25.2632C26.1937 11.2 26.9474 11.916 26.9474 12.8V30.4C26.9474 31.284 26.1937 32 25.2632 32H1.68421C0.753684 32 0 31.284 0 30.4V12.8C0 11.916 0.753684 11.2 1.68421 11.2H5.05263V8C5.05263 3.5816 8.82274 0 13.4737 0ZM25.2632 12.8H1.68421V30.4H25.2632V12.8ZM13.4737 20C13.9385 20 14.3158 20.3584 14.3158 20.8V22.4C14.3158 22.8416 13.9385 23.2 13.4737 23.2C13.0088 23.2 12.6316 22.8416 12.6316 22.4V20.8C12.6316 20.3584 13.0088 20 13.4737 20ZM13.4737 1.6C9.75326 1.6 6.73684 4.4656 6.73684 8V11.2H20.2105V8C20.2105 4.4656 17.1941 1.6 13.4737 1.6Z" fill="white"/>
<path fill-rule="evenodd" clip-rule="evenodd" d="M26.1052 19.2C29.3608 19.2 32 22.0656 32 25.6C32 29.1344 29.3608 32 26.1052 32H14.3158C11.0602 32 8.42102 29.1344 8.42102 25.6C8.42102 22.0656 11.0602 19.2 14.3158 19.2H26.1052Z" fill="white"/>
<path fill-rule="evenodd" clip-rule="evenodd" d="M15.1578 24C14.2265 24 13.4736 24.7152 13.4736 25.6C13.4736 26.4848 14.2265 27.2 15.1578 27.2C16.0892 27.2 16.8421 26.4848 16.8421 25.6C16.8421 24.7152 16.0892 24 15.1578 24ZM20.2105 24C19.2791 24 18.5263 24.7152 18.5263 25.6C18.5263 26.4848 19.2791 27.2 20.2105 27.2C21.1418 27.2 21.8947 26.4848 21.8947 25.6C21.8947 24.7152 21.1418 24 20.2105 24ZM25.2631 24C24.3317 24 23.5789 24.7152 23.5789 25.6C23.5789 26.4848 24.3317 27.2 25.2631 27.2C26.1945 27.2 26.9473 26.4848 26.9473 25.6C26.9473 24.7152 26.1945 24 25.2631 24Z" fill="#002473"/>
</svg>
