<svg xmlns="http://www.w3.org/2000/svg" xmlns:xlink="http://www.w3.org/1999/xlink" width="48" height="48" viewBox="0 0 48 48">
    <defs>
        <filter id="prefix__a" width="200%" height="200%" x="-50%" y="-50%" filterUnits="objectBoundingBox">
            <feOffset in="SourceAlpha" result="shadowOffsetOuter1"/>
            <feGaussianBlur in="shadowOffsetOuter1" result="shadowBlurOuter1" stdDeviation="8"/>
            <feColorMatrix in="shadowBlurOuter1" values="0 0 0 0 0.684488874 0 0 0 0 0.757718836 0 0 0 0 0.874886775 0 0 0 0.2 0"/>
        </filter>
        <circle id="prefix__b" cx="24" cy="24" r="24"/>
    </defs>
    <g fill="none" fill-rule="evenodd" transform="matrix(-1 0 0 1 48 0)">
        <use fill="#000" filter="url(#prefix__a)" xlink:href="#prefix__b"/>
        <use fill="#FFF" xlink:href="#prefix__b"/>
        <circle cx="24" cy="24" r="23" stroke="#ACB2BD" stroke-width="2"/>
        <g fill="#FF7800">
            <path d="M19.996 11.002H6.412l3.295-3.295c.391-.39.391-1.023 0-1.414-.39-.39-1.024-.39-1.414 0l-5 5c-.39.391-.39 1.023 0 1.414l4.995 5c.196.195.452.293.708.293.256 0 .512-.098.707-.293.391-.39.391-1.023.001-1.414l-3.289-3.29h13.581c.553 0 1-.448 1-1 0-.554-.447-1-1-1" transform="translate(12 12)"/>
        </g>
    </g>
</svg>
