<svg xmlns="http://www.w3.org/2000/svg" width="48" height="48" viewBox="0 0 48 48">
    <g fill="none" fill-rule="evenodd" >
        <circle cx="24" cy="24" r="23" stroke="#F4F4F6" stroke-width="2"/>
        <path fill="#FFF" d="M31.996 23.002H18.412l3.295-3.295c.391-.39.391-1.023 0-1.414-.39-.39-1.024-.39-1.414 0l-5 5c-.39.391-.39 1.023 0 1.414l4.995 5c.196.195.452.293.708.293.256 0 .512-.098.707-.293.391-.39.391-1.023.001-1.414l-3.289-3.29h13.581c.553 0 1-.448 1-1 0-.554-.447-1-1-1"/>
    </g>
</svg>
