<svg width="48" height="48" viewBox="0 0 48 48" fill="none" xmlns="http://www.w3.org/2000/svg">
<path d="M1 24C1 36.7025 11.2975 47 24 47C36.7025 47 47 36.7025 47 24C47 11.2975 36.7025 1 24 1C11.2975 1 1 11.2975 1 24Z" fill="white" stroke="#E5E7EB" stroke-width="2"/>
<path fill-rule="evenodd" clip-rule="evenodd" d="M16.004 23.002H29.588L26.293 19.707C25.902 19.317 25.902 18.684 26.293 18.293C26.683 17.903 27.317 17.903 27.707 18.293L32.707 23.293C33.097 23.684 33.097 24.316 32.707 24.707L27.712 29.707C27.516 29.902 27.26 30 27.004 30C26.748 30 26.492 29.902 26.297 29.707C25.906 29.317 25.906 28.684 26.296 28.293L29.585 25.003H16.004C15.451 25.003 15.004 24.555 15.004 24.003C15.004 23.449 15.451 23.003 16.004 23.003" fill="#BFC4CC"/>
</svg>
