<svg width="48" height="48" viewBox="0 0 48 48" fill="none" xmlns="http://www.w3.org/2000/svg">
<path d="M47 24C47 36.7025 36.7025 47 24 47C11.2975 47 1 36.7025 1 24C1 11.2975 11.2975 1 24 1C36.7025 1 47 11.2975 47 24Z" fill="white" stroke="#E5E7EB" stroke-width="2"/>
<path fill-rule="evenodd" clip-rule="evenodd" d="M31.996 23.002H18.412L21.707 19.707C22.098 19.317 22.098 18.684 21.707 18.293C21.317 17.903 20.683 17.903 20.293 18.293L15.293 23.293C14.903 23.684 14.903 24.316 15.293 24.707L20.288 29.707C20.484 29.902 20.74 30 20.996 30C21.252 30 21.508 29.902 21.703 29.707C22.094 29.317 22.094 28.684 21.704 28.293L18.415 25.003H31.996C32.549 25.003 32.996 24.555 32.996 24.003C32.996 23.449 32.549 23.003 31.996 23.003" fill="#BFC4CC"/>
</svg>
