<svg width="20" height="20" viewBox="0 0 20 20" fill="none" xmlns="http://www.w3.org/2000/svg">
<path fill-rule="evenodd" clip-rule="evenodd" d="M10 0C4.47715 0 0 4.47715 0 10C0 15.5228 4.47715 20 10 20C15.5228 20 20 15.5228 20 10C20 7.34784 18.9464 4.8043 17.0711 2.92893C15.1957 1.05357 12.6522 0 10 0ZM10 7C9.44772 7 9 6.55228 9 6C9 5.44772 9.44772 5 10 5C10.5523 5 11 5.44772 11 6C11 6.55228 10.5523 7 10 7ZM11 14C11 14.5523 10.5523 15 10 15C9.44772 15 9 14.5523 9 14V9C9 8.44772 9.44772 8 10 8C10.5523 8 11 8.44772 11 9V14Z" fill="#E30425"/>
</svg>
