<svg xmlns="http://www.w3.org/2000/svg" width="184" height="191" viewBox="0 0 184 191">
    <g fill="none" fill-rule="evenodd">
        <g>
            <path fill="#2853B8" d="M67.04 40.48C91.739 26.389 107.124-.599 131.28.667c30.665 1.607 16.3 29.02 29.818 55.21s22.975 23.497 22.055 41.064c-.99 18.9-30.328 17.362-51.637 36.547-7.277 6.552-3.822 31.305-42.305 36.713-38.483 5.409-44.307-32.05-53.501-43.696C17.917 103.966-.23 100.68.948 78.233 2.35 51.46 42.344 54.57 67.04 40.48zm-39.32 89.827c1.804 0 3.267 1.462 3.267 3.266s-1.463 3.267-3.267 3.267c-1.804 0-3.267-1.463-3.267-3.267 0-1.804 1.463-3.266 3.267-3.266z" transform="translate(0 19.5)"/>
            <path fill="#8FBAFC" d="M47.213 34.893c.722 0 1.307.585 1.307 1.307s-.585 1.307-1.307 1.307c-.721 0-1.306-.585-1.306-1.307s.585-1.307 1.306-1.307zM149.7 66.267c1.263 0 2.287 1.023 2.287 2.286 0 1.263-1.024 2.287-2.287 2.287s-2.287-1.024-2.287-2.287 1.024-2.286 2.287-2.286z" transform="translate(0 19.5)"/>
        </g>
        <g transform="scale(-1 1) rotate(14 -64.088 -462.994)">
            <path fill="#ACD3FF" d="M48.063 42.207c26.545 0 48.064 21.518 48.064 48.063v59.992c0 7.161-5.806 12.967-12.967 12.967H12.966C5.806 163.229 0 157.423 0 150.262V90.27c0-26.545 21.519-48.063 48.063-48.063z"/>
            <rect width="70.534" height="43.271" x="12.796" y="83.796" fill="#DAEDFF" rx="3.242"/>
            <path fill="#419DFF" d="M56.627 0c4.999 0 9.05 4.033 9.05 9.009 0 4.975-4.051 9.009-9.05 9.009l-2.194-.002v13.24h.86c5.736 0 10.385 4.628 10.385 10.337v4.047H28.74v-4.047c0-5.71 4.65-10.337 10.384-10.337h.86v-13.24l-2.193.002c-3.311 0-6.207-1.77-7.785-4.411H7.322c-2.317 0-4.194-1.869-4.194-4.174 0-2.306 1.877-4.175 4.194-4.175H29.56C30.99 2.154 34.137 0 37.79 0h18.837z"/>
        </g>
    </g>
</svg>
