<svg xmlns="http://www.w3.org/2000/svg" width="38" height="43" viewBox="0 0 38 43">
    <g fill="#202E44" fill-rule="evenodd">
        <g>
            <path fill-rule="nonzero" d="M34.144 0c1.993 0 3.579 1.759 3.653 3.92l.003.16v17.74c0 2.181-1.538 3.992-3.51 4.077l-.146.003H13.456c-2.042 0-3.656-1.846-3.656-4.08 0-.386.313-.7.7-.7.387 0 .7.314.7.7 0 1.45.965 2.601 2.134 2.676l.122.004h20.688c1.183 0 2.187-1.103 2.253-2.53l.003-.15V4.08c0-1.45-.965-2.601-2.134-2.676l-.122-.004H13.456c-1.183 0-2.187 1.103-2.253 2.53l-.003.15v.845c0 .386-.313.7-.7.7-.359 0-.655-.27-.695-.619L9.8 4.925v-.846C9.8 1.9 11.338.09 13.31.003L13.456 0h20.688z" transform="translate(0 16.1)"/>
            <path fill-rule="nonzero" d="M23.66 7.7H2.24C1.003 7.7 0 8.703 0 9.94v6.72c0 1.237 1.003 2.24 2.24 2.24h21.42c1.237 0 2.24-1.003 2.24-2.24V9.94c0-1.237-1.003-2.24-2.24-2.24zM2.24 9.1h21.42c.464 0 .84.376.84.84v6.72c0 .464-.376.84-.84.84H2.24c-.464 0-.84-.376-.84-.84V9.94c0-.464.376-.84.84-.84z" transform="translate(0 16.1)"/>
            <path d="M20.3 11.9c.773 0 1.4.627 1.4 1.4 0 .773-.627 1.4-1.4 1.4-.773 0-1.4-.627-1.4-1.4 0-.773.627-1.4 1.4-1.4zm-4.9 0c.773 0 1.4.627 1.4 1.4 0 .773-.627 1.4-1.4 1.4-.773 0-1.4-.627-1.4-1.4 0-.773.627-1.4 1.4-1.4zm-4.9 0c.773 0 1.4.627 1.4 1.4 0 .773-.627 1.4-1.4 1.4-.773 0-1.4-.627-1.4-1.4 0-.773.627-1.4 1.4-1.4zm-4.9 0c.773 0 1.4.627 1.4 1.4 0 .773-.627 1.4-1.4 1.4-.773 0-1.4-.627-1.4-1.4 0-.773.627-1.4 1.4-1.4z" transform="translate(0 16.1)"/>
        </g>
        <path fill-rule="nonzero" d="M24.15 0C18.158 0 13.3 4.858 13.3 10.85v6.65h5.6v-6.65l.003-.168C18.986 7.86 21.309 5.6 24.15 5.6l.168.003c2.822.083 5.082 2.406 5.082 5.247v6.65H35v-6.65C35 4.858 30.142 0 24.15 0zm.217 1.402c5.119.116 9.233 4.301 9.233 9.448v5.25h-2.8v-5.25c0-3.598-2.862-6.541-6.45-6.647l-.19-.003c-3.608 0-6.551 2.862-6.657 6.45l-.003.19v5.26h-2.8v-5.25c0-5.22 4.23-9.45 9.45-9.45l.217.002z"/>
    </g>
</svg>
