<?xml version="1.0" encoding="UTF-8"?>
<svg width="60px" height="60px" viewBox="0 0 60 60" version="1.1" xmlns="http://www.w3.org/2000/svg" xmlns:xlink="http://www.w3.org/1999/xlink">
    <!-- Generator: Sketch 64 (93537) - https://sketch.com -->
    <title>spots/d/sp_deposit</title>
    <desc>Created with Sketch.</desc>
    <g id="1.ATM_retiro_k3a" stroke="none" stroke-width="1" fill="none" fill-rule="evenodd">
        <g id="1.9.0.0.ATM_Retiro_K3A" transform="translate(-234.000000, -319.000000)">
            <g id="cards/1.hero/1.primary" transform="translate(196.000000, 256.000000)">
                <g id="spots/e/sp_ecofriendly" transform="translate(32.000000, 57.000000)">
                    <path d="M48,6 C57.942,6 66,14.064 66,24 C66,33.6068726 58.4760863,41.4546172 48.9987237,41.9727689 L48.999891,59.0273148 C53.4339236,59.2701942 57.4403043,61.118543 60.4485436,64.0002083 L65,64 C65.5522847,64 66,64.4477153 66,65 C66,65.5522847 65.5522847,66 65,66 L7,66 C6.44771525,66 6,65.5522847 6,65 C6,64.4477153 6.44771525,64 7,64 L19.982,63.999 L19.9817452,60.9142881 C16.6293293,60.6735313 14.1962671,59.7962988 12.6825589,58.2825905 C11.0908465,56.6908781 10.2028975,54.0826185 10.018712,50.4578117 L10.000628,50.0350519 C9.98124453,49.4831323 10.4129504,49.0199996 10.96487,49.0006161 L11.0350653,49.0006161 C14.8804685,49.1356732 17.629633,50.0296646 19.2825589,51.6825905 C19.5334504,51.933482 19.7668567,52.2096298 19.9827779,52.5110339 L19.9825589,43 C19.9825589,42.4477153 20.4302741,42 20.9825589,42 C21.5348436,42 21.9825589,42.4477153 21.9825589,43 L21.982,64 L35.5513362,64.0003235 C38.5593629,61.1188088 42.565415,59.2704754 46.999109,59.0273696 L46.9982678,41.9726041 C37.5223215,41.4529563 30,33.605856 30,24 C30,14.064 38.058,6 48,6 Z M47.986,60.999 L47.5645299,61.0058429 C44.3786895,61.0914045 41.3650391,62.1137058 38.842473,63.8774884 L38.671,63.999 L57.328,63.999 L57.157527,63.8774884 C54.6217307,62.1044552 51.5896852,61.0807015 48.3853291,61.004574 L47.986,60.999 Z M12.465358,51.0996397 L12.062,51.063 L12.0657472,51.0985909 C12.2974743,53.8688051 13.0043933,55.7759978 14.0967725,56.8683769 C15.1412171,57.9128216 16.9297909,58.6041056 19.4997598,58.8655413 L19.902,58.901 L19.8993706,58.8665901 C19.6777185,56.21682 19.0212974,54.3566574 18.0086362,53.2439131 L17.8683453,53.0968041 C16.8239007,52.0523594 15.0353269,51.3610754 12.465358,51.0996397 Z M48,8 C39.1647444,8 32,15.1663941 32,24 C32,32.5011059 38.6277738,39.4524048 46.9986058,39.9693667 L46.999,36.421 L42.295367,31.7215253 C41.9015443,31.3277026 41.9015443,30.6891898 42.295367,30.295367 C42.6891898,29.9015443 43.3277026,29.9015443 43.7215253,30.295367 L46.999,33.57 L47,23 C47,22.4477153 47.4477153,22 48,22 C48.5522847,22 49,22.4477153 49,23 L48.999,29.577 L52.2841618,26.295367 C52.6476904,25.9318384 53.2197124,25.9038746 53.615317,26.2114758 L53.71032,26.295367 C54.0738487,26.6588957 54.1018124,27.2309177 53.7942112,27.6265223 L53.71032,27.7215253 L48.999,32.428 L48.999,35.568 L49.005687,35.5742385 L48.999,35.58 L48.9983865,39.9693667 C57.3706386,39.4540698 64,32.502124 64,24 C64,15.1663941 56.8352556,8 48,8 Z" id="color🎨" fill="#FFFFFF"></path>
                    <path d="M33.9825988,44.0005043 C30.1242889,44.1355666 27.3660295,45.0322021 25.7078205,46.6904111 C24.1110221,48.2872095 23.220433,50.904088 23.0360531,54.5410465 L23.0179468,54.9652237 C22.9986269,55.5171515 23.430391,55.9802392 23.9823188,55.9995591 L24.0522834,55.9995591 L24.0522834,55.9995591 C27.9105933,55.8644969 30.6688527,54.9678613 32.3270617,53.3096523 C33.9238601,51.7128539 34.8144492,49.0959754 34.9988291,45.459017 L35.0169354,45.0348397 C35.0362553,44.4829119 34.6044913,44.0198242 34.0525635,44.0005043 L33.9825988,44.0005043 Z" id="hight🎨" fill="#FF9333"></path>
                </g>
            </g>
        </g>
    </g>
</svg>