<svg xmlns="http://www.w3.org/2000/svg" width="35" height="34" viewBox="0 0 35 34">
    <path fill="#FF7800" fill-rule="evenodd" d="M1.144.498c.664-.664 1.74-.664 2.405 0l30.6 30.6c.663.664.663 1.74 0 2.404-.664.664-1.74.664-2.405 0l-6.482-6.479c-2.377 1.251-4.915 1.877-7.616 1.877-6.325 0-11.764-3.433-16.314-10.298l-.388-.597c-.39-.613-.39-1.397 0-2.01 1.902-2.984 3.962-5.356 6.18-7.114l-5.98-5.979c-.664-.664-.664-1.74 0-2.404zM17.811 5c6.266 0 11.653 3.484 16.161 10.452l.384.606c.387.622.387 1.417 0 2.04-1.164 1.871-2.388 3.505-3.672 4.902l-8.89-9.107c-.254-.332-.546-.632-.87-.892l-7.278-7.454C14.988 5.182 16.376 5 17.811 5zm-6.165 12.409c0 3.088 2.504 5.591 5.592 5.591.862 0 1.68-.195 2.408-.544L12.19 15c-.348.73-.544 1.546-.544 2.409z"/>
</svg>
