<svg xmlns="http://www.w3.org/2000/svg" width="44" height="44" viewBox="0 0 44 44">
    <g fill="#202E44" fill-rule="evenodd">
        <path d="M38.5 3.667c1.013 0 1.833.82 1.833 1.833v11c0 1.013-.82 1.833-1.833 1.833h-6.722v11.611c0 1.013-.821 1.834-1.834 1.834H14.056c-1.013 0-1.834-.821-1.834-1.834v-11.61H5.5c-1.013 0-1.833-.821-1.833-1.834v-11c0-1.013.82-1.833 1.833-1.833h33zM14.362 26.889c-.316 0-.623.037-.917.106v2.95c0 .313.305.61.61.61l4.268.001c-.156-2.051-1.87-3.667-3.961-3.667zm15.277 0c-2.091 0-3.805 1.616-3.96 3.667h4.265c.314 0 .612-.306.612-.612v-2.949c-.294-.07-.601-.106-.917-.106zm.917-15.278H13.444v14.136c.298-.053.605-.08.918-.08 2.766 0 5.027 2.162 5.185 4.889h4.906c.158-2.727 2.42-4.89 5.186-4.89.313 0 .62.028.917.081V11.611zM22 12.833c3.375 0 6.111 2.738 6.111 6.111 0 3.376-2.736 6.112-6.111 6.112-3.375 0-6.111-2.736-6.111-6.112 0-3.373 2.736-6.11 6.111-6.11zm0 1.223c-2.7 0-4.889 2.19-4.889 4.888 0 2.7 2.189 4.89 4.889 4.89s4.889-2.19 4.889-4.89c0-2.699-2.19-4.888-4.889-4.888zm0 1.222c.278 0 .558.033.83.106l.163.049.26.09.194.072.16.065.172.076.318.148c.304.145.433.51.288.814-.135.283-.46.414-.749.315l-.066-.027-.256-.12-.2-.089-.09-.037-.19-.07-.229-.079c-.687-.229-1.471-.037-1.75.473-.12.22-.096.508.048.676.088.102.207.186.389.276l.096.045.233.098.128.052.154.059.18.064.395.132.305.108c.37.136.608.25.882.429 1.405.91.753 3.243-1.137 3.57-.781.09-1.486-.015-2.094-.246-.284-.108-.491-.22-.616-.307-.277-.193-.346-.573-.153-.85.163-.234.46-.32.716-.224l.069.031.123.075.043.023.11.052c.042.018.09.038.142.058.434.165.945.241 1.486.18.812-.14 1.07-1.063.645-1.338-.192-.125-.372-.21-.685-.324l-.124-.044-.582-.198-.141-.05-.402-.16-.19-.082c-.384-.173-.66-.356-.898-.633-.482-.56-.555-1.399-.195-2.057.44-.803 1.313-1.199 2.218-1.201zM5.5 4.888l33 .005c.278-.004.57.255.607.545l.004.062-.004 11c.004.292-.255.571-.545.607l-.062.004h-6.722v-5.5h1.833c.338 0 .611-.273.611-.611 0-.313-.236-.572-.54-.607l-.07-.004H10.388c-.338 0-.611.273-.611.611 0 .313.236.572.54.607l.07.004h1.834v5.5H5.5c-.284 0-.567-.257-.607-.544L4.89 16.5v-11c0-.285.257-.568.544-.607L5.5 4.89zM26.027 35.683c.334.319.334.834 0 1.153l-3.422 3.259c-.167.159-.386.238-.605.238-.219 0-.438-.08-.605-.238l-3.422-3.26c-.334-.318-.334-.833 0-1.152.167-.159.386-.239.605-.239h6.844c.219 0 .438.08.605.24z"/>
    </g>
</svg>
