<?xml version="1.0" encoding="UTF-8"?>
<svg width="72px" height="72px" viewBox="0 0 72 72" version="1.1" xmlns="http://www.w3.org/2000/svg" xmlns:xlink="http://www.w3.org/1999/xlink">
    <!-- Generator: sketchtool 64 (101010) - https://sketch.com -->
    <title>6B6F4392-9040-40EE-88DA-2C4D76DE8E24</title>
    <desc>Created with sketchtool.</desc>
    <g id="1.ATM_retiro_k3a" stroke="none" stroke-width="1" fill="none" fill-rule="evenodd">
        <g id="1.3.0.0.ATM_Retiro_K3A" transform="translate(-64.000000, -489.000000)" fill="#FFFFFF">
            <g id="cards/1.hero/1.primary" transform="translate(32.000000, 432.000000)">
                <g id="spots/d/sp_deposit" transform="translate(32.000000, 57.000000)">
                    <path d="M63,32.0002501 C64.6568542,32.0002501 66,33.3433958 66,35.0002501 L66,50.0002501 C66,51.6571043 64.6568542,53.0002501 63,53.0002501 L58.001,53.0002501 L58,58.0002501 C58,59.2369734 57.2516588,60.2989123 56.1830956,60.7579476 L56,60.8295758 L56,63.0002501 C56,64.6571043 54.6568542,66.0002501 53,66.0002501 L19,66.0002501 C17.3431458,66.0002501 16,64.6571043 16,63.0002501 L15.9990993,60.8292258 C14.8343774,60.4171352 14,59.3061323 14,58.0002501 L14,32.0002501 L63,32.0002501 Z M9,53.0002501 C7.34314575,53.0002501 6,51.6571043 6,50.0002501 L6,35.0002501 C6,33.3433958 7.34314575,32.0002501 9,32.0002501 L14,32.0002501 L14,34.0002501 L9,34.0002501 C8.48716416,34.0002501 7.99327227,34.4720348 8,35.0002501 L8,50.0002501 C8,50.5130859 8.38604019,50.9357572 8.88337887,50.9935223 L9,51.0002501 L14,51.0002501 L14,53.0002501 L9,53.0002501 Z M58.001,34.0002501 L58.001,51.0002501 L63,51.0002501 C63.5128358,51.0002501 63.9355072,50.6142099 63.9932723,50.1168712 L64,50.0002501 L64,35.0002501 C64,34.4874142 63.6139598,34.0647429 63.1166211,34.0069778 L63,34.0002501 L58.001,34.0002501 Z M56.0006852,38.9816061 L56,34.0002501 L50.1730544,34.0002501 C50.8132119,36.710624 53.1501159,38.7654288 56.0006852,38.9816061 Z M16.000332,38.9814651 C18.8500596,38.7645368 21.186088,36.7100357 21.8261066,34.0002501 L16,34.0002501 L16.000332,38.9814651 Z M23.8680137,59.0005486 L48.1311473,59.0005486 C48.0444173,58.5135409 47.999161,58.0121806 47.999161,57.5002501 C47.999161,52.9731755 51.5382554,49.2727008 56.0006442,49.0146259 L56.0006442,40.9860593 C52.0427117,40.7571589 48.8111229,37.8201673 48.1310651,34.0002721 L23.8680959,34.0002721 C23.1881502,37.819538 19.9575139,40.7561912 16.0004728,40.985946 L16.0004728,49.0147393 C20.4619397,49.2737821 24,52.973837 24,57.5002501 C24,58.0121806 23.9547437,58.5135409 23.8680137,59.0005486 Z M36,55.0002501 C30.4771525,55.0002501 26,50.5230976 26,45.0002501 C26,39.4774026 30.4771525,35.0002501 36,35.0002501 C41.5228475,35.0002501 46,39.4774026 46,45.0002501 C46,50.5230976 41.5228475,55.0002501 36,55.0002501 Z M36,53.0002501 C40.418278,53.0002501 44,49.4185281 44,45.0002501 C44,40.5819721 40.418278,37.0002501 36,37.0002501 C31.581722,37.0002501 28,40.5819721 28,45.0002501 C28,49.4185281 31.581722,53.0002501 36,53.0002501 Z M50.1731194,59.0003622 L55,59.0002501 C55.5128358,59.0002501 55.9355072,58.6142099 55.9932723,58.1168712 L56,58.0002501 L56.0006852,51.0190791 C52.6437376,51.2736584 49.999161,54.0781172 49.999161,57.5002501 C49.999161,58.0165594 50.0593591,58.5188087 50.1731194,59.0003622 Z M21.8260417,59.0003622 C21.939802,58.5188087 22,58.0165594 22,57.5002501 C22,54.078748 19.3563982,51.2746922 16.000332,51.0192201 L16,58.0002501 C16,58.5130859 16.3860402,58.9357572 16.8833789,58.9935223 L17,59.0002501 L21.8260417,59.0003622 Z M36.8645582,50.9385964 C35.5859444,51.0843062 34.4328664,50.912986 33.4375558,50.5349773 C32.9725344,50.3583669 32.6333451,50.1738426 32.429543,50.0323877 C31.9759705,49.717572 31.8637195,49.0950066 32.1788233,48.641849 C32.4454497,48.2584079 32.9326193,48.1191213 33.350993,48.276063 L33.4631719,48.3262489 L33.6655241,48.4491209 L33.7345205,48.485938 L33.9143377,48.5713924 C33.9834006,48.6019637 34.0614737,48.6342615 34.1482159,48.6672052 C34.8580585,48.9367962 35.6934953,49.0609224 36.5797921,48.9616536 C37.9072367,48.7308712 38.3291583,47.2210845 37.635103,46.7716598 C37.321102,46.5675822 37.0253639,46.4271935 36.5140105,46.2416669 L36.3116893,46.1697661 L35.3589234,45.8461372 L35.1272454,45.7628119 L34.4708064,45.5027153 L34.1576743,45.3679355 C33.5306506,45.0843655 33.080516,44.7856627 32.6896838,44.3324968 C31.9000975,43.4156912 31.7817362,42.0433674 32.3698631,40.9661963 C33.0890711,39.6518141 34.5193361,39.0038557 36.0000892,39.0002376 C36.4549759,38.9992855 36.9135694,39.0543447 37.3588618,39.1744027 L37.624305,39.2543092 L38.0517246,39.4010031 L38.3677867,39.5186303 L38.6296602,39.6255005 L38.9115848,39.7496595 L39.4309083,39.9925757 C39.9293113,40.2302927 40.1404626,40.8266664 39.9025279,41.3246136 C39.6815885,41.7869931 39.1511162,42.0019177 38.6774123,41.8399326 L38.5692705,41.7958018 L38.1500452,41.5987234 L37.8229778,41.4540869 L37.6740917,41.3932207 L37.3657916,41.2779652 L36.9903567,41.1494424 C35.8662197,40.7747662 34.582257,41.0885663 34.125187,41.9238797 C33.9287336,42.28369 33.9693651,42.754786 34.205264,43.0286936 C34.3495168,43.1959531 34.5435916,43.3342556 34.8409399,43.4806429 L34.9984676,43.5546818 L35.3797078,43.7150694 L35.5897539,43.799392 L35.8412995,43.8961389 L36.1371603,44.0008751 L36.7820579,44.2181396 L37.281464,44.3940864 C37.8873389,44.6169714 38.2762266,44.804585 38.7242804,45.0957882 C41.0236281,46.5846895 39.9566355,50.4027722 36.8645582,50.9385964 Z M19,64.0002501 L18.8833789,63.9935223 C18.424297,63.9402007 18.0600494,63.5759531 18.0067277,63.1168712 L18,63.0002501 L18,61.0002501 L54,61.0002501 L54,63.0002501 L53.9932723,63.1168712 C53.9399506,63.5759531 53.575703,63.9402007 53.1166211,63.9935223 L53,64.0002501 L19,64.0002501 Z" id="Shape" transform="translate(36.000000, 49.000250) rotate(-180.000000) translate(-36.000000, -49.000250) "></path>
                    <path d="M42.5894705,6.39099601 C43.1368432,6.91232391 43.1368432,7.7549818 42.5894705,8.2763097 L36.9897505,13.6095875 C36.7167642,13.8695848 36.3583821,14.0002501 36,14.0002501 C35.6416179,14.0002501 35.2832358,13.8695848 35.0102495,13.6095875 L29.4105295,8.2763097 C28.8631568,7.7549818 28.8631568,6.91232391 29.4105295,6.39099601 C29.6841266,6.13041699 30.0420146,6.00008503 30.39993,6 L41.59937,6 C41.9575188,5.99991516 42.315695,6.13024712 42.5894705,6.39099601 Z" id="hight🎨" transform="translate(36.000000, 10.000125) rotate(-360.000000) translate(-36.000000, -10.000125) "></path>
                </g>
            </g>
        </g>
    </g>
</svg>