<svg xmlns="http://www.w3.org/2000/svg" width="34" height="24" viewBox="0 0 34 24">
    <path fill="#FF7800" fill-rule="evenodd" d="M17 .333c6.203 0 11.536 3.366 15.999 10.096l.38.586c.383.6.383 1.37 0 1.97C28.84 20.106 23.381 23.667 17 23.667c-6.203 0-11.536-3.366-15.999-10.096l-.38-.586c-.383-.6-.383-1.37 0-1.97C5.16 3.894 10.619.333 17 .333zm0 5c-3.682 0-6.667 2.985-6.667 6.667s2.985 6.667 6.667 6.667 6.667-2.985 6.667-6.667S20.682 5.333 17 5.333zm0 3.334c1.84 0 3.333 1.492 3.333 3.333 0 1.84-1.492 3.333-3.333 3.333-1.84 0-3.333-1.492-3.333-3.333 0-1.84 1.492-3.333 3.333-3.333z"/>
</svg>
