<svg xmlns="http://www.w3.org/2000/svg" width="40" height="40" viewBox="0 0 40 40">
    <g fill="none" fill-rule="evenodd">
        <g fill="#868F9E">
            <g>
                <g>
                    <g>
                        <path d="M28.333 5H11.667C10.747 5 10 5.746 10 6.667v26.666c0 .92.746 1.667 1.667 1.667h16.666c.92 0 1.667-.746 1.667-1.667V6.667C30 5.747 29.254 5 28.333 5zm-15 3.333h13.334V25H13.333V8.333zm13.334 20v3.334H20c.92 0 1.667-.747 1.667-1.667S20.92 28.333 20 28.333s-1.667.747-1.667 1.667.747 1.667 1.667 1.667h-6.667v-3.334h13.334z" transform="translate(-110 -360) translate(110 255) translate(0 100) translate(0 5)"/>
                    </g>
                </g>
            </g>
        </g>
    </g>
</svg>
