<svg xmlns="http://www.w3.org/2000/svg" width="48" height="48" viewBox="0 0 48 48">
    <g fill="none" fill-rule="evenodd">
        <g>
            <g>
                <g>
                    <path fill="#FFF" d="M2.25 27C1.006 27 0 25.995 0 24.75V2.25C0 1.008 1.006 0 2.25 0h40.5C43.996 0 45 1.008 45 2.25v22.5c0 1.245-1.005 2.25-2.25 2.25H2.25zm.002-7.547L2.25 24.75h5.299c-.756-2.539-2.758-4.541-5.297-5.297zM35.126 2.25H9.874c-.858 3.785-3.837 6.764-7.622 7.623v7.253c3.785.86 6.764 3.84 7.622 7.625h25.252c.86-3.786 3.839-6.766 7.625-7.625V9.875c-3.786-.86-6.765-3.838-7.625-7.624zm7.625 17.202c-2.54.755-4.543 2.758-5.3 5.299l5.3-.002v-5.298zM22.5 6.75c3.728 0 6.75 3.024 6.75 6.75 0 3.729-3.022 6.75-6.75 6.75-3.729 0-6.75-3.021-6.75-6.75 0-3.726 3.021-6.75 6.75-6.75zm0 2.25c-2.485 0-4.5 2.016-4.5 4.5s2.015 4.5 4.5 4.5c2.483 0 4.5-2.016 4.5-4.5S24.983 9 22.5 9zM2.25 2.25l.002 5.299C4.79 6.793 6.792 4.79 7.55 2.252L2.25 2.25zm40.5 0l-5.298.002c.757 2.54 2.76 4.542 5.299 5.298v-5.3z" transform="translate(-32 -24) translate(32 24) translate(0 6)"/>
                    <path fill="#FF961F" d="M38 16c2.652 0 5.196 1.054 7.072 2.928C46.946 20.804 48 23.348 48 25.999 48 31.523 43.523 36 38 36c-5.521 0-10-4.477-10-10s4.479-10 10-10z" transform="translate(-32 -24) translate(32 24) translate(0 6)"/>
                    <path fill="#FFF" d="M41.144 25.826c-.26.232-.678.232-.937 0-.126-.113-.197-.266-.197-.426 0-.16.07-.313.197-.426l1.529-1.373h-9.071c-.367 0-.665-.268-.665-.6 0-.33.298-.6.665-.6h9.064L40.2 21.028c-.169-.152-.235-.374-.173-.582.062-.207.242-.37.472-.425.23-.056.476.003.645.155l2.66 2.4c.125.112.196.265.196.425 0 .16-.07.313-.197.426l-2.659 2.399zm-5.643 6.153c-.23.056-.476-.003-.645-.155l-2.66-2.4C32.072 29.313 32 29.16 32 29c0-.16.07-.313.197-.426l2.659-2.399c.26-.232.678-.232.937 0 .126.113.197.266.197.426 0 .16-.07.313-.197.426l-1.529 1.373 9.071.003c.367 0 .665.268.665.6 0 .33-.298.6-.665.6l-9.064-.003 1.529 1.373c.169.152.235.374.173.582-.062.207-.242.37-.472.425z" transform="translate(-32 -24) translate(32 24) translate(0 6)"/>
                </g>
            </g>
        </g>
    </g>
</svg>
