<svg xmlns="http://www.w3.org/2000/svg" width="72" height="72" viewBox="0 0 72 72">
    <g fill="none" fill-rule="evenodd">
        <path fill="#FFFFFF" d="M63 6c1.657 0 3 1.343 3 3v18c0 1.657-1.343 3-3 3H52v19c0 1.657-1.343 3-3 3H23c-1.657 0-3-1.343-3-3V30H9c-1.657 0-3-1.343-3-3V9c0-1.657 1.343-3 3-3h54zM23.501 44c-.516 0-1.019.06-1.5.174L22 49c0 .513.5 1 1 1h6.982c-.255-3.356-3.059-6-6.48-6zM48.5 44c-3.422 0-6.226 2.644-6.481 6H49c.513 0 1-.5 1-1l.001-4.826C49.52 44.06 49.017 44 48.5 44zM50 19H22v23.132c.487-.087.989-.132 1.501-.132 4.527 0 8.227 3.539 8.486 8h8.027c.259-4.461 3.96-8 8.486-8 .512 0 1.013.045 1.5.132V19zm-14 2c5.523 0 10 4.48 10 10 0 5.523-4.477 10-10 10s-10-4.477-10-10c0-5.52 4.477-10 10-10zm0 2c-4.417 0-8 3.583-8 8 0 4.419 3.581 8 8 8 4.419 0 8-3.581 8-8 0-4.417-3.583-8-8-8zm0 2c.455-.001.914.054 1.359.174l.265.08.428.147.316.117.262.107.282.124.519.243c.498.238.71.834.472 1.332-.221.463-.752.678-1.226.516l-.108-.044-.419-.198-.327-.144-.149-.061-.308-.115-.376-.129c-1.124-.374-2.408-.06-2.865.775-.196.36-.156.83.08 1.104.145.168.339.306.636.452l.157.074.382.16.21.085.251.097.296.105.645.217.5.176c.605.223.994.41 1.442.702 2.3 1.488 1.233 5.307-1.86 5.842-1.278.146-2.431-.025-3.426-.403-.465-.177-.805-.361-1.008-.503-.454-.315-.566-.937-.251-1.39.266-.384.754-.523 1.172-.366l.112.05.203.123.069.037.18.085c.068.03.146.063.233.096.71.27 1.545.394 2.432.294 1.327-.23 1.75-1.74 1.055-2.19-.314-.204-.61-.344-1.121-.53l-.202-.071-.953-.324-.232-.083-.656-.26-.313-.135c-.627-.284-1.077-.583-1.468-1.036-.79-.917-.908-2.289-.32-3.366.72-1.314 2.15-1.962 3.63-1.966zM9 8l54 .007c.456-.007.932.417.993.89L64 9l-.007 18c.007.478-.417.935-.89.994L63 28H52v-9h3c.552 0 1-.448 1-1 0-.513-.386-.936-.883-.993L55 17H17c-.552 0-1 .448-1 1 0 .513.386.936.883.993L17 19h3v9H9c-.464 0-.929-.42-.993-.89L8 27V9c0-.466.42-.929.89-.993L9 8z"/>
        <path fill="#FFFFFF" d="M42.59 58.391c.547.521.547 1.364 0 1.885l-5.6 5.334c-.273.26-.632.39-.99.39s-.717-.13-.99-.39l-5.6-5.334c-.547-.521-.547-1.364 0-1.885.274-.26.632-.39.99-.391h11.2c.358 0 .716.13.99.391z"/>
    </g>
</svg>
