<svg xmlns="http://www.w3.org/2000/svg" width="24" height="24" viewBox="0 0 24 24">
    <defs>
        <filter id="07uimwd2ga">
            <feColorMatrix in="SourceGraphic" values="0 0 0 0 1.000000 0 0 0 0 1.000000 0 0 0 0 1.000000 0 0 0 1.000000 0"/>
        </filter>
    </defs>
    <g fill="none" fill-rule="evenodd" filter="url(#07uimwd2ga)" transform="translate(-57 -8)">
        <path fill="#202E44" d="M68.04 12.68l.365.32h1.935c3.393 0 6.036 2.41 6.564 5.9l.002-.001c.062-.038.093-.088.093-.15V18c.001-.553.449-1 1.001-1 .513 0 .936.385.993.883L79 18v1c0 1.054-.816 1.918-1.851 1.994l-.149.012c-.035.936-.165 1.548-.471 2.437l-.11.308-.236.629-.055.203-.129.562.001 2.858c0 .473-.329.87-.77.973l-.113.02-.117.007h-4c-.513 0-.936-.386-.993-.884L70 28.003 69.999 27h-2L68 28.003c0 .473-.329.87-.77.973l-.113.02-.117.007h-4c-.513 0-.936-.386-.993-.884L62 28.003V24.6l-.03-.135c-.039-.171-.079-.324-.123-.475l-.07-.229-.269-.755H60c-.474 0-.87-.329-.974-.77l-.02-.113-.006-.117v-3.998c0-.512.386-.935.883-.993l.117-.014L61.816 17l.76-.856.423-.495.001-3.637c0-.416.256-.779.627-.928l.115-.038.111-.023.116-.013c1.116-.086 2.545.36 4.071 1.67zM65 13.16L65 16.015c0 .234-.082.46-.232.64l-.693.814-.256.294-.807.912c-.163.182-.386.298-.625.327l-.122.007H61v1.998h1.212c.34 0 .649.171.832.444l.062.108.05.115.523 1.468c.062.192.117.377.167.572l.075.304.059.27.021.204-.001 2.51h2l.001-.997c0-.474.329-.87.77-.974l.113-.02.117-.006h4c.513 0 .936.386.993.883l.007.117-.001.998h2L74 25.038l.02-.201.057-.264.072-.317.074-.296c.035-.128.067-.232.1-.32.598-1.545.677-1.906.677-3.438 0-3.016-1.885-5.095-4.45-5.202H68c-.267 0-.524-.096-.712-.287-.72-.729-1.41-1.199-2.056-1.464L65 13.16zm.501 5.34c.553 0 1 .448 1 1s-.447 1-1 1c-.552 0-1-.448-1-1s.448-1 1-1z"/>
    </g>
</svg>
