<svg xmlns="http://www.w3.org/2000/svg" width="42" height="32" viewBox="0 0 42 32">
    <g fill="#202E44" fill-rule="evenodd">
        <path d="M33.6 14.7c4.64 0 8.4 3.76 8.4 8.4 0 4.64-3.76 8.4-8.4 8.4-4.64 0-8.4-3.76-8.4-8.4 0-4.64 3.76-8.4 8.4-8.4zm0 15.4c-3.866 0-7-3.134-7-7s3.134-7 7-7 7 3.134 7 7-3.134 7-7 7zm.605-2.843c-.895.102-1.702-.018-2.399-.283-.325-.123-.563-.252-.705-.351-.318-.22-.396-.657-.176-.974.187-.268.528-.366.82-.256l.08.035.14.086.05.026.125.06c.048.021.103.044.164.067.497.189 1.081.275 1.702.206.93-.162 1.224-1.218.739-1.533-.22-.143-.427-.241-.785-.371l-.142-.05-.667-.227-.162-.058-.46-.182-.219-.095c-.439-.198-.754-.407-1.027-.724-.553-.642-.636-1.603-.224-2.357.503-.92 1.505-1.373 2.541-1.376.318 0 .64.038.951.122l.186.056.3.103.22.082.184.075.197.087.364.17c.349.166.496.584.33.932-.155.324-.526.474-.858.36l-.076-.03-.293-.138-.229-.101-.104-.043-.216-.08-.263-.09c-.787-.263-1.685-.043-2.005.542-.138.251-.11.581.056.773.1.117.237.214.445.316l.11.052.267.112.147.06.176.067.207.073.451.153.35.123c.424.156.696.287 1.01.49 1.61 1.043.863 3.716-1.302 4.09z"/>
        <path fill-rule="nonzero" d="M33.53 0c.777 0 1.412.602 1.466 1.365L35 1.47v9.737c0 .387-.313.7-.7.7-.359 0-.655-.27-.695-.618l-.005-.082V1.47c0-.029-.018-.054-.043-.064L33.53 1.4H1.47c-.029 0-.054.018-.064.043L1.4 1.47v20.16c0 .029.018.054.043.064l.027.006h20.157c.387 0 .7.313.7.7 0 .359-.27.655-.618.695l-.082.005H1.47c-.777 0-1.412-.602-1.466-1.365L0 21.63V1.47C0 .693.602.058 1.365.004L1.47 0h32.06z"/>
        <path fill-rule="nonzero" d="M12.6 16.8c.387 0 .7.313.7.7 0 .359-.27.655-.618.695l-.082.005H6.3c-.387 0-.7-.313-.7-.7 0-.359.27-.655.618-.695L6.3 16.8h6.3zM34.3 7L34.3 8.4 0 8.4 0 7z"/>
    </g>
</svg>
