<svg xmlns="http://www.w3.org/2000/svg" width="44" height="44" viewBox="0 0 44 44">
    <g fill="#202E44" fill-rule="evenodd">
        <path d="M15.278 22.611l1.136.025 11.086.586c.054 0 .109.002.162.006l.136.012.132.02.15.031.066.017.08.024.058.018.083.03.124.051.18.09.063.035.108.067.127.09.122.098.115.105.077.079.107.121.07.089.069.097.093-.01 4.409-.665c1.767-.261 2.742-.396 2.926-.404h.015c1.857 0 3.361 1.504 3.361 3.36 0 1.31-.748 2.444-1.84 2.999l-12.477 7.49c-.265.159-.563.247-.867.26h-.131c-.044 0-.087-.003-.13-.008l-.131-.018-7.96-1.39c-.12-.02-.24-.03-.36-.027l-.12.007c-.395.036-.772.2-1.07.471l-.087.085-2.566 2.67-.609.627c-.338.35-.777.544-1.227.579l-.113.005c-.488.009-.98-.17-1.36-.537L4.25 34.921c-.759-.734-.78-1.946-.047-2.706l7.89-8.223.2-.181.162-.14.186-.15.124-.094.139-.097.06-.04c.667-.43 1.461-.679 2.314-.679zm-8.494 8.685l-1.701 1.767c-.246.255-.257.652-.038.92l5.09 4.935c.137.132.313.196.489.193l.075-.005c.124-.016.245-.066.346-.15l1.772-1.835-6.033-5.825zm8.071-7.432c-.384.052-.748.175-1.077.362l-.17.103-.13.09-.085.065c-.083.065-.173.14-.268.223-.078.068-.159.142-.242.22l-.217.213c-.398.412-2.076 2.17-5.034 5.276l6.033 5.825.642-.665.117-.112c.581-.53 1.34-.812 2.117-.797l.155.007c.035.003.138.015.311.038l7.917 1.383.086.013.079.003.078-.007c.051-.008.102-.023.15-.044l.07-.036 12.552-7.532c.714-.362 1.172-1.094 1.172-1.909 0-1.142-.895-2.074-2.021-2.135l-.118-.004c-.105 0-2.45.346-7.035 1.036l.007.187c0 1.136-.775 2.091-1.825 2.365l-5.063 1.547c-.323.099-.665-.083-.763-.405-.099-.323.083-.665.405-.764l5.205-1.589c.453-.157.777-.571.815-1.056l.004-.098c0-.26-.08-.5-.218-.697l-.056-.073-.06-.07-.033-.033-.061-.056-.064-.05-.08-.056-.055-.033-.11-.054-.075-.03-.08-.025-.115-.027-.068-.01-.072-.006-.084-.003-11.097-.585c-.54-.017-1.053-.016-1.539.005zM22 3.667c4.05 0 7.333 3.283 7.333 7.333 0 4.05-3.283 7.333-7.333 7.333-4.05 0-7.333-3.283-7.333-7.333 0-4.05 3.283-7.333 7.333-7.333zm0 3.666c-.905.003-1.779.399-2.218 1.202-.36.658-.287 1.497.195 2.058.239.277.514.46.897.632l.191.083.402.159.141.05.582.199c.392.136.593.227.81.367.423.275.166 1.198-.646 1.339-.541.06-1.052-.015-1.486-.18-.106-.04-.19-.079-.252-.11l-.043-.023-.123-.075c-.27-.141-.607-.063-.785.193-.193.276-.124.657.153.85.125.086.332.199.616.307.608.23 1.313.335 2.094.246 1.89-.327 2.542-2.66 1.137-3.57-.342-.223-.628-.347-1.187-.537l-.394-.133-.181-.064-.154-.06-.128-.05-.233-.099c-.238-.107-.382-.202-.485-.321-.144-.168-.169-.456-.049-.676.28-.51 1.064-.702 1.751-.473l.23.079c.067.023.128.046.188.07l.091.037.2.089.256.12c.305.145.67.016.815-.288.145-.304.016-.669-.288-.814l-.318-.149-.172-.076-.16-.065-.193-.072-.261-.09c-.323-.107-.66-.155-.993-.155z"/>
    </g>
</svg>
