<svg width="18" height="12" viewBox="0 0 18 12" fill="none" xmlns="http://www.w3.org/2000/svg">
<path fill-rule="evenodd" clip-rule="evenodd" d="M16.996 5.00199H3.41199L6.70699 1.70699C7.09799 1.31699 7.09799 0.683988 6.70699 0.292988C6.31699 -0.0970117 5.68299 -0.0970117 5.29299 0.292988L0.292988 5.29299C-0.0970117 5.68399 -0.0970117 6.31599 0.292988 6.70699L5.28799 11.707C5.48399 11.902 5.73999 12 5.99599 12C6.25199 12 6.50799 11.902 6.70299 11.707C7.09399 11.317 7.09399 10.684 6.70399 10.293L3.41499 7.00299H16.996C17.549 7.00299 17.996 6.55499 17.996 6.00299C17.996 5.44899 17.549 5.00299 16.996 5.00299" fill="#606C7F"/>
</svg>
