<svg xmlns="http://www.w3.org/2000/svg" width="48" height="48" viewBox="0 0 48 48">
    <g fill="none" fill-rule="evenodd">
        <g>
            <g transform="translate(-32 -24) translate(32 24)">
                <path fill="#202E44" d="M30 6H10c-1.105 0-2 .895-2 2v32c0 1.105.895 2 2 2h20c1.105 0 2-.895 2-2V8c0-1.105-.895-2-2-2zM10 8h20v22H10V8zm20 24v8H10v-8h20zm-10 2c-1.105 0-2 .895-2 2s.895 2 2 2 2-.895 2-2-.895-2-2-2z"/>
                <circle cx="32" cy="30" r="6" fill="#FFF"/>
                <g fill="#3D77FF">
                    <path d="M11.668 1.667c.427 0 .78.321.828.736l.005.097v1.318c.528.214 1.023.493 1.473.828l1.443-.832c.398-.23.908-.093 1.138.305l1.667 2.887c.23.398.093.908-.305 1.138l-1.337.772c.058.353.088.715.088 1.084 0 .37-.03.735-.089 1.09l1.338.771c.37.214.514.668.348 1.051l-.043.087-1.667 2.887c-.214.37-.669.514-1.052.349l-.086-.044-1.447-.834c-.45.334-.942.612-1.469.825V17.5c0 .427-.321.78-.736.828l-.097.005H8.335c-.428 0-.78-.321-.828-.736L7.5 17.5v-1.318c-.527-.213-1.02-.492-1.47-.826l-1.448.835c-.398.23-.908.094-1.138-.305L1.778 13c-.23-.398-.093-.908.305-1.138l1.34-.773c-.058-.354-.088-.717-.088-1.088 0-.369.03-.73.087-1.082l-1.339-.774c-.37-.213-.514-.668-.348-1.051l.043-.087 1.667-2.887c.214-.37.669-.514 1.052-.349l.086.044 1.444.833c.451-.336.946-.615 1.474-.83V2.5c0-.427.322-.78.736-.828l.098-.005h3.333zm-1.668 5c-1.84 0-3.333 1.492-3.333 3.333 0 1.84 1.492 3.333 3.333 3.333 1.84 0 3.333-1.492 3.333-3.333 0-1.84-1.492-3.333-3.333-3.333z" transform="translate(22 20)"/>
                </g>
            </g>
        </g>
    </g>
</svg>
