<svg xmlns="http://www.w3.org/2000/svg" width="24" height="24" viewBox="0 0 24 24">
    <g fill="none" fill-rule="evenodd">
        <g fill="#606C7F">
            <g>
                <g>
                    <g>
                        <path d="M21.16 8.826l-5.696-.85-2.553-5.412C12.744 2.22 12.394 2 12.01 2s-.734.22-.9.564L8.556 7.976l-5.696.87c-.383.077-.694.357-.81.73-.117.372-.021.779.25 1.06l4.123 4.202-1 5.931c-.072.302 0 .62.197.862.196.24.493.377.803.369.164-.003.325-.045.47-.12l5.116-2.821 5.095 2.8c.146.076.307.117.47.12.311.009.608-.127.804-.368.196-.241.27-.56.198-.862l-1.001-5.931 4.124-4.202c.27-.278.368-.682.256-1.053-.112-.372-.417-.654-.797-.737zm-5.006 4.591l-.71.72.16 1 .65 4.002-3.243-1.84-1.001-.53-1.001.53-3.253 1.81.65-4.001.16-1-.71-.72-2.853-2.872 3.854-.54 1.06-.2.451-1 1.642-3.441 1.642 3.481.45 1 1.061.16 3.844.58-2.853 2.861z" transform="translate(-580 -484) translate(254 468) translate(309 8) translate(17 8)"/>
                    </g>
                </g>
            </g>
        </g>
    </g>
</svg>
