<svg xmlns="http://www.w3.org/2000/svg" width="72" height="72" viewBox="0 0 72 72">
    <g fill="none" fill-rule="evenodd">
        <path fill="#FFFFFF" d="M36 37c3.489 0 6.818.686 9.858 1.931l.906.406.368.172.776.346c.504.224.731.815.507 1.32-.225.505-.816.731-1.32.507l-1.828-.814c-.037-.016-.073-.035-.107-.055C42.328 39.642 39.23 39 36 39c-11.64 0-21.533 8.331-23.616 19.596l-.065.368-.059.363c-.048.316.169.612.485.66l.044.006.044.002 26.158.003L40 60c.552 0 1 .448 1 1s-.448 1-1 1h-2l-.085-.005H12.833c-.131 0-.262-.01-.392-.03-1.354-.208-2.299-1.434-2.177-2.78l.02-.162.06-.377C12.418 46.36 23.115 37 36 37zm0-31c7.732 0 14 6.268 14 14s-6.268 14-14 14-14-6.268-14-14S28.268 6 36 6zm0 2c-6.627 0-12 5.373-12 12s5.373 12 12 12 12-5.373 12-12S42.627 8 36 8z"/>
        <path fill="#FFFFFF" d="M54 42c6.627 0 12 5.373 12 12s-5.373 12-12 12-12-5.373-12-12 5.373-12 12-12zm0 6c-1.48.004-2.91.652-3.63 1.966-.588 1.078-.47 2.45.32 3.367.39.453.84.752 1.468 1.036l.313.135.656.26.232.083.953.324c.64.223.97.372 1.323.602.694.45.272 1.96-1.055 2.19-.887.1-1.722-.025-2.432-.294-.173-.066-.312-.13-.413-.182l-.07-.036-.202-.123c-.44-.23-.993-.103-1.284.315-.315.454-.203 1.076.25 1.391.204.142.544.326 1.009.503.995.378 2.148.55 3.427.404 3.092-.536 4.159-4.355 1.86-5.844-.56-.364-1.028-.567-1.943-.878l-.645-.217-.296-.105-.251-.097-.21-.084-.382-.16c-.388-.176-.624-.332-.793-.527-.236-.274-.276-.745-.08-1.105.457-.835 1.741-1.15 2.865-.774l.376.128c.11.04.21.076.308.115l.149.061.327.145.42.197c.498.238 1.095.027 1.333-.471.237-.498.026-1.095-.472-1.333l-.52-.242c-.1-.046-.192-.087-.281-.125l-.262-.107-.316-.117-.428-.147C55.097 48.078 54.546 48 54 48z"/>
    </g>
</svg>
