<svg width="18" height="20" viewBox="0 0 18 20" fill="none" xmlns="http://www.w3.org/2000/svg">
<path fill-rule="evenodd" clip-rule="evenodd" d="M12.9995 0C13.5517 0 13.9995 0.447715 13.9995 1C13.9995 1.18124 13.9502 1.35908 13.8569 1.5145L12.2402 4.20788L12.4674 4.40418L12.7291 4.64582C14.0098 5.86601 16.0803 8.38538 17.3976 12.3591C18.2611 14.9651 18.1942 17.1551 17.21 18.5241C16.5122 19.4891 15.3842 20.0001 13.9468 20.0001H4.02531C2.64974 20.0001 1.5437 19.4761 0.82996 18.4851C-0.179254 17.0821 -0.27209 14.9061 0.573414 12.3591C2.08622 7.79499 4.58349 5.15042 5.75046 4.18805L4.14195 1.51524C3.85739 1.04191 4.01042 0.427517 4.48375 0.142956C4.63934 0.0494189 4.81746 0 4.999 0H12.9995ZM11.6346 5H6.33196C4.65676 6.36596 2.70727 9.09462 1.52065 12.6747C0.767531 14.9433 0.845507 16.7962 1.63949 17.9C2.15831 18.6204 2.95939 19.0001 4.02531 19.0001H13.9468C15.0788 19.0001 15.9016 18.628 16.4008 17.9386C17.1656 16.8736 17.2222 15.004 16.4503 12.6743C15.2654 9.10006 13.319 6.37973 11.6346 5ZM12.6857 9.53576C12.9421 9.63832 13.0668 9.9293 12.9642 10.1857L10.9642 15.1857C10.8617 15.4421 10.5707 15.5668 10.3143 15.4642C10.0579 15.3617 9.93321 15.0707 10.0358 14.8143L12.0358 9.8143C12.1383 9.55791 12.4293 9.43321 12.6857 9.53576ZM7.81204 9.62702L8.07917 9.71969C8.27524 9.79149 8.42848 9.85944 8.71533 9.99632C8.96455 10.1152 9.07018 10.4137 8.95126 10.6629C8.83233 10.9121 8.53389 11.0178 8.28467 10.8988L8.02502 10.7775L7.8265 10.6933C7.73123 10.6558 7.63349 10.6218 7.4952 10.5755C6.93308 10.3881 6.29101 10.545 6.0625 10.9629C5.96435 11.1427 5.98465 11.3782 6.10252 11.5151C6.17944 11.6043 6.28472 11.6771 6.45078 11.7559L6.66944 11.8502L6.9366 11.9549L7.61979 12.1905C7.93473 12.3054 8.1329 12.4001 8.36201 12.5491C9.51185 13.294 8.97825 15.2043 7.43221 15.4724C6.79294 15.5452 6.21643 15.4595 5.7188 15.2705C5.4863 15.1821 5.31671 15.0898 5.21481 15.0191C4.98799 14.8616 4.9318 14.55 5.08931 14.3232C5.22931 14.1216 5.49104 14.0548 5.70677 14.153L5.85967 14.2411L5.98934 14.3017C6.01539 14.3128 6.04363 14.3241 6.07399 14.3357C6.42894 14.4705 6.84669 14.5326 7.28989 14.483C7.95359 14.3675 8.16445 13.6126 7.81759 13.3879C7.63213 13.2673 7.45941 13.1912 7.10668 13.0698L6.58823 12.8923L6.20069 12.7387C5.82209 12.58 5.56472 12.4228 5.34487 12.1678C4.94999 11.7091 4.8908 11.0224 5.18493 10.4834C5.67712 9.58348 6.83353 9.30073 7.81204 9.62702ZM12.9995 1H4.999L6.801 3.999H11.2L12.9995 1Z" fill="white"/>
</svg>
