<svg xmlns="http://www.w3.org/2000/svg" width="31" height="31" viewBox="0 0 31 31">
    <path fill="#FFF" fill-rule="evenodd" d="M25.125 19.25c3.038 0 5.5 2.462 5.5 5.5s-2.462 5.5-5.5 5.5h-11c-3.038 0-5.5-2.462-5.5-5.5s2.462-5.5 5.5-5.5h11zm-6.875-5.5H3.125v11h2.75c.76 0 1.375.615 1.375 1.375S6.635 27.5 5.875 27.5H1.75c-.756 0-1.375-.621-1.375-1.375v-13.75C.375 11.623.995 11 1.75 11H4.5V6.187c0-3.305 2.376-5.873 5.586-6.16l.303-.02.299-.007c3.509 0 6.187 2.678 6.187 6.188 0 .759-.616 1.375-1.375 1.375-.76 0-1.375-.616-1.375-1.375 0-1.991-1.447-3.438-3.438-3.438-1.91 0-3.32 1.333-3.43 3.201l-.007.237V11h12.375c.752 0 1.375.623 1.375 1.375V16.5c0 .76-.615 1.375-1.375 1.375S18.25 17.26 18.25 16.5v-2.75zm-2.75 9.625c-.76 0-1.375.615-1.375 1.375s.615 1.375 1.375 1.375 1.375-.615 1.375-1.375-.615-1.375-1.375-1.375zm4.125 0c-.76 0-1.375.615-1.375 1.375s.615 1.375 1.375 1.375S21 25.51 21 24.75s-.615-1.375-1.375-1.375zm4.125 0c-.76 0-1.375.615-1.375 1.375s.615 1.375 1.375 1.375 1.375-.615 1.375-1.375-.615-1.375-1.375-1.375z"/>
</svg>
