<svg width="18" height="20" viewBox="0 0 18 20" fill="none" xmlns="http://www.w3.org/2000/svg">
<path fill-rule="evenodd" clip-rule="evenodd" d="M12.9995 0C13.5517 0 13.9995 0.447715 13.9995 1C13.9995 1.18124 13.9502 1.35908 13.8569 1.5145L12.2402 4.20788L12.4674 4.40418C13.7102 5.51351 15.9862 8.10155 17.3976 12.3591C18.2611 14.9651 18.1942 17.1551 17.21 18.5241C16.5122 19.4891 15.3842 20.0001 13.9468 20.0001H4.02531C2.64974 20.0001 1.5437 19.4761 0.82996 18.4851C-0.179254 17.0821 -0.27209 14.9061 0.573414 12.3591C2.08622 7.79499 4.58349 5.15042 5.75046 4.18805L4.14195 1.51524C3.85739 1.04191 4.01042 0.427517 4.48375 0.142956C4.63934 0.0494189 4.81746 0 4.999 0H12.9995ZM11.6346 5H6.33196C4.65676 6.36596 2.70727 9.09462 1.52065 12.6747C0.767531 14.9433 0.845507 16.7962 1.63949 17.9C2.15831 18.6204 2.95939 19.0001 4.02531 19.0001H13.9468C15.0788 19.0001 15.9016 18.628 16.4008 17.9386C17.1656 16.8736 17.2222 15.004 16.4503 12.6743C15.2654 9.10006 13.319 6.37973 11.6346 5ZM9 7.5C9.27614 7.5 9.5 7.72386 9.5 8L9.50054 9.04865C9.60568 9.06943 9.70983 9.09687 9.81205 9.13095C10.2035 9.26195 10.363 9.34115 10.7793 9.62161C11.0084 9.77589 11.069 10.0866 10.9147 10.3156C10.7604 10.5447 10.4497 10.6053 10.2207 10.451L9.98033 10.2943C9.81488 10.1929 9.7127 10.1522 9.4952 10.0794C8.93308 9.89198 8.29102 10.049 8.06251 10.4668C7.96435 10.6466 7.98465 10.8821 8.10252 11.019C8.17945 11.1083 8.28473 11.181 8.45078 11.2598L8.66945 11.3542L8.9366 11.4588L9.6198 11.6944C9.93473 11.8093 10.1329 11.9041 10.362 12.053C11.4948 12.7869 10.9937 14.652 9.50015 14.9633L9.5 16C9.5 16.2761 9.27614 16.5 9 16.5C8.72386 16.5 8.5 16.2761 8.5 16L8.49925 14.9465C8.21336 14.8936 7.94495 14.8014 7.69614 14.6783C7.44945 14.5563 7.27115 14.4301 7.16514 14.3345C6.96007 14.1495 6.94376 13.8334 7.1287 13.6283C7.29309 13.446 7.56117 13.4129 7.76273 13.5377L7.91477 13.6527C7.96916 13.6897 8.04477 13.7351 8.1396 13.7821C8.48039 13.9507 8.87526 14.0333 9.28989 13.9869C9.9536 13.8715 10.1645 13.1166 9.8176 12.8919C9.63213 12.7713 9.45941 12.6951 9.10669 12.5737L8.58823 12.3962L8.2007 12.2426C7.82209 12.084 7.56473 11.9267 7.34487 11.6717C6.95 11.213 6.8908 10.5263 7.18494 9.98734C7.46255 9.47976 7.95145 9.16852 8.50057 9.05215L8.5 8C8.5 7.72386 8.72386 7.5 9 7.5ZM12.9995 1H4.999L6.801 3.999H11.2L12.9995 1Z" fill="white"/>
</svg>
