<svg xmlns="http://www.w3.org/2000/svg" width="48" height="48" viewBox="0 0 48 48">
    <g fill="#FFF" fill-rule="evenodd">
        <path d="M32.154 4c.18 0 .345.097.435.253.075.134.085.294.028.435l-.034.068-1.75 2.968c-1.21 2.067-2.023 3.493-2.439 4.279l.632.577.383.32c3.475 2.932 6.02 6.226 6.625 12.667.012.123.018.247.018.37l1.073-.162 2.183-.316c.569-.079.905-.12 1.009-.125h.016C42.358 25.333 44 26.974 44 29c0 1.428-.817 2.666-2.009 3.271l-13.61 8.171c-.289.173-.614.27-.946.284h-.143c-.047 0-.095-.004-.142-.009l-.143-.02-8.683-1.516c-.131-.023-.263-.032-.393-.029l-.13.007c-.432.04-.843.218-1.168.514l-.095.093-2.8 2.912-.663.684c-.369.383-.848.594-1.34.632l-.122.006c-.533.009-1.07-.185-1.483-.586l-5.494-5.318c-.827-.801-.85-2.123-.051-2.953l7.417-7.73C12 27.33 12 27.245 12 27.16c.061-5.89 2.753-11.543 7.24-14.997l.241-.183-4.304-7.224c-.091-.155-.093-.347-.004-.503.088-.156.254-.253.434-.253 2.399 0 2.574 1.633 4.389 1.633 1.813 0 1.73-1.633 3.99-1.633 2.26 0 2.218 1.633 4.028 1.633 1.808 0 1.993-1.633 4.14-1.633zM7.4 34.14l-1.856 1.928c-.269.28-.28.712-.041 1.005l5.553 5.383c.149.144.341.214.532.21l.082-.005c.136-.017.267-.072.379-.163l1.932-2.002-6.581-6.355zm25.258-6.344l.008.204c0 .274-.042.539-.119.788l-.05.146-.034.089-.056.123-.046.094-.1.173-.049.075-.077.108-.111.14-.09.098-.139.137-.107.092-.086.068c-.074.056-.151.108-.231.156l-.155.087-.126.06-.138.057-.143.05-.135.04-5.523 1.687c-.05.016-.101.025-.152.028h-.075c-.273-.012-.521-.194-.606-.47-.012-.04-.02-.079-.025-.118l-.004-.076.004-.073.015-.086c.054-.221.22-.408.453-.48l5.677-1.733c.495-.172.848-.624.89-1.153l.004-.107c0-.283-.088-.545-.238-.76l-.06-.08-.066-.076-.036-.036-.067-.06-.07-.057-.086-.06-.061-.036-.12-.059-.082-.032-.086-.028-.126-.029-.074-.011-.079-.007-.092-.003-10.544-.555-1.561-.083c-.59-.019-1.15-.017-1.68.005-.419.057-.815.192-1.175.395l-.185.113-.142.098-.093.071c-.09.07-.188.152-.292.243-.085.074-.173.155-.264.24l-.236.232-5.246 5.498-.246.258 6.581 6.355.7-.726.128-.122c.634-.578 1.462-.886 2.31-.87l.169.008c.038.003.15.017.34.042l8.635 1.509.095.014.086.003.085-.008c.056-.009.11-.025.163-.048l.076-.039 13.694-8.217c.778-.395 1.279-1.193 1.279-2.082 0-1.246-.977-2.263-2.206-2.33l-.128-.003c-.032 0-.26.03-.684.09l-3.835.566-3.155.473zm-5.313-15.122c-1.127.569-2.238.65-3.346.648-1.103-.002-2.203-.083-3.323-.648-3.936 2.867-7.025 7.964-7.314 13.344l.224-.194.203-.165.135-.103.152-.105.066-.043c.727-.47 1.593-.741 2.524-.741l.803.018c-.09-.436-.137-.888-.137-1.352 0-3.68 2.985-6.666 6.667-6.666s6.667 2.986 6.667 6.666c0 .706-.11 1.386-.313 2.025l.115.016.163.035.073.018.088.026.062.02.09.033.136.055.197.098.068.038.118.074.139.098.133.107.125.114.084.086.117.132.075.097.076.107.102-.012 2.291-.345c.036-.176.054-.354.054-.533l-.002-.189c.002-5.534-3.505-9.984-7.312-12.759zM24 18c-2.945 0-5.333 2.389-5.333 5.333 0 .489.065.962.188 1.412l6.447.34c.034-.236-.034-.455-.212-.57-.21-.137-.406-.23-.747-.354l-.135-.048-.635-.216-.155-.055-.437-.174-.21-.09c-.417-.189-.717-.388-.978-.69-.526-.611-.605-1.526-.213-2.244.48-.876 1.433-1.308 2.42-1.31.303-.001.609.035.906.115l.177.054.285.098.21.078.175.071.188.083.346.162c.333.158.473.556.315.888-.148.308-.501.451-.817.343l-.072-.029-.28-.131-.218-.097-.099-.04-.205-.077-.25-.086c-.75-.25-1.606-.04-1.91.516-.132.24-.105.554.053.737.096.111.225.204.423.301l.105.05.254.107.14.056.168.064.197.07.43.145.333.117c.404.149.663.274.962.468.632.41.883 1.083.814 1.758l2.337.124c.237-.603.366-1.259.366-1.946C29.333 20.39 26.945 18 24 18zm0-12.652c-1.662 0-1.932 1.56-4.004 1.56-1.027 0-1.93-.31-2.71-.926l3.391 5.384.323.159c.833.402 1.214.478 3 .478 1.338 0 2.453-.213 3.346-.637l3.33-5.384c-.702.617-1.589.925-2.662.925-2.055 0-2.374-1.56-4.014-1.56z"/>
        <path d="M12.885 10.55c1.365-.933 2.965-.526 4.21.095l.131.067c.782.408 1.217.64 1.23 1.07.009.265-.205.827-.667.763-1.995-.277-3.315.397-4.17 2.226-.118.253-.417.357-.664.241-.25-.116-.358-.414-.241-.664.753-1.615 1.934-2.776 3.704-2.92-.953-.435-2.07-.668-2.97-.053-.227.156-.54.097-.694-.131-.156-.228-.097-.54.13-.695zM34.17 8.954c.119-.253.417-.357.665-.241.25.116.358.414.241.664-.754 1.615-1.934 2.776-3.705 2.92.954.435 2.07.668 2.97.053.228-.156.54-.097.695.131.156.228.097.54-.131.695-1.365.932-2.966.525-4.21-.096l-.132-.067c-.781-.408-1.216-.64-1.23-1.07-.008-.265.206-.827.668-.763 1.994.277 3.315-.397 4.169-2.226z"/>
    </g>
</svg>
