<svg xmlns="http://www.w3.org/2000/svg" width="48" height="48" viewBox="0 0 48 48">
    <g fill="#FFF" fill-rule="evenodd">
        <path d="M6 44c-1.105 0-2-.895-2-2V32c0-1.104.895-2 2-2h3.333v-3.333c0-.825.5-1.533 1.212-1.839l.122-.047v-1.447c0-1.105.895-2 2-2h22.666c1.105 0 2 .895 2 2v1.447c.777.275 1.334 1.015 1.334 1.886V44H6zm36-14c1.105 0 2 .896 2 2v10c0 1.105-.895 2-2 2h-3.333v-1.333H42c.342 0 .671-.315.667-.667V32c0-.342-.258-.624-.59-.662L42 31.333h-3.333V30H42zM9.333 42.667V31.333H6c-.342 0-.624.258-.662.59L5.333 32v10c0 .342.258.624.59.662l.077.005h3.333zm1.333-3.321v3.32h3.885c-.426-1.806-1.984-3.176-3.885-3.32zm26.667 0c-1.9.145-3.457 1.514-3.884 3.32h3.884v-3.32zM32.088 26H15.913c.057.325.088.659.088 1 0 3.018-2.36 5.485-5.335 5.657v5.353c2.639.152 4.793 2.11 5.247 4.657h16.175c.453-2.546 2.607-4.504 5.245-4.657v-5.353C34.359 32.484 32 30.017 32 27c0-.341.03-.675.088-1zM24 28.667c3.682 0 6.667 2.985 6.667 6.666C30.667 39.016 27.682 42 24 42s-6.667-2.985-6.667-6.666c0-3.682 2.985-6.667 6.667-6.667zM24 30c-2.946 0-5.333 2.388-5.333 5.334 0 2.945 2.387 5.333 5.333 5.333s5.333-2.388 5.333-5.334C29.333 32.389 26.946 30 24 30zm-9.449-4h-3.218c-.342 0-.623.258-.662.59l-.004.077v4.654c2.237-.17 4-2.04 4-4.32 0-.345-.04-.68-.116-1zm18.898 0c-.076.321-.116.656-.116 1 0 2.281 1.763 4.15 4 4.32v-4.653c0-.342-.257-.624-.589-.662L36.667 26h-3.218zm-10.025 5.375c.852-.098 1.62.017 2.284.269.31.117.536.24.672.335.303.21.378.625.167.927-.177.255-.502.348-.781.244l-.075-.034-.135-.082-.046-.024-.12-.057c-.046-.02-.098-.042-.155-.064-.474-.18-1.03-.263-1.622-.196-.884.153-1.166 1.16-.703 1.46.21.136.406.23.747.353l.135.048.635.216.155.055.437.174.21.09c.417.188.717.388.978.69.526.61.605 1.526.213 2.244-.48.876-1.433 1.308-2.42 1.31-.303.001-.609-.036-.906-.116l-.177-.053-.285-.098-.21-.078-.175-.071-.188-.083-.346-.162c-.333-.159-.473-.556-.315-.888.148-.308.501-.452.817-.344l.072.03.28.131.218.097.099.04.205.077.25.086c.75.25 1.606.04 1.91-.517.132-.24.105-.554-.053-.736-.096-.112-.225-.204-.423-.301l-.105-.05-.254-.107-.14-.056-.168-.064-.197-.07-.43-.145-.333-.117c-.404-.149-.663-.274-.962-.468-1.533-.993-.822-3.538 1.24-3.895zm11.91-8.708l.077.004c.306.036.549.279.585.585l.004.078v1.333H12v-1.334l.004-.077c.036-.306.279-.55.585-.585l.078-.004h22.666zM28.393 4.26c.365.348.365.91 0 1.258L24.66 9.073c-.182.173-.421.26-.66.26-.239 0-.478-.087-.66-.26l-3.733-3.555c-.365-.348-.365-.91 0-1.257.182-.174.421-.26.66-.261h7.466c.239 0 .477.087.66.26z"/>
    </g>
</svg>
