<svg xmlns="http://www.w3.org/2000/svg" width="24" height="24" viewBox="0 0 24 24">
    <path fill="#FF7800" fill-rule="evenodd" d="M12.9 2.564l2.55 5.41 5.69.87c.383.077.693.357.81.73.116.372.02.779-.25 1.06l-4.12 4.2 1 5.93c.095.387-.05.793-.366 1.034-.317.24-.747.27-1.094.076L12 19.054l-5.09 2.8c-.347.195-.777.165-1.094-.076-.317-.241-.46-.647-.366-1.034l1-5.93-4.15-4.2c-.27-.281-.366-.688-.25-1.06.117-.373.427-.653.81-.73l5.69-.85 2.55-5.41c.167-.345.517-.564.9-.564s.733.22.9.564z"/>
</svg>
