<svg xmlns="http://www.w3.org/2000/svg" width="37" height="42" viewBox="0 0 37 42">
    <g fill="#202E44" fill-rule="evenodd">
        <path d="M28 25.2c4.64 0 8.4 3.76 8.4 8.4 0 4.64-3.76 8.4-8.4 8.4-4.64 0-8.4-3.76-8.4-8.4 0-4.64 3.76-8.4 8.4-8.4zm0 15.4c-3.866 0-7-3.134-7-7s3.134-7 7-7 7 3.134 7 7-3.134 7-7 7zm.605-2.843c-.895.102-1.702-.018-2.399-.283-.325-.123-.563-.252-.705-.351-.318-.22-.396-.657-.176-.974.187-.268.528-.366.82-.256l.08.035.14.086.05.026.125.06c.048.021.103.044.164.067.497.189 1.081.275 1.702.206.93-.162 1.224-1.218.739-1.533-.22-.143-.427-.241-.785-.371l-.142-.05-.667-.227-.162-.058-.46-.182-.219-.095c-.439-.198-.754-.407-1.027-.724-.553-.642-.636-1.603-.224-2.357.503-.92 1.505-1.373 2.541-1.376.318 0 .64.038.951.122l.186.056.3.103.22.082.184.075.197.087.364.17c.349.166.496.584.33.932-.155.324-.526.474-.858.36l-.076-.03-.293-.138-.229-.101-.104-.043-.216-.08-.263-.09c-.787-.263-1.685-.043-2.005.542-.138.251-.11.581.056.773.1.117.237.214.445.316l.11.052.267.112.147.06.176.067.207.073.451.153.35.123c.424.156.696.287 1.01.49 1.61 1.043.863 3.716-1.302 4.09z"/>
        <path fill-rule="nonzero" d="M29.868 0c.858 0 1.57.65 1.628 1.485l.004.11V21.55c0 .386-.313.7-.7.7-.359 0-.655-.27-.695-.619l-.005-.081V1.595c0-.087-.072-.168-.177-.19l-.055-.005H6.871c-.16 0-.313.05-.436.14l-.07.06-4.771 4.603c-.104.1-.17.229-.188.364l-.006.082v26.56c0 .563.46 1.036 1.057 1.086l.106.005h14.24c.387 0 .7.313.7.7 0 .359-.27.655-.618.695l-.082.005H2.563C1.2 35.7.075 34.662.003 33.343L0 33.21V6.649c0-.502.189-.983.526-1.355l.096-.098L5.393.592c.358-.345.83-.552 1.328-.587L6.871 0h22.997z"/>
        <path fill-rule="nonzero" d="M25.2 18.9c.387 0 .7.313.7.7 0 .359-.27.655-.618.695l-.082.005H6.3c-.387 0-.7-.313-.7-.7 0-.359.27-.655.618-.695L6.3 18.9h18.9zM25.2 11.9c.387 0 .7.313.7.7 0 .359-.27.655-.618.695l-.082.005H6.3c-.387 0-.7-.313-.7-.7 0-.359.27-.655.618-.695L6.3 11.9h18.9zM18.2 25.9c.387 0 .7.313.7.7 0 .359-.27.655-.618.695l-.082.005H6.3c-.387 0-.7-.313-.7-.7 0-.359.27-.655.618-.695L6.3 25.9h11.9zM6.505.905l-5.6 5.6C.464 6.946.776 7.7 1.4 7.7h4.2c1.16 0 2.1-.94 2.1-2.1V1.4c0-.624-.754-.936-1.195-.495z"/>
    </g>
</svg>
