<svg xmlns="http://www.w3.org/2000/svg" width="48" height="48" viewBox="0 0 48 48">
    <g fill="none" fill-rule="evenodd">
        <g fill="#FFF">
            <g>
                <path d="M41.011 8c1.676 0 2.988 1.318 2.988 3v26c0 1.68-1.312 3-2.988 3l-17.328-.002c-.666 0-1.322-.228-1.846-.638L5.123 26.326c-.718-.584-1.124-1.428-1.124-2.326 0-.9.408-1.742 1.11-2.314L21.837 8.634c.524-.41 1.18-.634 1.848-.634h17.326zm-14.597 9.587c-.782-.782-2.046-.782-2.828 0-.721.718-.777 1.853-.166 2.639l.166.189L27.174 24l-3.586 3.587c-.782.777-.782 2.046 0 2.828.378.378.887.585 1.412.585.44 0 .866-.144 1.215-.41l.2-.175L30 26.828l3.587 3.587c.377.378.887.585 1.411.585.529 0 1.037-.207 1.416-.585.722-.722.778-1.858.167-2.64l-.167-.188L32.828 24l3.586-3.585c.782-.782.782-2.05 0-2.828-.721-.722-1.854-.778-2.639-.167l-.188.166L30 21.172l-3.585-3.584z" transform="translate(-412 -320) translate(412 320)"/>
            </g>
        </g>
    </g>
</svg>
