<svg xmlns="http://www.w3.org/2000/svg" width="32" height="32" viewBox="0 0 32 32">
    <path fill="#FF7800" fill-rule="evenodd" d="M21.333 17.337h-4v4c0 .738-.596 1.334-1.333 1.334s-1.333-.596-1.333-1.334v-4h-4c-.738 0-1.334-.596-1.334-1.333s.596-1.333 1.334-1.333h4v-4c0-.738.596-1.334 1.333-1.334s1.333.596 1.333 1.334v4h4c.738 0 1.334.596 1.334 1.333s-.596 1.333-1.334 1.333M16 2.667C8.637 2.667 2.667 8.637 2.667 16c0 7.364 5.97 13.333 13.333 13.333S29.333 23.363 29.333 16 23.363 2.667 16 2.667"/>
</svg>
