<svg xmlns="http://www.w3.org/2000/svg" width="72" height="72" viewBox="0 0 72 72">
    <g fill="#FFF" fill-rule="evenodd">
        <path d="M36 33c14.36 0 26 11.64 26 26l-.005.506-.017.57-.003.07c-.048.992-.828 1.782-1.802 1.858l-.156.006L50 62c-.552 0-1-.448-1-1s.448-1 1-1h1c.044 0 .087.003.129.008l8.85.001.003-.076c.012-.31.018-.621.018-.933 0-13.122-10.531-23.785-23.603-23.997L36 35c-13.255 0-24 10.745-24 24l.005.479.015.523h8.914L21 60h1c.552 0 1 .448 1 1s-.448 1-1 1h-.691l.003.004-9.306-.001-.15-.006c-.94-.07-1.703-.797-1.82-1.732l-.014-.194-.002-.036c-.013-.343-.02-.688-.02-1.035 0-14.36 11.64-26 26-26zm0-27c4.207 0 7.909 2.165 10.051 5.442C46.983 11.155 47.973 11 49 11c5.523 0 10 4.477 10 10s-4.477 10-10 10c-2.644 0-5.048-1.026-6.836-2.701C40.363 29.379 38.254 30 36 30c-2.254 0-4.363-.621-6.165-1.702C28.048 29.974 25.644 31 23 31c-5.523 0-10-4.477-10-10s4.477-10 10-10c1.027 0 2.017.155 2.95.442C28.09 8.165 31.793 6 36 6zm13 7c-.683 0-1.346.086-1.978.246.63 1.458.978 3.065.978 4.754 0 3.638-1.62 6.898-4.176 9.099C45.218 28.285 47.026 29 49 29c4.418 0 8-3.582 8-8s-3.582-8-8-8zm-26 0c-4.418 0-8 3.582-8 8s3.582 8 8 8c1.974 0 3.782-.715 5.177-1.9C25.619 24.897 24 21.637 24 18c0-1.689.349-3.296.978-4.753C24.346 13.086 23.683 13 23 13zm13-5l-.298.004-.453.024-.358.033-.52.071-.297.053-.327.07-.327.08-.39.114-.466.157-.271.104-.327.137-.3.138-.427.219-.181.1-.142.083c-.167.099-.33.202-.492.31l-.29.204-.247.185-.307.247-.145.123c-.067.059-.133.118-.199.179l-.208.196-.202.202-.25.267c-.67.743-1.231 1.587-1.657 2.506l-.107.24c-.05.119-.1.237-.146.357-.08.208-.153.419-.22.633l-.117.41c-.056.214-.106.43-.148.65l-.072.425-.045.34-.04.429-.01.16-.007.162c-.005.128-.007.258-.007.388l.004.296.022.427.025.297c.017.162.037.322.06.48l.066.382.104.482.14.514.116.362.077.217c.096.261.203.518.32.768l.187.379.128.239c.124.223.256.44.395.653l.255.368.166.222.21.265.253.296.125.137.2.21.246.243.24.221c.538.482 1.13.907 1.765 1.264l.305.163.327.163.38.17.349.14.305.109.377.12.359.1.301.072.386.078.38.062.358.044.393.034.345.018L36 28l.226-.003.339-.013.361-.026.236-.025.393-.053.333-.058.305-.063.43-.106.23-.066.377-.12.339-.123c.212-.08.42-.169.625-.263l.399-.196.232-.124c.744-.41 1.43-.914 2.044-1.494l.296-.292.214-.226.178-.2.213-.253.194-.247.17-.23.163-.235c.109-.162.214-.327.313-.495l.177-.311.113-.214.166-.338c.079-.169.153-.34.222-.513l.144-.383.117-.353.1-.341.095-.377c.057-.25.106-.503.144-.76l.033-.238.04-.363.022-.308c.011-.195.017-.392.017-.59l-.007-.325-.01-.261-.015-.218-.046-.447-.045-.323c-.052-.328-.12-.65-.203-.968l-.049-.179-.113-.373-.104-.305-.118-.31c-.244-.609-.545-1.188-.898-1.73l-.217-.322-.233-.317-.327-.404-.155-.178-.175-.19-.18-.187-.204-.2-.38-.345-.247-.205-.246-.193-.214-.157c-.157-.113-.318-.22-.482-.324l-.39-.234-.27-.148-.433-.217-.264-.119-.268-.111-.36-.136-.274-.093-.295-.09-.28-.076-.288-.07-.394-.08-.398-.065-.31-.04-.198-.02-.317-.023C36.397 8.006 36.199 8 36 8z"/>
        <path d="M36 42c6.627 0 12 5.373 12 12s-5.373 12-12 12-12-5.373-12-12 5.373-12 12-12zm0 6c-1.48.004-2.91.652-3.63 1.966-.588 1.078-.47 2.45.32 3.367.39.453.84.752 1.468 1.036l.313.135.656.26.232.083.953.324c.64.223.97.372 1.323.602.694.45.272 1.96-1.055 2.19-.887.1-1.722-.025-2.432-.294-.173-.066-.312-.13-.413-.182l-.07-.036-.202-.123c-.44-.23-.993-.103-1.284.315-.315.454-.203 1.076.25 1.391.204.142.544.326 1.009.503.995.378 2.148.55 3.427.404 3.092-.536 4.159-4.355 1.86-5.844-.56-.364-1.028-.567-1.943-.878l-.645-.217-.296-.105-.251-.097-.21-.084-.382-.16c-.388-.176-.624-.332-.793-.527-.236-.274-.276-.745-.08-1.105.457-.835 1.741-1.15 2.865-.774l.376.128c.11.04.21.076.308.115l.149.061.327.145.42.197c.498.238 1.095.027 1.333-.471.237-.498.026-1.095-.472-1.333l-.52-.242c-.1-.046-.192-.087-.281-.125l-.262-.107-.316-.117-.428-.147C37.097 48.078 36.546 48 36 48z"/>
    </g>
</svg>
