<svg xmlns="http://www.w3.org/2000/svg" width="48" height="48" viewBox="0 0 48 48">
    <g fill="none" fill-rule="evenodd">
        <g>
            <g>
                <path fill="#202E44" d="M22 4c5.523 0 10 4.477 10 10v4h4c1.105 0 2 .895 2 2v22c0 1.105-.895 2-2 2H8c-1.105 0-2-.895-2-2V20c0-1.105.895-2 2-2h4v-4c0-5.523 4.477-10 10-10zm14 16H8v22h28V20zm-14 9c.552 0 1 .448 1 1v2c0 .552-.448 1-1 1s-1-.448-1-1v-2c0-.552.448-1 1-1zm0-23c-4.418 0-8 3.582-8 8v4h16v-4c0-4.418-3.582-8-8-8z" transform="translate(-32 -24) translate(32 24)"/>
                <g>
                    <path fill="#3D77FF" d="M21 0c3.866 0 7 3.582 7 8s-3.134 8-7 8H7c-3.866 0-7-3.582-7-8s3.134-8 7-8h14z" transform="translate(-32 -24) translate(32 24) translate(16 28)"/>
                    <path fill="#FFF" d="M8 6c-1.106 0-2 .894-2 2 0 1.106.894 2 2 2 1.106 0 2-.894 2-2 0-1.106-.894-2-2-2zM14 6c-1.106 0-2 .894-2 2 0 1.106.894 2 2 2 1.106 0 2-.894 2-2 0-1.106-.894-2-2-2zM20 6c-1.106 0-2 .894-2 2 0 1.106.894 2 2 2 1.106 0 2-.894 2-2 0-1.106-.894-2-2-2z" transform="translate(-32 -24) translate(32 24) translate(16 28)"/>
                </g>
            </g>
        </g>
    </g>
</svg>
