<svg xmlns="http://www.w3.org/2000/svg" width="32" height="32" viewBox="0 0 32 32">
    <g fill="none" fill-rule="evenodd">
        <g fill="#BFC4CC">
            <g>
                <path d="M2.15 23.398C4.858 28.64 10.225 32 16.18 32 24.917 32 32 24.837 32 16S24.917 0 16.18 0c-3.466 0-6.766 1.132-9.482 3.192-.582.441-.7 1.277-.263 1.866.436.59 1.263.709 1.845.267 2.263-1.716 5.01-2.658 7.9-2.658 7.281 0 13.183 5.97 13.183 13.333 0 7.364-5.902 13.333-13.183 13.333-4.964 0-9.435-2.798-11.693-7.17-.337-.652-1.133-.905-1.779-.564-.645.34-.895 1.146-.558 1.799z" transform="translate(-496 -448) translate(496 448)"/>
            </g>
        </g>
    </g>
</svg>
