<svg xmlns="http://www.w3.org/2000/svg" width="92" height="24" viewBox="0 0 92 24">
    <g fill="none" fill-rule="evenodd">
        <path fill="#002A8D" d="M22.893 18.57s-.175.82.59.887c.387.013.799.013 1.231.013 2.759 0 5.283-1.003 5.34-3.464.051-2.182-1.913-2.84-4.28-2.84h-1.67l-1.21 5.404zm12.517-2.444c0 3.265-2.773 7.572-12.364 7.042-1.124-.062-1.815-.154-2.829-.4-3.613-.88-2.342-5.092-2.342-5.092l3.676-16.304c2.023-.325 4.291-.523 6.621-.523 5.13 0 8.529 1.81 8.529 5.195 0 3.17-3.096 4.893-5.44 5.283 1.858.138 4.149 1.554 4.149 4.8zM26.03 4.635l-.927 4.2s-.23.9.555.9h1.082c2.782 0 4.71-1.078 4.758-2.976.04-1.566-1.325-2.245-3.262-2.245-.885 0-1.815.06-2.206.12zm32.83 18.592h-3.045l4.828-21.733c1.997-.462 4.099-.553 6.533-.533 5.94.024 8.664 2.27 8.664 6.186 0 3.588-2.857 8.868-11.074 8.868-.842 0-1.566-.096-2.088-.13 0 0-.67 3.022-1.068 4.802-.501 2.235-1.97 2.54-2.75 2.54zm6.605-18.434l-1.342 6.06s-.433 1.288 1.112 1.288c.19.008.398.014.626.014 3.454-.027 5.228-2.28 5.228-4.611 0-2.295-1.586-2.859-3.494-2.859-.975 0-1.706.046-2.13.108zm-21.702 8.832c0 3.43 1.993 5.624 5.41 5.624 1.408 0 2.946-.236 5.02-1.757l-.813 3.654s-.225 1.212-1.573 1.683c-1.094.41-2.249.597-3.999.597-4.874 0-9.631-2.4-9.631-9.51 0-6.652 4.262-13.413 12.49-13.413 1.615 0 2.756.227 4.218.699 2.253.726 2.527 1.947 2.378 2.678-.153.75-.684 2.549-.684 2.549-1.418-1.267-3.887-1.623-5.26-1.623-5.26 0-7.556 5.282-7.556 8.82zM9.01 10.785C7.17 8.792 5.23 7.586 3.799 6.9c0 0-.698-.346-1.062-.545.531-1.194 1.23-2.047 1.23-2.047.099-.129 2.216-2.616 4.078-1.743 2.034.915 2.24 5.115.966 8.222zm75.559 0c-1.84-1.994-3.78-3.2-5.212-3.886 0 0-.698-.346-1.062-.545.53-1.194 1.23-2.047 1.23-2.047.099-.129 2.216-2.616 4.078-1.743 2.034.915 2.24 5.115.966 8.222z"/>
        <path fill="#FF7800" d="M15.321 13.961c-1.983 3.167-7.392 6.777-8.925 7.319-2.98 1.247-4.999-1.066-5.171-1.309-.556-.716-.692-.867-.96-1.39-.053.087 5.722-2.6 7.79-6.075 2.242-2.985 2.437-8.84-.01-9.942.74.373 2.484 1.374 4.057 2.776C13.672 6.671 15.03 8.417 15 8.394c.166.225 2.132 2.673.321 5.567zM90.56 8.394c.166.225 2.132 2.673.321 5.567-1.982 3.167-7.392 6.777-8.925 7.319-2.981 1.247-5-1.066-5.172-1.309-.556-.716-.69-.867-.96-1.39-.052.087 5.723-2.6 7.792-6.075 2.24-2.985 2.436-8.84-.012-9.942.74.373 2.484 1.374 4.058 2.776 1.57 1.331 2.927 3.077 2.898 3.054z"/>
    </g>
</svg>
