<svg xmlns="http://www.w3.org/2000/svg" width="93" height="24" viewBox="0 0 93 24">
    <g fill="none" fill-rule="evenodd">
        <path fill="#FFF" d="M23.142 18.57s-.177.82.597.887c.39.013.807.013 1.244.013 2.788 0 5.34-1.003 5.397-3.464.052-2.182-1.933-2.84-4.326-2.84h-1.688l-1.224 5.404zm12.652-2.444c0 3.265-2.803 7.572-12.498 7.042-1.136-.062-1.834-.154-2.86-.4-3.651-.88-2.367-5.092-2.367-5.092l3.716-16.304C23.83 1.047 26.123.85 28.478.85c5.186 0 8.622 1.81 8.622 5.195 0 3.17-3.13 4.893-5.498 5.283 1.877.138 4.192 1.554 4.192 4.8zm-9.48-11.491l-.937 4.2s-.233.9.561.9h1.093c2.813 0 4.762-1.078 4.81-2.976.04-1.566-1.339-2.245-3.297-2.245-.895 0-1.835.06-2.23.12zm33.187 18.592h-3.078l4.88-21.733c2.019-.462 4.143-.553 6.604-.533 6.006.024 8.759 2.27 8.759 6.186 0 3.588-2.889 8.868-11.195 8.868-.851 0-1.583-.096-2.111-.13 0 0-.677 3.022-1.079 4.802-.507 2.235-1.993 2.54-2.78 2.54zm6.677-18.434l-1.357 6.06s-.438 1.288 1.124 1.288c.193.008.402.014.632.014 3.492-.027 5.285-2.28 5.285-4.611 0-2.295-1.602-2.859-3.532-2.859-.985 0-1.724.046-2.152.108zM44.24 13.625c0 3.43 2.014 5.624 5.47 5.624 1.422 0 2.977-.236 5.073-1.757l-.821 3.654s-.229 1.212-1.59 1.683c-1.107.41-2.274.597-4.043.597-4.928 0-9.736-2.4-9.736-9.51C38.593 7.263 42.9.502 51.219.502c1.632 0 2.786.227 4.263.699 2.278.726 2.555 1.947 2.404 2.678-.154.75-.691 2.549-.691 2.549-1.433-1.267-3.93-1.623-5.317-1.623-5.317 0-7.638 5.282-7.638 8.82zm-35.131-2.84c-1.86-1.994-3.82-3.2-5.268-3.886 0 0-.706-.346-1.074-.545C3.304 5.16 4.01 4.307 4.01 4.307c.1-.129 2.24-2.616 4.122-1.743 2.056.915 2.266 5.115.977 8.222zm76.38 0c-1.86-1.994-3.82-3.2-5.268-3.886 0 0-.706-.346-1.074-.545.537-1.194 1.243-2.047 1.243-2.047.1-.129 2.24-2.616 4.122-1.743 2.056.915 2.266 5.115.977 8.222z"/>
        <path fill="#FF7800" d="M15.488 13.961c-2.005 3.167-7.473 6.777-9.022 7.319-3.014 1.247-5.054-1.066-5.228-1.309-.562-.716-.699-.867-.97-1.39-.054.087 5.784-2.6 7.875-6.075 2.266-2.985 2.463-8.84-.01-9.942.747.373 2.51 1.374 4.1 2.776 1.588 1.331 2.96 3.077 2.93 3.054.168.225 2.156 2.673.325 5.567zm76.055-5.567c.168.225 2.156 2.673.325 5.567-2.004 3.167-7.473 6.777-9.022 7.319-3.014 1.247-5.054-1.066-5.228-1.309-.562-.716-.699-.867-.97-1.39-.054.087 5.784-2.6 7.875-6.075 2.266-2.985 2.463-8.84-.01-9.942.747.373 2.51 1.374 4.1 2.776 1.588 1.331 2.96 3.077 2.93 3.054z"/>
    </g>
</svg>
