<svg width="82" height="44" xmlns="http://www.w3.org/2000/svg">
    <g fill="none" fill-rule="evenodd">
        <rect fill="#FFF" width="82" height="44" rx="1"/>
        <path d="M30.327 35.604c0-.56.365-1.021.962-1.021.57 0 .954.44.954 1.02 0 .58-.384 1.021-.954 1.021-.597 0-.962-.46-.962-1.02zm2.566 0v-1.595h-.69v.387c-.218-.287-.55-.467-1-.467-.889 0-1.585.7-1.585 1.675 0 .973.696 1.674 1.584 1.674.451 0 .783-.18 1.002-.467v.387h.689v-1.594zm23.285 0c0-.56.364-1.021.961-1.021.57 0 .955.44.955 1.02 0 .58-.385 1.021-.955 1.021-.597 0-.961-.46-.961-1.02zm2.565 0v-2.875h-.689v1.667c-.219-.287-.55-.467-1.001-.467-.888 0-1.585.7-1.585 1.675 0 .973.697 1.674 1.585 1.674.45 0 .782-.18 1.001-.467v.387h.69v-1.594zM41.446 34.55c.444 0 .73.28.802.773h-1.644c.073-.46.351-.773.842-.773zm.013-.62c-.928 0-1.578.68-1.578 1.674 0 1.013.676 1.674 1.624 1.674.478 0 .916-.12 1.3-.447l-.338-.514a1.504 1.504 0 0 1-.922.334c-.444 0-.848-.207-.948-.78h2.354c.006-.087.013-.174.013-.267-.007-.994-.616-1.675-1.505-1.675zm8.32 1.674c0-.56.365-1.021.962-1.021.57 0 .955.44.955 1.02 0 .58-.385 1.021-.955 1.021-.597 0-.961-.46-.961-1.02zm2.567 0v-1.595h-.69v.387c-.219-.287-.55-.467-1.001-.467-.889 0-1.585.7-1.585 1.675 0 .973.696 1.674 1.585 1.674.45 0 .782-.18 1-.467v.387h.69v-1.594zm-6.458 0c0 .967.67 1.674 1.69 1.674.478 0 .796-.107 1.141-.38l-.331-.56a1.39 1.39 0 0 1-.83.286c-.55-.007-.954-.407-.954-1.02 0-.614.404-1.014.955-1.021.298 0 .57.1.829.287l.331-.56c-.345-.274-.663-.38-1.14-.38-1.021 0-1.691.706-1.691 1.674zm8.884-1.675c-.398 0-.656.187-.835.467v-.387h-.683v3.189h.69V35.41c0-.527.225-.82.676-.82.139 0 .285.02.43.08l.213-.654a1.468 1.468 0 0 0-.49-.087zm-18.471.334c-.332-.22-.789-.334-1.293-.334-.802 0-1.32.387-1.32 1.02 0 .521.385.841 1.095.941l.324.047c.378.053.557.153.557.334 0 .246-.252.386-.722.386-.477 0-.822-.153-1.055-.333l-.324.54c.378.28.855.414 1.372.414.915 0 1.446-.434 1.446-1.04 0-.561-.418-.855-1.108-.955l-.325-.046c-.298-.04-.537-.1-.537-.314 0-.233.226-.373.604-.373.404 0 .795.153.988.273l.298-.56zm8.89-.334c-.397 0-.656.187-.835.467v-.387h-.683v3.189h.69V35.41c0-.527.225-.82.676-.82.14 0 .285.02.431.08l.212-.654a1.468 1.468 0 0 0-.49-.087zm-5.88.08h-1.127v-.967h-.696v.967h-.644v.634h.644v1.454c0 .74.285 1.18 1.1 1.18.299 0 .643-.093.862-.246l-.199-.594c-.205.12-.43.18-.61.18-.344 0-.457-.213-.457-.533v-1.441h1.127v-.634zm-10.303 3.189v-2.002c0-.753-.478-1.26-1.247-1.267-.404-.006-.822.12-1.113.567-.22-.353-.564-.567-1.048-.567-.338 0-.67.1-.928.474v-.394h-.69v3.189h.696V35.43c0-.554.306-.847.776-.847.458 0 .69.3.69.84v1.775h.696V35.43c0-.554.318-.847.776-.847.47 0 .696.3.696.84v1.775h.696z" fill="#1E1C1E"/>
        <path fill="#FF5F00" d="M36.072 28.592h10.444V9.71H36.072z"/>
        <path d="M36.735 19.151c0-3.83 1.783-7.242 4.559-9.44a11.839 11.839 0 0 0-7.376-2.568c-6.592 0-11.935 5.376-11.935 12.008 0 6.632 5.343 12.009 11.935 12.009 2.784 0 5.346-.96 7.376-2.568a12.014 12.014 0 0 1-4.559-9.44" fill="#EB001B"/>
        <path d="M60.605 19.151c0 6.632-5.344 12.009-11.935 12.009a11.84 11.84 0 0 1-7.376-2.568 12.013 12.013 0 0 0 4.559-9.44c0-3.832-1.783-7.243-4.56-9.442a11.84 11.84 0 0 1 7.377-2.567c6.591 0 11.935 5.376 11.935 12.008" fill="#F79E1B"/>
    </g>
</svg>
