<svg xmlns="http://www.w3.org/2000/svg" width="32" height="32" viewBox="0 0 32 32">
    <g fill="none" fill-rule="evenodd">
        <g fill="#FFF">
            <g>
                <path d="M22.667 4H9.333C8.597 4 8 4.597 8 5.333v21.334C8 27.403 8.597 28 9.333 28h13.334c.736 0 1.333-.597 1.333-1.333V5.333C24 4.597 23.403 4 22.667 4zM9.333 5.333h13.334V20H9.333V5.333zm13.334 16v5.334H9.333v-5.334h13.334zM16 22.667c-.736 0-1.333.597-1.333 1.333s.597 1.333 1.333 1.333 1.333-.597 1.333-1.333-.597-1.333-1.333-1.333z" transform="translate(-712 -184) translate(712 184)"/>
            </g>
        </g>
    </g>
</svg>
