<svg xmlns="http://www.w3.org/2000/svg" xmlns:xlink="http://www.w3.org/1999/xlink" width="265" height="264" viewBox="0 0 265 264">
    <defs>
        <circle id="cyrfzn59xa" cx="63" cy="59" r="51"/>
    </defs>
    <g fill="none" fill-rule="evenodd">
        <g>
            <g>
                <path d="M0.08 0.8H264.08V263.92H0.08z" transform="translate(-379 -120) translate(379 120)"/>
                <path fill="#D0E5FF" d="M173.46 38.048c33.974 1.785 18.06 32.242 33.036 61.341 14.977 29.1 25.456 26.107 24.436 45.624-1.098 21-33.602 19.291-57.211 40.607-8.063 7.28-4.234 34.782-46.871 40.79-42.637 6.01-49.09-35.608-59.276-48.55-19.712-25.04-39.817-28.692-38.514-53.632 1.555-29.745 45.864-26.29 73.227-41.946 27.363-15.656 44.41-45.64 71.173-44.234zm39.008 136.66c1.959 0 3.546 1.591 3.546 3.554 0 1.963-1.587 3.554-3.546 3.554-1.959 0-3.547-1.591-3.547-3.554 0-1.963 1.588-3.554 3.547-3.554z" transform="translate(-379 -120) translate(379 120) scale(-1 1) rotate(-3 0 5097)"/>
                <g>
                    <g transform="translate(-379 -120) translate(379 120) translate(41 51) translate(14)">
                        <rect width="153.82" height="153.82" x=".09" fill="#5B90E9" rx="18.787"/>
                        <rect width="127.987" height="127.987" x="13.006" y="12.916" fill="#08349D" rx="9.394"/>
                    </g>
                    <g fill="#0246C6">
                        <path d="M36.554 61.726c-.782.945-1.605 1.86-2.473 2.746-.192.198-.386.393-.582.587-.56.554-.185 1.521.603 1.493.316-.01.632-.016.95-.016 1.754.001 3.516.164 5.266.478.786.142 1.363-.733.9-1.386-.819-1.16-1.548-2.373-2.184-3.638-.484-.962-1.794-1.093-2.48-.264M11.095 81.896c1.321-.236 2.2-1.5 1.964-2.82-.237-1.32-1.499-2.201-2.82-1.964-1.299.232-2.619.407-3.954.523-1.337.116-2.328 1.294-2.212 2.631.117 1.338 1.294 2.328 2.632 2.212 1.483-.129 2.946-.324 4.39-.582M60.965 77.565c-3.983-.514-7.704-1.844-11.002-3.818-4.522-2.706-9.694-4.288-14.9-4.291-3.864-.002-7.749.885-11.298 2.85-2.178 1.204-4.468 2.23-6.85 3.059-1.268.44-1.939 1.825-1.498 3.094.441 1.268 1.828 1.938 3.095 1.497 2.646-.92 5.188-2.06 7.606-3.397 2.778-1.535 5.816-2.24 8.944-2.242 4.208-.002 8.57 1.302 12.403 3.6 3.856 2.31 8.22 3.868 12.878 4.47 1.332.171 2.55-.769 2.721-2.1.172-1.331-.768-2.55-2.099-2.722" transform="translate(-379 -120) translate(379 120) translate(41 51) translate(56.361 27.006)"/>
                        <path d="M55.944 84.53c-3.175-.782-6.19-1.978-8.972-3.527-1.173-.652-2.654-.23-3.306.944-.652 1.172-.231 2.653.942 3.305 3.157 1.756 6.576 3.112 10.175 3.997 1.304.32 2.62-.477 2.94-1.78.32-1.303-.476-2.62-1.78-2.94M35.067 82.095H35.104c1.08 0 2.256.148 3.451.447 1.303.324 2.622-.469 2.946-1.772.324-1.303-.469-2.62-1.772-2.944-1.546-.386-3.103-.591-4.625-.592-.005.001-.055 0-.157.004-2.628.02-5.147.618-7.414 1.874-4.878 2.7-10.244 4.64-15.92 5.656-1.32.236-2.2 1.5-1.963 2.82.236 1.322 1.498 2.2 2.82 1.965 6.208-1.112 12.08-3.234 17.414-6.187 1.553-.85 3.209-1.26 5.183-1.27M48.362 90.254c-2.232-.886-4.375-1.947-6.409-3.166-1.135-.693-2.325-1.194-3.469-1.539-.577-.172-1.142-.303-1.69-.396-.548-.089-1.078-.14-1.601-.14h-.083.002l-.103.002-.03.002c-.703.014-1.346.08-1.96.23-.632.152-1.202.396-1.68.65l-.042.022c-3.548 1.965-7.326 3.58-11.275 4.798-1.282.395-2.002 1.756-1.606 3.039.395 1.282 1.755 2 3.038 1.606 4.258-1.312 8.329-3.053 12.156-5.168.25-.13.376-.177.561-.225.186-.045.463-.087.948-.094l.033-.001H35.208c.193 0 .47.022.79.075.494.081 1.086.235 1.685.455.598.219 1.206.505 1.747.838l.023.015c2.26 1.354 4.64 2.532 7.116 3.515 1.248.495 2.661-.116 3.156-1.364.496-1.247-.115-2.66-1.363-3.154" transform="translate(-379 -120) translate(379 120) translate(41 51) translate(56.361 27.006)"/>
                        <path d="M37.487 93.496c-.317-.16-.644-.298-1.004-.42l-.018-.007-.006-.002c-.151-.05-.288-.09-.402-.12-.6-.16-1.227-.087-1.776.206-.291.157-.585.312-.881.464-1.192.618-1.659 2.084-1.041 3.277.608 1.176 2.045 1.643 3.229 1.062 1.128.394 2.402-.094 2.96-1.191.61-1.196.135-2.66-1.061-3.269M63.796 70.003h-.001c-5.452-.228-10.281-2.494-13.912-6.11l-.011-.007-.005-.007c-2.259-2.257-3.95-4.993-4.974-7.97-.436-1.268-1.82-1.944-3.089-1.508-1.269.437-1.943 1.82-1.507 3.088 1.26 3.67 3.345 7.04 6.134 9.827.003.004.008.006.011.009l.009.01c4.435 4.429 10.445 7.251 17.145 7.523 1.34.056 2.472-.986 2.527-2.329.056-1.34-.987-2.472-2.327-2.526" transform="translate(-379 -120) translate(379 120) translate(41 51) translate(56.361 27.006)"/>
                        <path d="M64.672 62.242c-1.439-.001-2.836-.232-4.157-.672-1.272-.424-2.65.264-3.073 1.537-.425 1.274.263 2.65 1.537 3.076 1.815.604 3.735.918 5.69.919 1.342 0 2.431-1.087 2.432-2.43 0-1.342-1.086-2.43-2.43-2.43M55.312 61.779c.955-.943.966-2.481.022-3.437-2.448-2.484-3.787-5.739-3.792-9.235V37.2c0-1.341-1.089-2.43-2.431-2.43-1.343 0-2.43 1.089-2.43 2.43l-.001 11.91c-.001 4.754 1.86 9.275 5.195 12.647.942.956 2.481.966 3.437.023M20.317 35.503c.07-.646.104-1.297.104-1.952.002-3.624 1.47-6.891 3.852-9.279 2.387-2.382 5.654-3.849 9.278-3.85 3.1.001 5.932 1.073 8.185 2.874 2.253 1.8 3.899 4.323 4.586 7.203.313 1.305 1.623 2.11 2.93 1.799 1.304-.312 2.11-1.623 1.797-2.929-.947-3.961-3.2-7.41-6.274-9.87-3.074-2.46-6.99-3.94-11.224-3.938-4.956 0-9.467 2.022-12.714 5.274-3.253 3.25-5.276 7.76-5.275 12.714-.001.482-.027.96-.078 1.43-.145 1.334.82 2.533 2.155 2.678 1.335.145 2.533-.82 2.678-2.154M2.433 51.543c4.783.001 9.332-1.886 12.725-5.276.888-.89 1.669-1.853 2.341-2.88.735-1.122.42-2.63-.704-3.363-1.121-.737-2.628-.422-3.363.702-.49.748-1.062 1.453-1.71 2.104-2.505 2.492-5.779 3.846-9.291 3.851-1.342.001-2.43 1.09-2.43 2.432.001 1.343 1.09 2.43 2.432 2.43" transform="translate(-379 -120) translate(379 120) translate(41 51) translate(56.361 27.006)"/>
                        <path d="M64.67 59.321c1.341 0 2.43-1.089 2.43-2.43 0-1.343-1.089-2.43-2.43-2.43-1.434-.005-2.757-.55-3.804-1.588-.992-1-1.542-2.323-1.544-3.767V33.549l-.004-.122c-.031-7.053-2.92-13.462-7.554-18.091-4.657-4.661-11.112-7.557-18.212-7.556-1.205 0-2.391.083-3.554.244-1.33.184-2.26 1.41-2.074 2.741.184 1.33 1.41 2.258 2.74 2.074.944-.13 1.907-.198 2.888-.198 5.768.001 10.981 2.34 14.776 6.132 3.792 3.795 6.13 9.007 6.132 14.776v15.557c-.003 2.71 1.067 5.299 2.97 7.204 1.929 1.93 4.527 3.015 7.24 3.011M2.433 43.762c2.713.003 5.31-1.081 7.235-3.005 1.908-1.912 2.978-4.5 2.973-7.212.002-4.136 1.204-7.98 3.283-11.229 2.078-3.248 5.033-5.89 8.52-7.585 1.207-.587 1.71-2.041 1.124-3.249-.587-1.207-2.04-1.71-3.249-1.123-4.3 2.09-7.93 5.338-10.49 9.337-2.56 3.999-4.048 8.763-4.047 13.85-.003 1.445-.554 2.768-1.552 3.774-1.04 1.03-2.364 1.577-3.797 1.58-1.342 0-2.43 1.09-2.43 2.432 0 1.342 1.088 2.43 2.43 2.43M17.4 63.586c1.2-.599 1.688-2.06 1.088-3.26-.598-1.201-2.059-1.689-3.259-1.09-3.853 1.924-8.19 3.005-12.797 3.006-1.342 0-2.43 1.086-2.43 2.43 0 1.342 1.088 2.43 2.43 2.43 5.37 0 10.462-1.267 14.968-3.516M23.96 59.286c3.673-3.076 6.678-6.924 8.766-11.298 2.089-4.373 3.257-9.275 3.256-14.436 0-1.342-1.087-2.43-2.43-2.43-1.342 0-2.43 1.088-2.43 2.43 0 4.427-1 8.604-2.783 12.343-1.783 3.737-4.356 7.031-7.499 9.665-1.03.86-1.166 2.394-.304 3.423.862 1.03 2.396 1.164 3.424.303" transform="translate(-379 -120) translate(379 120) translate(41 51) translate(56.361 27.006)"/>
                        <path d="M31.995 62.432c7.274-7.442 11.765-17.647 11.766-28.88.002-2.812-1.147-5.38-2.99-7.22-1.84-1.844-4.408-2.993-7.219-2.99-2.813-.003-5.38 1.145-7.22 2.99-1.845 1.84-2.992 4.408-2.991 7.22-.002 2.908-.585 5.645-1.64 8.136-1.053 2.493-2.582 4.742-4.486 6.651-1.904 1.9-4.153 3.428-6.645 4.483-2.493 1.055-5.23 1.637-8.139 1.639-1.342 0-2.43 1.088-2.43 2.432.001 1.341 1.09 2.43 2.433 2.429h-.001c3.56-.002 6.952-.72 10.03-2.023 3.08-1.304 5.85-3.19 8.189-5.522 2.336-2.344 4.223-5.114 5.527-8.194 1.304-3.079 2.022-6.47 2.023-10.03.001-1.486.595-2.808 1.566-3.784.977-.971 2.298-1.566 3.784-1.567 1.484.001 2.805.596 3.781 1.567.972.976 1.566 2.298 1.568 3.783-.003 9.926-3.957 18.902-10.384 25.484-6.429 6.577-15.304 10.728-25.168 10.973-1.342.033-2.403 1.148-2.37 2.488.033 1.344 1.148 2.404 2.49 2.37 11.17-.276 21.253-4.99 28.526-12.435M2.428 35.98c1.343.002 2.432-1.085 2.433-2.428.006-7.92 3.22-15.08 8.42-20.282 5.202-5.2 12.36-8.409 20.27-8.41 5.362.001 10.368 1.474 14.665 4.04 1.153.688 2.646.313 3.334-.84.687-1.153.31-2.644-.84-3.334C45.688 1.726 39.807 0 33.55 0 24.308 0 15.908 3.765 9.843 9.833 3.773 15.898.005 24.299 0 33.549c0 1.343 1.087 2.432 2.428 2.432M53.539 12.989c5.37 5.226 8.702 12.504 8.702 20.563v15.559c0 1.342 1.09 2.43 2.43 2.43 1.344 0 2.432-1.088 2.432-2.43V33.552c0-9.416-3.908-17.957-10.176-24.049-.962-.934-2.5-.913-3.437.05-.935.962-.914 2.5.049 3.436" transform="translate(-379 -120) translate(379 120) translate(41 51) translate(56.361 27.006)"/>
                    </g>
                </g>
                <g transform="translate(-379 -120) translate(379 120) translate(134 22)">
                    <circle cx="61" cy="61" r="61" fill="#F2F4F8"/>
                    <mask id="vas0kmu0bb" fill="#fff">
                        <use xlink:href="#cyrfzn59xa"/>
                    </mask>
                    <use fill="#FFF" xlink:href="#cyrfzn59xa"/>
                    <g mask="url(#vas0kmu0bb)">
                        <g>
                            <path fill="#3262C4" d="M50.594 12.922c2.398.161 4.678.3 6.954.473.974.074 1.526.617 1.529 1.574.01 3.716.044 7.433-.049 11.148 0 .603-.459 1.332-1.08 1.392-2.41.232-4.83.395-7.354.57V12.922zM52.51 52.297c-2.852-4.799-5.106-9.863-6.53-15.269-.525-1.99-.894-4.02-1.33-6.02l-.024.004c-1.279.56-2.496 1.268-3.638 2.142-2.902 2.218-4.733 4.948-5.778 8.05 1.02.002 1.717.034 3.077-.024 1.248-.053 1.765.43 2.362 1.457 2.395 4.124 4.909 8.18 7.454 12.214.38.602 1.15 1.312 1.758 1.33.87.026 1.936-.334 2.595-.902.944-.815.673-1.942.054-2.982" transform="scale(-1 1) rotate(36 -49.604 -148.63)"/>
                            <path fill="#A5CDFF" d="M61.397 99.767c-.21-4.788-1.612-9.16-4.524-13.042-3.113-4.15-6.938-7.58-10.76-11.03-2.132-1.925-4.24-3.883-6.281-5.902-1.349-1.334-1.828-2.879-1.019-4.804.584-1.388.964-2.91 1.15-4.408.613-4.907-.85-11.845-7.765-11.845H14.512c-2.965 0-3.185 1.171-3.852 2.482-5.068 9.958-7.913 20.322-8.595 31.315-.392 6.32-.364 12.702.01 19.024.353 5.944 1.229 11.875 2.208 17.756.927 5.568 4.954 8.65 10.577 8.645 5.518-.004 11.035 0 16.553 0 5.657-.001 11.314.02 16.97-.02 1.148-.007 2.325-.124 3.435-.402 4.034-1.013 5.928-4.056 6.97-7.752 1.844-6.54 2.908-13.197 2.609-20.017" transform="scale(-1 1) rotate(36 -49.604 -148.63)"/>
                            <path stroke="#8FBAFC" stroke-linecap="round" stroke-width="6.615" d="M65.07 29.679L90.705 42.592M67.195 21.759L107 23.661M65.886 12.572L97 0" transform="scale(-1 1) rotate(36 -49.604 -148.63)"/>
                            <path fill="#5B90E9" d="M48.422 12.952c-6.406 0-12.813-.029-19.218.013-2.807.018-5.646-.063-8.412.322C11.349 14.599 4.79 20.027.296 28.199c-.611 1.11-.273 1.975.978 2.472 1.206.479 2.417.976 3.548 1.604 4.171 2.315 7.412 5.446 8.201 10.388.292 1.832.16 3.735.194 5.606.003.171.007.324.013.467h20.818c.02-.285.033-.616.047-1.016.083-2.307.433-4.49 1.115-6.516 1.045-3.102 2.876-5.832 5.778-8.05 1.142-.874 2.359-1.582 3.638-2.142 1.458-.638 2.997-1.081 4.613-1.324 1.024-.153 1.368-.56 1.356-1.61V12.923c-.745 0-1.509.03-2.173.03" transform="scale(-1 1) rotate(36 -49.604 -148.63)"/>
                        </g>
                    </g>
                    <circle cx="61" cy="61" r="52.325" stroke="#E30425" stroke-width="7.35"/>
                    <path stroke="#E30425" stroke-linecap="square" stroke-width="9.45" d="M27 26L97 96"/>
                </g>
            </g>
        </g>
    </g>
</svg>
