<svg xmlns="http://www.w3.org/2000/svg" xmlns:xlink="http://www.w3.org/1999/xlink" width="468" height="318" viewBox="0 0 468 318">
    <defs>
        <filter id="qf6cdbmfga" width="138.8%" height="138.8%" x="-19.4%" y="-18.1%" filterUnits="objectBoundingBox">
            <feMorphology in="SourceAlpha" radius=".5" result="shadowSpreadOuter1"/>
            <feOffset dy="2" in="shadowSpreadOuter1" result="shadowOffsetOuter1"/>
            <feGaussianBlur in="shadowOffsetOuter1" result="shadowBlurOuter1" stdDeviation="2"/>
            <feColorMatrix in="shadowBlurOuter1" result="shadowMatrixOuter1" values="0 0 0 0 0.321568627 0 0 0 0 0.439215686 0 0 0 0 0.580392157 0 0 0 0.2 0"/>
            <feOffset dy="1" in="SourceAlpha" result="shadowOffsetOuter2"/>
            <feGaussianBlur in="shadowOffsetOuter2" result="shadowBlurOuter2" stdDeviation="5"/>
            <feColorMatrix in="shadowBlurOuter2" result="shadowMatrixOuter2" values="0 0 0 0 0.321568627 0 0 0 0 0.439215686 0 0 0 0 0.580392157 0 0 0 0.12 0"/>
            <feOffset dy="4" in="SourceAlpha" result="shadowOffsetOuter3"/>
            <feGaussianBlur in="shadowOffsetOuter3" result="shadowBlurOuter3" stdDeviation="2.5"/>
            <feColorMatrix in="shadowBlurOuter3" result="shadowMatrixOuter3" values="0 0 0 0 0.321568627 0 0 0 0 0.439215686 0 0 0 0 0.580392157 0 0 0 0.14 0"/>
            <feMerge>
                <feMergeNode in="shadowMatrixOuter1"/>
                <feMergeNode in="shadowMatrixOuter2"/>
                <feMergeNode in="shadowMatrixOuter3"/>
            </feMerge>
        </filter>
        <circle id="xdrc2y6stb" cx="40" cy="44" r="40"/>
    </defs>
    <g fill="none" fill-rule="evenodd">
        <g>
            <g>
                <g transform="translate(-278 -50) translate(278 50) translate(16 10)">
                    <path fill="#0035B6" d="M51.156 146.854l-1.148.988-1.533 1.38c-18.234 16.785-26.898 37.635-27.145 59.327C3.162 189.443-4.586 167.648 2.743 145.83c.792-2.357 1.687-4.594 2.682-6.72l2.425-.313c17.234-2.004 31.236 1.27 43.306 8.057z"/>
                    <path fill="#002473" d="M218.5 286l5.232.004C308.847 286.144 377 289.67 377 294c0 4.418-70.963 8-158.5 8l-5.232-.004C128.153 301.856 60 298.33 60 294c0-4.418 70.963-8 158.5-8zM343 53c4.418 0 8 3.582 8 8v42c0 4.418-3.582 8-8 8H89c-4.418 0-8-3.582-8-8V61c0-4.418 3.582-8 8-8h254z"/>
                    <path fill="#0246C6" d="M225.84 164.05c78.966 11.928 140.93-9.034 167.623 29.744-24.55 26.627-59.43 49.382-103.821 63.008C184.257 289.151 68.17 257.804 21.33 208.55c.247-21.692 8.911-42.542 27.145-59.328 51.021-46.97 109.831 4.628 177.365 14.829zM349 45c4.418 0 8 3.582 8 8v42c0 4.418-3.582 8-8 8H95c-4.418 0-8-3.582-8-8V53c0-4.418 3.582-8 8-8h254z"/>
                    <path fill="#0050DA" d="M51.156 146.854c36.176 20.34 54.999 72.24 91.47 108.193 4.246 4.186 8.524 8.168 12.804 11.972-57.447-7.796-107.196-30.179-134.1-58.47.247-21.692 8.911-42.542 27.145-59.328l1.533-1.38 1.148-.987zM349 45c4.335 0 7.865 3.448 7.996 7.75L357 53v42c0 4.335-3.448 7.865-7.75 7.996L349 103h-86.832l-57.995-58H349z"/>
                    <path fill="#002B9E" d="M389.642 13.037c62.862 38.657 60.122 121.51 1.908 182.813.64-.685 1.28-1.37 1.913-2.056-26.694-38.778-88.657-17.816-167.623-29.744-66.165-9.995-123.957-59.726-174.254-17.563l-.43.367c-11.884-6.683-25.641-9.96-42.513-8.145l-.793.088-2.424.312c12.214-26.087 39.485-35.37 75.571-43.154L81 103c0 4.335 3.448 7.865 7.75 7.996L89 111h254c4.335 0 7.865-3.448 7.996-7.75L351 103v-.252c3.368-.867 5.878-3.873 5.996-7.483L357 95V53c0-4.335-3.448-7.865-7.75-7.996L349 45l-108.678.001c51.75-29.918 96.738-64.299 149.32-31.964zM339 60c4.418 0 8 3.582 8 8v12c0 4.418-3.582 8-8 8H105c-4.418 0-8-3.582-8-8V68c0-4.418 3.582-8 8-8h234z"/>
                    <rect width="240" height="6" x="102" y="71" fill="#001F5A" rx="3"/>
                    <circle cx="146.5" cy="30.5" r="3.5" fill="#0066F2"/>
                    <circle cx="74" cy="258" r="2" fill="#ACD3FF"/>
                    <circle cx="398" cy="93" r="5" fill="#419DFF"/>
                    <path fill="#F2F8FF" d="M126.952 50h190.096l-.167.009c-1.638.126-10.69 1.92-10.878 26.216L306 77v161H171l-33-33V77c0-26.075-10.01-26.976-11.048-27z"/>
                    <path fill="#ACBACE" fill-rule="nonzero" d="M203.51 100.96c.612 0 1.03-.325 1.292-1.135l2.395-7.34h-1.75l-1.923 6.473-1.9-6.474h-1.815l2.405 7.341c.273.836.67 1.134 1.296 1.134zm7.323 0c2.113 0 2.877-.926 2.877-3.295 0-2.362-.764-3.29-2.877-3.29-2.11 0-2.873.9-2.873 3.29 0 2.398.763 3.294 2.873 3.294zm0-1.29c-1.008 0-1.267-.395-1.267-2.005 0-1.602.259-2.005 1.267-2.005 1.012 0 1.278.453 1.278 2.005 0 1.56-.266 2.006-1.278 2.006zm6.79 1.29c1.127 0 2.11-.195 2.859-.595.04-.41.054-.78.054-1.216V94.46h-1.588v4.187c0 .288-.01.601-.04.86-.24.112-.637.173-.979.173-1.094 0-1.256-.378-1.256-1.281v-3.94h-1.595v4.084c0 1.382.245 2.415 2.545 2.415zm6.82 0c.853 0 1.54-.105 2.098-.245l-.14-1.206c-.392.079-.756.15-1.149.15-1.609 0-1.674-.615-1.674-2.051 0-1.52.162-1.963 1.66-1.963.393 0 .774.072 1.163.148l.13-1.174c-.447-.137-.99-.245-1.718-.245-2.358 0-2.851 1.135-2.851 3.234 0 1.717.331 3.351 2.48 3.351zm5.04-.087v-4.997c.306-.13.677-.202 1.033-.202 1.167 0 1.332.385 1.332 1.296v3.903h1.602v-4.058c0-1.346-.234-2.44-2.541-2.44-.53 0-1.005.079-1.426.205v-2.596h-1.599v8.89h1.599zm8.022.086c1.242 0 2.127-.133 2.804-.244l-.133-1.206c-.659.082-1.447.169-2.311.169-.926 0-1.459-.245-1.516-1.246l1.055-.054c.882-.047 2.304-.187 3.035-.32.014-.173.021-.346.021-.515 0-1.94-.482-3.169-2.822-3.169-2.146 0-2.877.965-2.877 3.291 0 1.901.569 3.294 2.744 3.294zm-1.203-3.621c0-1.005.158-1.74 1.336-1.74.907 0 1.22.461 1.22 1.304 0 .072-.003.184-.014.256-.375.05-1.023.104-1.44.126l-1.102.054zm7.129 3.535v-4.151c0-.288.01-.601.04-.86.251-.13.69-.199 1.065-.199.162 0 .328.008.46.026l.13-1.282c-.205-.022-.417-.033-.651-.033-.868 0-1.858.173-2.578.594-.04.41-.054.782-.054 1.217v4.688h1.588zm-40.722 12v-8.389h-1.707v8.39h1.707zm3.305 0v-4.187c0-.288.01-.601.04-.86.198-.098.543-.17.817-.17.875 0 1.066.461 1.066 1.278v3.94h1.595v-4.084c0-.324-.022-.633-.087-.921.292-.148.666-.213.915-.213.9 0 1.098.447 1.098 1.278v3.94h1.595v-4.084c0-1.31-.303-2.416-2.355-2.416-.68 0-1.383.148-1.959.368-.345-.23-.842-.368-1.548-.368-.993 0-2.002.213-2.714.594-.036.41-.054.782-.054 1.217v4.688h1.591zm10.268 2.362v-2.412c.385.082.835.136 1.224.136 1.973 0 2.852-.806 2.852-3.29 0-2.52-.9-3.295-3.035-3.295-.872 0-1.862.173-2.582.594-.04.41-.054.782-.054 1.217v7.05h1.595zm.9-3.536c-.28 0-.637-.057-.9-.14v-2.902c0-.288.011-.601.04-.86.241-.112.648-.17 1-.17 1.255 0 1.41.835 1.428 1.782l.002.26c0 1.166-.04 2.03-1.57 2.03zm6.103 1.174v-4.151c0-.288.01-.601.04-.86.252-.13.69-.199 1.065-.199.162 0 .328.008.461.026l.13-1.282c-.206-.022-.418-.033-.652-.033-.868 0-1.858.173-2.578.594-.04.41-.054.782-.054 1.217v4.688h1.588zm5.264.086c1.242 0 2.127-.133 2.804-.244l-.133-1.206c-.659.082-1.447.169-2.311.169-.926 0-1.459-.245-1.516-1.246l1.055-.054c.882-.047 2.304-.187 3.035-.32.014-.173.022-.346.022-.515 0-1.94-.483-3.169-2.823-3.169-2.146 0-2.877.965-2.877 3.291 0 1.901.569 3.294 2.744 3.294zm-1.203-3.621c0-1.005.159-1.74 1.336-1.74.907 0 1.22.461 1.22 1.304 0 .072-.003.184-.014.256-.374.05-1.023.104-1.44.126l-1.102.054zm7.575 3.621c1.419 0 2.528-.42 2.528-1.94 0-1.433-.893-1.65-1.962-2.013l-.107-.034-.218-.066c-.437-.134-.864-.286-.864-.735 0-.547.77-.55 1.279-.55.576 0 1.12.086 1.627.186l.151-1.166c-.8-.184-1.436-.267-2.35-.267-1.283 0-2.294.418-2.294 1.865 0 1.203.767 1.599 1.626 1.883l.26.083.13.04c.533.162 1.105.22 1.105.828 0 .554-.623.61-1.104.615h-.196c-.496 0-1.267-.104-1.746-.194l-.151 1.188c.662.177 1.555.277 2.286.277zm6.506 0c2.114 0 2.877-.925 2.877-3.294 0-2.362-.763-3.29-2.877-3.29-2.11 0-2.873.9-2.873 3.29 0 2.398.763 3.294 2.873 3.294zm0-1.288c-1.008 0-1.267-.396-1.267-2.006 0-1.602.259-2.005 1.267-2.005 1.012 0 1.278.453 1.278 2.005 0 1.56-.266 2.006-1.278 2.006z"/>
                    <path fill="#CAD5E3" d="M137.956 74H114c1.942 0 4.597-3.629 4.7-9.107l.003-.331c0-5.581 2.164-14.305 8.623-14.556.1-.028.196-.03.288-.006 6.276 1.625 9.893 10.08 10.342 24zM171 205c-3.233 12.569-3.233 23.569 0 33-7.88-3.49-14.488-7.904-19.824-13.24-5.337-5.336-9.729-11.923-13.176-19.76 10.182 3.526 21.182 3.526 33 0zM316.341 50c.093-.024.188-.022.288.006 6.267.244 8.49 8.462 8.617 14.048l.01.839c.1 5.366 2.65 8.958 4.58 9.102l.12.005H306c.449-13.92 4.066-22.375 10.341-24z"/>
                    <path fill="#8497B0" d="M258.205 77.67s-.08.393.272.426c.178.005.367.005.566.005 1.27 0 2.433-.48 2.459-1.662.024-1.047-.88-1.362-1.97-1.362h-.77l-.557 2.593zm5.763-1.173c0 1.567-1.277 3.634-5.693 3.38-.518-.03-.836-.075-1.303-.193-1.663-.422-1.078-2.443-1.078-2.443l1.693-7.824c.931-.156 1.976-.25 3.049-.25 2.361 0 3.927.867 3.927 2.492 0 1.521-1.426 2.348-2.505 2.535.855.066 1.91.746 1.91 2.303zm-4.318-5.514l-.427 2.015s-.106.432.255.432h.498c1.282 0 2.17-.517 2.192-1.428.018-.752-.61-1.077-1.502-1.077-.408 0-.836.029-1.016.058zm15.117 8.922h-1.402l2.223-10.43c.92-.22 1.887-.265 3.008-.255 2.735.011 3.99 1.09 3.99 2.968 0 1.722-1.316 4.256-5.1 4.256-.388 0-.72-.046-.961-.063l-.492 2.305c-.231 1.072-.908 1.219-1.266 1.219zm3.041-8.846l-.618 2.908s-.2.618.512.618c.088.004.183.006.288.006 1.59-.012 2.407-1.093 2.407-2.212 0-1.101-.73-1.372-1.608-1.372-.45 0-.786.022-.981.052zm-9.993 4.238c0 1.646.917 2.699 2.492 2.699.648 0 1.356-.114 2.31-.843l-.374 1.753s-.104.582-.724.808c-.504.196-1.036.286-1.841.286-2.245 0-4.435-1.152-4.435-4.564 0-3.192 1.962-6.436 5.751-6.436.744 0 1.27.11 1.942.335 1.038.35 1.164.935 1.095 1.286-.07.36-.315 1.223-.315 1.223-.653-.608-1.79-.779-2.422-.779-2.422 0-3.479 2.534-3.479 4.232zm21.687-2.51c.076.108.981 1.282.147 2.671-.912 1.52-3.404 3.252-4.11 3.512-1.372.599-2.301-.511-2.38-.628-.257-.344-.319-.416-.443-.667-.024.042 2.635-1.247 3.588-2.915 1.032-1.433 1.122-4.242-.005-4.77.34.178 1.144.659 1.868 1.331.723.64 1.348 1.477 1.335 1.466zm-3.162 1.147c-.846-.957-1.74-1.535-2.4-1.865 0 0-.32-.166-.489-.261.245-.573.567-.982.567-.982.045-.062 1.02-1.256 1.878-.837.936.44 1.031 2.455.444 3.945zm-31.555-1.147c.077.108.982 1.282.148 2.671-.912 1.52-3.404 3.252-4.11 3.512-1.372.599-2.301-.511-2.38-.628-.257-.344-.319-.416-.443-.667-.024.042 2.635-1.247 3.588-2.915 1.032-1.433 1.122-4.242-.005-4.77.34.178 1.144.659 1.868 1.331.723.64 1.348 1.477 1.334 1.466zm-3.16 1.147c-.847-.957-1.74-1.535-2.4-1.865 0 0-.322-.166-.49-.261.245-.573.567-.982.567-.982.045-.062 1.02-1.256 1.878-.837.936.44 1.031 2.455.444 3.945z"/>
                    <path fill="#B3C0D2" d="M218 184v4h-64v-4h64zm72 0v4h-19v-4h19zm-72-12v4h-64v-4h64zm72 0v4h-19v-4h19zm-19-20v4h-98v-4h98zm19-12v4H154v-4h136zm-19-12v4h-98v-4h98z"/>
                    <g transform="translate(261 136)">
                        <g>
                            <use fill="#000" filter="url(#qf6cdbmfga)" xlink:href="#xdrc2y6stb"/>
                            <use fill="#FFF" xlink:href="#xdrc2y6stb"/>
                        </g>
                        <circle cx="44" cy="40" r="40" fill="#FFCB1F"/>
                        <path fill="#FFE141" d="M75.645 64.503c5.253-6.77 8.381-15.271 8.381-24.503 0-22.091-17.909-40-40-40-9.197 0-17.67 3.104-24.426 8.321C26.795 15.74 66.9 56 75.645 64.503z"/>
                        <path fill="#002473" d="M13.784 13.788C7.689 20.808 4 29.973 4 40c0 22.091 17.909 40 40 40 10.028 0 19.194-3.69 26.214-9.787C62.88 78.66 52.064 84 40 84 17.909 84 0 66.091 0 44c0-12.062 5.34-22.878 13.784-30.212zm38.299 7.913l.138.061c.246.111.489.227.73.347l.45.234.489.27.63.374.474.303.394.267.4.285.44.33.378.3c.199.162.395.327.587.497l.373.335.299.282.277.272.344.352.276.296.25.28.32.37c.168.2.332.405.493.613l.31.411.134.184c.211.296.415.597.611.905l.285.461.308.532.035.062c.127.23.25.462.368.697l.198.405.195.422.145.333.197.48c.096.244.187.49.274.737l.155.463.118.379.125.434.16.616.071.309.079.365.093.485.074.444.057.394.057.457.048.472c.022.258.04.516.053.776l.007.155.012.357L64 40l-.003.344-.021.65-.023.394-.053.623-.032.3-.05.4-.067.453-.01.057c-.042.265-.09.527-.143.788l-.148.669-.062.252-.095.36-.15.52-.122.389c-.161.494-.341.98-.539 1.457l-.243.563-.201.431-.163.331-.213.41-.215.394c-.178.317-.365.63-.56.935l-.109.17-.2.3-.353.506-.164.225-.221.292-.275.347-.307.371c-.235.276-.476.546-.725.81l-.39.401-.454.44-.201.186c-.191.174-.386.345-.583.512l-.351.29-.318.251-.533.4-.197.14c-.216.152-.436.3-.66.445l-.475.299-.295.175-.446.253-.321.173-.334.172-.423.207-.418.192-.363.157-.43.176-.388.148-.375.135-.498.166-.39.12-.379.108-.499.13c-.386.096-.776.18-1.17.252l-.324.057-.23.037-.384.056-.504.061-.412.041-.397.031-.566.031-.42.013L44 60c-.177 0-.354-.002-.53-.007l-.46-.017-.4-.024-.478-.038-.45-.047c-.258-.03-.515-.064-.77-.104l-.554-.094c-.263-.048-.524-.102-.783-.16l-.505-.121-.381-.1-.51-.148-.379-.12-.378-.127-.457-.165-.37-.144-.366-.15-.502-.22-.364-.17-.338-.166-.443-.23-.36-.197-.298-.17-.434-.262c-.226-.14-.45-.284-.67-.433l-.523-.366-.21-.154-.323-.245-.37-.293c-.2-.163-.399-.33-.593-.501l-.49-.446-.179-.17-.274-.269-.39-.402-.369-.4-.474-.548-.239-.292-.226-.287-.315-.42-.218-.304-.205-.298-.31-.47-.285-.464-.37-.644-.163-.304-.169-.328-.228-.469-.176-.382c-.21-.47-.401-.95-.575-1.44l-.203-.604-.134-.438-.102-.358-.157-.612-.065-.279c-.058-.259-.11-.52-.159-.782l-.086-.51-.058-.396-.065-.537-.039-.395-.03-.391-.032-.57c-.01-.271-.016-.544-.016-.818 0-5.304 2.107-10.391 5.858-14.142 3.646-3.647 8.556-5.74 13.7-5.853L44 20l.288.002.429.01.223.01.425.024.503.04.443.046.394.05.555.082.425.075.37.072.465.102.395.095c.265.067.529.14.79.218l.495.154.352.118.526.19.371.145c.213.086.424.175.634.268zM32.16 32c-1.41 2.269-2.164 4.905-2.161 7.607 0 3.818 1.495 7.479 4.157 10.178C36.819 52.484 40.428 54 44.192 54c2.788.003 5.503-.833 7.808-2.392L32.16 32zm11.654-6c-2.79-.003-5.509.824-7.815 2.365L55.635 48c1.54-2.306 2.368-5.025 2.365-7.814 0-3.918-1.588-7.464-4.155-10.031S47.732 26 43.815 26z"/>
                        <path fill="#FFA733" d="M44 4c19.882 0 36 16.118 36 36S63.882 76 44 76 8 59.882 8 40 24.118 4 44 4zm0 2C25.222 6 10 21.222 10 40s15.222 34 34 34 34-15.222 34-34S62.778 6 44 6z"/>
                    </g>
                </g>
            </g>
        </g>
    </g>
</svg>
