<svg xmlns="http://www.w3.org/2000/svg" xmlns:xlink="http://www.w3.org/1999/xlink" width="468" height="318" viewBox="0 0 468 318">
    <defs>
        <filter id="prefix__a" width="138.8%" height="138.8%" x="-19.4%" y="-18.1%" filterUnits="objectBoundingBox">
            <feMorphology in="SourceAlpha" radius=".5" result="shadowSpreadOuter1"/>
            <feOffset dy="2" in="shadowSpreadOuter1" result="shadowOffsetOuter1"/>
            <feGaussianBlur in="shadowOffsetOuter1" result="shadowBlurOuter1" stdDeviation="2"/>
            <feColorMatrix in="shadowBlurOuter1" result="shadowMatrixOuter1" values="0 0 0 0 0.321568627 0 0 0 0 0.439215686 0 0 0 0 0.580392157 0 0 0 0.2 0"/>
            <feOffset dy="1" in="SourceAlpha" result="shadowOffsetOuter2"/>
            <feGaussianBlur in="shadowOffsetOuter2" result="shadowBlurOuter2" stdDeviation="5"/>
            <feColorMatrix in="shadowBlurOuter2" result="shadowMatrixOuter2" values="0 0 0 0 0.321568627 0 0 0 0 0.439215686 0 0 0 0 0.580392157 0 0 0 0.12 0"/>
            <feOffset dy="4" in="SourceAlpha" result="shadowOffsetOuter3"/>
            <feGaussianBlur in="shadowOffsetOuter3" result="shadowBlurOuter3" stdDeviation="2.5"/>
            <feColorMatrix in="shadowBlurOuter3" result="shadowMatrixOuter3" values="0 0 0 0 0.321568627 0 0 0 0 0.439215686 0 0 0 0 0.580392157 0 0 0 0.14 0"/>
            <feMerge>
                <feMergeNode in="shadowMatrixOuter1"/>
                <feMergeNode in="shadowMatrixOuter2"/>
                <feMergeNode in="shadowMatrixOuter3"/>
            </feMerge>
        </filter>
        <circle id="prefix__b" cx="40" cy="44" r="40"/>
    </defs>
    <g fill="none" fill-rule="evenodd" transform="translate(16 10)">
        <path fill="#0035B6" d="M51.156 146.854l-1.148.988-1.533 1.38c-18.234 16.785-26.898 37.635-27.145 59.327C3.162 189.443-4.586 167.648 2.743 145.83c.792-2.357 1.687-4.594 2.682-6.72l2.425-.313c17.234-2.004 31.236 1.27 43.306 8.057z"/>
        <path fill="#002473" d="M218.5 286l5.232.004C308.847 286.144 377 289.67 377 294c0 4.418-70.963 8-158.5 8l-5.232-.004C128.153 301.856 60 298.33 60 294c0-4.418 70.963-8 158.5-8zM343 53c4.418 0 8 3.582 8 8v42c0 4.418-3.582 8-8 8H89c-4.418 0-8-3.582-8-8V61c0-4.418 3.582-8 8-8h254z"/>
        <path fill="#0246C6" d="M225.84 164.05c78.966 11.928 140.93-9.034 167.623 29.744-24.55 26.627-59.43 49.382-103.821 63.008C184.257 289.151 68.17 257.804 21.33 208.55c.247-21.692 8.911-42.542 27.145-59.328 51.021-46.97 109.831 4.628 177.365 14.829zM349 45c4.418 0 8 3.582 8 8v42c0 4.418-3.582 8-8 8H95c-4.418 0-8-3.582-8-8V53c0-4.418 3.582-8 8-8h254z"/>
        <path fill="#0050DA" d="M51.156 146.854c36.176 20.34 54.999 72.24 91.47 108.193 4.246 4.186 8.524 8.168 12.804 11.972-57.447-7.796-107.196-30.179-134.1-58.47.247-21.692 8.911-42.542 27.145-59.328l1.533-1.38 1.148-.987zM349 45c4.335 0 7.865 3.448 7.996 7.75L357 53v42c0 4.335-3.448 7.865-7.75 7.996L349 103h-86.832l-57.995-58H349z"/>
        <path fill="#002B9E" d="M389.642 13.037c62.862 38.657 60.122 121.51 1.908 182.813.64-.685 1.28-1.37 1.913-2.056-26.694-38.778-88.657-17.816-167.623-29.744-66.165-9.995-123.957-59.726-174.254-17.563l-.43.367c-11.884-6.683-25.641-9.96-42.513-8.145l-.793.088-2.424.312c12.214-26.087 39.485-35.37 75.571-43.154L81 103c0 4.335 3.448 7.865 7.75 7.996L89 111h254c4.335 0 7.865-3.448 7.996-7.75L351 103v-.252c3.368-.867 5.878-3.873 5.996-7.483L357 95V53c0-4.335-3.448-7.865-7.75-7.996L349 45l-108.678.001c51.75-29.918 96.738-64.299 149.32-31.964zM339 60c4.418 0 8 3.582 8 8v12c0 4.418-3.582 8-8 8H105c-4.418 0-8-3.582-8-8V68c0-4.418 3.582-8 8-8h234z"/>
        <rect width="240" height="6" x="102" y="71" fill="#001F5A" rx="3"/>
        <circle cx="146.5" cy="30.5" r="3.5" fill="#0066F2"/>
        <circle cx="74" cy="258" r="2" fill="#ACD3FF"/>
        <circle cx="398" cy="93" r="5" fill="#419DFF"/>
        <path fill="#F2F8FF" d="M126.952 50h190.096l-.167.009c-1.638.126-10.69 1.92-10.878 26.216L306 77v161H171l-33-33V77c0-26.075-10.01-26.976-11.048-27z"/>
        <path fill="#CAD5E3" d="M137.956 74H114c1.942 0 4.597-3.629 4.7-9.107l.003-.331c0-5.581 2.164-14.305 8.623-14.556.1-.028.196-.03.288-.006 6.276 1.625 9.893 10.08 10.342 24zM171 205c-3.233 12.569-3.233 23.569 0 33-7.88-3.49-14.488-7.904-19.824-13.24-5.337-5.336-9.729-11.923-13.176-19.76 10.182 3.526 21.182 3.526 33 0zM316.341 50c.093-.024.188-.022.288.006 6.267.244 8.49 8.462 8.617 14.048l.01.839c.1 5.366 2.65 8.958 4.58 9.102l.12.005H306c.449-13.92 4.066-22.375 10.341-24z"/>
        <path fill="#8497B0" d="M258.205 77.67s-.08.393.272.426c.178.005.367.005.566.005 1.27 0 2.433-.48 2.459-1.662.024-1.047-.88-1.362-1.97-1.362h-.77l-.557 2.593zm5.763-1.173c0 1.567-1.277 3.634-5.693 3.38-.518-.03-.836-.075-1.303-.193-1.663-.422-1.078-2.443-1.078-2.443l1.693-7.824c.931-.156 1.976-.25 3.049-.25 2.361 0 3.927.867 3.927 2.492 0 1.521-1.426 2.348-2.505 2.535.855.066 1.91.746 1.91 2.303zm-4.318-5.514l-.427 2.015s-.106.432.255.432h.498c1.282 0 2.17-.517 2.192-1.428.018-.752-.61-1.077-1.502-1.077-.408 0-.836.029-1.016.058zm15.117 8.922h-1.402l2.223-10.43c.92-.22 1.887-.265 3.008-.255 2.735.011 3.99 1.09 3.99 2.968 0 1.722-1.316 4.256-5.1 4.256-.388 0-.72-.046-.961-.063l-.492 2.305c-.231 1.072-.908 1.219-1.266 1.219zm3.041-8.846l-.618 2.908s-.2.618.512.618c.088.004.183.006.288.006 1.59-.012 2.407-1.093 2.407-2.212 0-1.101-.73-1.372-1.608-1.372-.45 0-.786.022-.981.052zm-9.993 4.238c0 1.646.917 2.699 2.492 2.699.648 0 1.356-.114 2.31-.843l-.374 1.753s-.104.582-.724.808c-.504.196-1.036.286-1.841.286-2.245 0-4.435-1.152-4.435-4.564 0-3.192 1.962-6.436 5.751-6.436.744 0 1.27.11 1.942.335 1.038.35 1.164.935 1.095 1.286-.07.36-.315 1.223-.315 1.223-.653-.608-1.79-.779-2.422-.779-2.422 0-3.479 2.534-3.479 4.232zm21.687-2.51c.076.108.981 1.282.147 2.671-.912 1.52-3.404 3.252-4.11 3.512-1.372.599-2.301-.511-2.38-.628-.257-.344-.319-.416-.443-.667-.024.042 2.635-1.247 3.588-2.915 1.032-1.433 1.122-4.242-.005-4.77.34.178 1.144.659 1.868 1.331.723.64 1.348 1.477 1.335 1.466zm-3.162 1.147c-.846-.957-1.74-1.535-2.4-1.865 0 0-.32-.166-.489-.261.245-.573.567-.982.567-.982.045-.062 1.02-1.256 1.878-.837.936.44 1.031 2.455.444 3.945zm-31.555-1.147c.077.108.982 1.282.148 2.671-.912 1.52-3.404 3.252-4.11 3.512-1.372.599-2.301-.511-2.38-.628-.257-.344-.319-.416-.443-.667-.024.042 2.635-1.247 3.588-2.915 1.032-1.433 1.122-4.242-.005-4.77.34.178 1.144.659 1.868 1.331.723.64 1.348 1.477 1.334 1.466zm-3.16 1.147c-.847-.957-1.74-1.535-2.4-1.865 0 0-.322-.166-.49-.261.245-.573.567-.982.567-.982.045-.062 1.02-1.256 1.878-.837.936.44 1.031 2.455.444 3.945z"/>
        <path fill="#B3C0D2" d="M218 184v4h-64v-4h64zm72 0v4h-19v-4h19zm-72-12v4h-64v-4h64zm72 0v4h-19v-4h19zm-19-20v4h-98v-4h98zm19-12v4H154v-4h136zm-19-12v4h-98v-4h98zm-53.927-21.499c2.135 0 3.035.774 3.035 3.295 0 2.484-.879 3.29-2.852 3.29-.291 0-.617-.03-.925-.08l-.299-.056v2.412h-1.595v-7.05c0-.435.015-.806.054-1.217.72-.42 1.71-.594 2.582-.594zm24.104 0c2.114 0 2.877.93 2.877 3.291 0 2.37-.763 3.294-2.877 3.294-2.11 0-2.873-.896-2.873-3.294 0-2.39.763-3.29 2.873-3.29zm-6.423 0c.8 0 1.388.064 2.058.203l.293.064-.151 1.166c-.508-.1-1.051-.187-1.627-.187l-.201.001c-.488.008-1.078.071-1.078.55 0 .524.58.644 1.082.8l.514.173c.88.303 1.555.629 1.555 1.875 0 1.52-1.11 1.94-2.528 1.94-.626 0-1.372-.074-1.99-.206l-.296-.07.151-1.189c.48.09 1.25.194 1.746.194h.196c.481-.005 1.104-.06 1.104-.615 0-.609-.572-.666-1.105-.828l-.39-.123c-.859-.284-1.626-.68-1.626-1.883 0-1.447 1.011-1.865 2.293-1.865zm-6.322 0c2.34 0 2.823 1.228 2.823 3.169 0 .169-.008.342-.022.515-.658.12-1.876.245-2.756.303l-1.334.071c.057 1 .59 1.246 1.516 1.246.617 0 1.195-.044 1.716-.1l.595-.07.133 1.207-.39.062c-.62.093-1.398.182-2.414.182-2.175 0-2.744-1.393-2.744-3.294 0-2.326.731-3.29 2.877-3.29zm-4.353 0c.156 0 .302.005.443.015l.209.018-.13 1.281c-.133-.018-.299-.025-.46-.025-.375 0-.814.069-1.067.198-.021.195-.033.42-.037.641l-.002.22V113h-1.588v-4.688c0-.435.015-.806.054-1.217.72-.42 1.71-.594 2.578-.594zm-13.631 0c1.981 0 2.332 1.03 2.354 2.281V113h-1.594v-3.939c0-.831-.198-1.278-1.098-1.278-.249 0-.623.065-.915.212.049.217.073.445.082.682l.005.24V113h-1.595v-3.939c0-.817-.191-1.278-1.066-1.278-.274 0-.62.072-.817.17-.022.194-.034.419-.038.64l-.002.22V113h-1.591v-4.688c0-.435.018-.806.054-1.217.712-.381 1.72-.594 2.714-.594.706 0 1.203.137 1.548.368.576-.22 1.279-.368 1.959-.368zm-7.99-1.89V113h-1.706v-8.389h1.707zm14.615 3.143c-.353 0-.76.058-1.001.17-.022.194-.033.419-.038.64l-.002.22v2.902c.263.083.62.14.9.14 1.53 0 1.57-.864 1.57-2.03l-.002-.26c-.017-.947-.173-1.782-1.427-1.782zm24.104.033c-1.008 0-1.267.403-1.267 2.005l.005.378c.043 1.295.338 1.627 1.262 1.627 1.012 0 1.278-.446 1.278-2.005l-.006-.365c-.043-1.26-.345-1.64-1.272-1.64zm-12.745-.062c-1.07 0-1.299.607-1.331 1.473l-.005.266 1.102-.054c.417-.021 1.066-.075 1.44-.126.01-.072.014-.183.014-.255 0-.843-.313-1.304-1.22-1.304zM212.37 94.501c2.135 0 3.035.774 3.035 3.295 0 2.484-.879 3.29-2.852 3.29-.291 0-.617-.03-.925-.08l-.299-.056v2.412h-1.595v-7.05c0-.435.015-.806.054-1.217.72-.42 1.71-.594 2.582-.594zm-23.255-1.976c.78 0 1.473.085 2.002.208l.19.047-.15 1.315c-.552-.09-1.131-.145-1.729-.145-2.016 0-2.052 1.207-2.052 2.856l.003.482c.023 1.402.228 2.373 2.05 2.373.471 0 .946-.035 1.394-.095l.33-.05.155 1.318c-.548.148-1.318.252-2.193.252-2.787 0-3.474-1.303-3.474-4.28l.006-.47c.074-2.648.835-3.811 3.468-3.811zm6.07 1.976c2.114 0 2.877.93 2.877 3.291 0 2.37-.763 3.294-2.877 3.294-2.11 0-2.873-.896-2.873-3.294 0-2.39.763-3.29 2.873-3.29zm28.547 0c2.114 0 2.877.93 2.877 3.291 0 2.37-.763 3.294-2.877 3.294-2.11 0-2.873-.896-2.873-3.294 0-2.39.764-3.29 2.873-3.29zm5.88-2.39v2.527c.381-.083.835-.137 1.224-.137 1.973 0 2.848.807 2.848 3.291 0 2.52-.897 3.294-3.035 3.294-.868 0-1.862-.172-2.582-.594-.027-.307-.044-.593-.05-.9l-.004-.317v-7.164h1.599zm7.892 2.39c1.376 0 2.529.37 2.612 1.884l.005.18v2.71c0 .436-.018.807-.054 1.217-.741.432-1.706.594-2.866.594-1.771 0-2.47-.687-2.47-2.045 0-1.134.497-1.836 1.775-2.037.67-.108 1.347-.134 2.053-.162 0-.738-.342-1.073-1.178-1.073-.663 0-1.377.06-1.975.13l-.29.035-.129-1.188c.673-.115 1.573-.245 2.517-.245zm13.4-1.724v1.81h1.29v1.214h-1.29v3.316c0 .533.223.742.76.742l.269-.006.271-.016.122 1.138c-.342.061-.756.111-1.098.111-1.288 0-1.865-.538-1.915-1.645l-.004-.162v-3.478h-1.047v-1.213h1.047v-1.552l1.595-.26zm5.214 1.724c2.34 0 2.822 1.228 2.822 3.169 0 .169-.007.342-.021.515-.658.12-1.876.245-2.756.303l-1.334.071c.057 1 .59 1.246 1.515 1.246.618 0 1.196-.044 1.717-.1l.595-.07.133 1.207-.39.062c-.62.093-1.398.182-2.415.182-2.174 0-2.743-1.393-2.743-3.294 0-2.326.73-3.29 2.877-3.29zm-11.486 0c2.231 0 2.538.966 2.556 2.28V101h-1.59v-3.939l-.006-.255c-.037-.72-.27-1.023-1.266-1.027-.349 0-.752.062-.99.173-.021.195-.033.42-.037.641l-.002.22V101h-1.592v-4.688c0-.435.018-.806.054-1.217.753-.4 1.74-.594 2.873-.594zm-25.256 0c.156 0 .302.005.443.015l.209.018-.13 1.281c-.133-.018-.299-.025-.46-.025-.375 0-.815.069-1.067.198-.021.195-.033.42-.037.641l-.002.22V101h-1.588v-4.688c0-.435.014-.806.054-1.217.72-.42 1.71-.594 2.578-.594zm-13.631 0c1.981 0 2.332 1.03 2.353 2.281l.002 4.218h-1.595v-3.939c0-.831-.198-1.278-1.098-1.278-.249 0-.623.065-.915.212.049.217.073.445.082.682l.004.24V101h-1.595v-3.939c0-.817-.19-1.278-1.065-1.278-.274 0-.62.072-.818.17-.021.194-.033.419-.037.64l-.002.22V101h-1.591v-4.688c0-.435.018-.806.054-1.217.712-.381 1.72-.594 2.714-.594.706 0 1.203.137 1.548.368.576-.22 1.278-.368 1.959-.368zm32.814 4.339v-.954l-.6.031c-.305.02-.612.05-.88.113-.562.133-.778.317-.778.99 0 .677.389.853 1.088.853.356 0 .784-.025 1.13-.173.022-.194.033-.419.037-.64l.003-.22zm-8.05-3.079c-.223 0-.495.037-.73.094l-.167.047v2.902c0 .288.01.601.04.86.237.112.644.17.997.17 1.31 0 1.422-.913 1.429-1.911l-.004-.522c-.025-.963-.212-1.64-1.566-1.64zm-18.14-.007c-.352 0-.76.058-1 .17-.022.194-.033.419-.038.64l-.002.22v2.902c.263.083.62.14.9.14 1.354 0 1.541-.676 1.566-1.64l.004-.52-.005-.259c-.03-.892-.227-1.653-1.424-1.653zm11.363.033c-.966 0-1.244.37-1.266 1.811l-.001.194c0 1.61.26 2.005 1.267 2.005.97 0 1.255-.41 1.277-1.816l.001-.189c0-1.552-.266-2.005-1.278-2.005zm-28.547 0c-1.008 0-1.267.403-1.267 2.005l.005.378c.043 1.295.338 1.627 1.262 1.627 1.012 0 1.278-.446 1.278-2.005l-.006-.365c-.043-1.26-.345-1.64-1.272-1.64zm60.933-.062c-1.124 0-1.32.67-1.335 1.604l-.001.135 1.102-.054c.417-.021 1.065-.075 1.44-.126.01-.072.014-.183.014-.255 0-.843-.313-1.304-1.22-1.304z"/>
        <g transform="translate(261 136)">
            <use fill="#000" filter="url(#prefix__a)" xlink:href="#prefix__b"/>
            <use fill="#FFF" xlink:href="#prefix__b"/>
            <path fill="#002473" d="M4 40c0 22.091 17.909 40 40 40 10.028 0 19.194-3.69 26.214-9.787C62.88 78.66 52.064 84 40 84 17.909 84 0 66.091 0 44c0-12.062 5.34-22.878 13.784-30.212C7.689 20.808 4 29.973 4 40z"/>
            <circle cx="44" cy="40" r="40" fill="#E30425"/>
            <path fill="#FF003C" d="M75.645 64.503c5.253-6.77 8.381-15.271 8.381-24.503 0-22.091-17.909-40-40-40-9.197 0-17.67 3.104-24.426 8.321C26.795 15.74 66.9 56 75.645 64.503z"/>
            <path fill="#FFF" d="M55.774 25.472c.824-.824 2.44-.541 3.612.63 1.123 1.123 1.43 2.655.728 3.505l-.097.107-10.531 10.53 10.53 10.53c.824.824.542 2.44-.63 3.612-1.171 1.172-2.788 1.454-3.612.63l-10.53-10.53-10.53 10.53c-.789.79-2.307.564-3.463-.488l-.149-.142c-1.123-1.122-1.429-2.654-.727-3.505l.097-.107L41 40.244l-10.53-10.53c-.823-.823-.54-2.44.631-3.612 1.172-1.171 2.789-1.454 3.612-.63L45.244 36l10.53-10.53z"/>
            <path fill="#8F1100" d="M44 4c19.882 0 36 16.118 36 36S63.882 76 44 76 8 59.882 8 40 24.118 4 44 4zm0 2C25.222 6 10 21.222 10 40s15.222 34 34 34 34-15.222 34-34S62.778 6 44 6z"/>
        </g>
    </g>
</svg>
