<?xml version="1.0" encoding="UTF-8"?>
<svg width="436px" height="302px" viewBox="0 0 436 302" version="1.1" xmlns="http://www.w3.org/2000/svg" xmlns:xlink="http://www.w3.org/1999/xlink">
    <!-- Generator: Sketch 64 (93537) - https://sketch.com -->
    <title>scenes/a/sc_atm_paper_none</title>
    <desc>Created with Sketch.</desc>
    <defs>
        <circle id="path-1" cx="40" cy="44" r="40"></circle>
        <filter x="-19.4%" y="-18.1%" width="138.8%" height="138.8%" filterUnits="objectBoundingBox" id="filter-2">
            <feMorphology radius="0.5" operator="erode" in="SourceAlpha" result="shadowSpreadOuter1"></feMorphology>
            <feOffset dx="0" dy="2" in="shadowSpreadOuter1" result="shadowOffsetOuter1"></feOffset>
            <feGaussianBlur stdDeviation="2" in="shadowOffsetOuter1" result="shadowBlurOuter1"></feGaussianBlur>
            <feColorMatrix values="0 0 0 0 0.321568627   0 0 0 0 0.439215686   0 0 0 0 0.580392157  0 0 0 0.2 0" type="matrix" in="shadowBlurOuter1" result="shadowMatrixOuter1"></feColorMatrix>
            <feOffset dx="0" dy="1" in="SourceAlpha" result="shadowOffsetOuter2"></feOffset>
            <feGaussianBlur stdDeviation="5" in="shadowOffsetOuter2" result="shadowBlurOuter2"></feGaussianBlur>
            <feColorMatrix values="0 0 0 0 0.321568627   0 0 0 0 0.439215686   0 0 0 0 0.580392157  0 0 0 0.12 0" type="matrix" in="shadowBlurOuter2" result="shadowMatrixOuter2"></feColorMatrix>
            <feOffset dx="0" dy="4" in="SourceAlpha" result="shadowOffsetOuter3"></feOffset>
            <feGaussianBlur stdDeviation="2.5" in="shadowOffsetOuter3" result="shadowBlurOuter3"></feGaussianBlur>
            <feColorMatrix values="0 0 0 0 0.321568627   0 0 0 0 0.439215686   0 0 0 0 0.580392157  0 0 0 0.14 0" type="matrix" in="shadowBlurOuter3" result="shadowMatrixOuter3"></feColorMatrix>
            <feMerge>
                <feMergeNode in="shadowMatrixOuter1"></feMergeNode>
                <feMergeNode in="shadowMatrixOuter2"></feMergeNode>
                <feMergeNode in="shadowMatrixOuter3"></feMergeNode>
            </feMerge>
        </filter>
    </defs>
    <g id="1.ATM_retiro_k3a" stroke="none" stroke-width="1" fill="none" fill-rule="evenodd">
        <g id="1.1.0.2.ATM_Retiro_K3A" transform="translate(-294.000000, -58.000000)">
            <g id="scenes/a/sc_atm_paper_none" transform="translate(278.000000, 48.000000)">
                <g id="scene" transform="translate(16.000000, 10.000000)">
                    <g>
                        <path d="M51.1562727,146.853832 L50.0078745,147.84156 L48.4748972,149.221248 C30.2414307,166.007116 21.5765886,186.857028 21.3299901,208.549139 C3.16229519,189.442676 -4.58622312,167.647704 2.74314199,145.830274 C3.53495387,143.473275 4.43010531,141.236115 5.42521967,139.110514 L7.8502432,138.79729 C25.0841375,136.79323 39.0861128,140.066921 51.1562727,146.853832 Z" id="fill" fill="#0035B6"></path>
                        <path d="M217.5,286 L222.731904,286.004276 C307.847262,286.143604 376,289.670088 376,294 C376,298.418278 305.037133,302 217.5,302 L212.268096,301.995724 C127.152738,301.856396 59,298.329912 59,294 C59,289.581722 129.962867,286 217.5,286 Z M343,53 C347.418278,53 351,56.581722 351,61 L351,103 C351,107.418278 347.418278,111 343,111 L89,111 C84.581722,111 81,107.418278 81,103 L81,61 C81,56.581722 84.581722,53 89,53 L343,53 Z" id="fill" fill="#002473"></path>
                        <path d="M225.840376,164.049839 C304.806411,175.977681 366.76921,155.016237 393.462775,193.793795 C368.912428,220.420935 334.033266,243.175631 289.641524,256.80206 C184.256713,289.150838 68.1699815,257.803877 21.3299901,208.549139 C21.5765886,186.857028 30.2414307,166.007116 48.4748972,149.221248 C99.4962227,102.250629 158.306385,153.84881 225.840376,164.049839 Z M349,45 C353.418278,45 357,48.581722 357,53 L357,95 C357,99.418278 353.418278,103 349,103 L95,103 C90.581722,103 87,99.418278 87,95 L87,53 C87,48.581722 90.581722,45 95,45 L349,45 Z" id="fill" fill="#0246C6"></path>
                        <path d="M51.1562727,146.853832 C87.3318597,167.194945 106.154598,219.094136 142.625903,255.046685 C146.872321,259.232703 151.149823,263.214675 155.429597,267.019324 C97.9830028,259.222901 48.233876,236.840003 21.3299901,208.549139 C21.5765886,186.857028 30.2414307,166.007116 48.4748972,149.221248 L50.0078745,147.84156 L51.1562727,146.853832 Z M349,45 C353.334914,45 356.864543,48.4478378 356.996193,52.7508207 L357,53 L357,95 C357,99.3349143 353.552162,102.864543 349.249179,102.996193 L349,103 L262.167907,103 L204.172593,45 L349,45 Z" id="fill" fill="#0050DA"></path>
                        <path d="M389.641606,13.0371305 C452.504331,51.6944742 449.763845,134.546789 391.549575,195.849801 C392.189065,195.165218 392.829358,194.480796 393.462775,193.793795 C366.76921,155.016237 304.806411,175.977681 225.840376,164.049839 C159.674655,154.055487 101.882847,104.324442 51.5856444,146.486528 L51.1562727,146.853832 C39.2718076,140.171335 25.5145102,136.89479 8.64336358,138.708536 L7.8502432,138.79729 L5.42607932,139.108678 C17.6399791,113.021635 44.9111813,103.738462 80.9972749,95.9545723 L81,103 C81,107.334914 84.4478378,110.864543 88.7508207,110.996193 L89,111 L343,111 C347.334914,111 350.864543,107.552162 350.996193,103.249179 L351,103 L351.000358,102.747873 C354.368481,101.880811 356.878091,98.8754261 356.995687,95.2652187 L357,95 L357,53 C357,48.6650857 353.552162,45.1354571 349.249179,45.0038068 L349,45 L240.322312,45.0012027 C292.072014,15.083252 337.060377,-19.2976224 389.641606,13.0371305 Z M339,60 C343.418278,60 347,63.581722 347,68 L347,80 C347,84.418278 343.418278,88 339,88 L105,88 C100.581722,88 97,84.418278 97,80 L97,68 C97,63.581722 100.581722,60 105,60 L339,60 Z" id="fill" fill="#002B9E"></path>
                        <rect id="fill" fill="#001F5A" x="102" y="71" width="240" height="6" rx="3"></rect>
                        <circle id="circle" fill="#0066F2" cx="146.5" cy="30.5" r="3.5"></circle>
                        <circle id="circle" fill="#ACD3FF" cx="74" cy="258" r="2"></circle>
                        <circle id="circle" fill="#419DFF" cx="398" cy="93" r="5"></circle>
                        <path d="M126.952495,50.000316 L317.047505,50.000316 L316.881201,50.0088935 C315.242874,50.1347672 306.191379,51.9297652 306.002984,76.2251245 L306,76.99985 L306,238 L171,238 L138,205 L138,76.99985 C138,50.924735 127.989552,50.0237335 126.952495,50.000316 Z" id="fill" fill="#F2F8FF"></path>
                        <path d="M137.955658,74 L114,74 L114,74 C115.941594,74 118.59692,70.3710994 118.700304,64.8925523 L118.703419,64.5616341 C118.703419,58.9808468 120.867016,50.2572559 127.326453,50.0055704 C127.426189,49.9779998 127.522112,49.9761431 127.614222,50 C133.889648,51.6253662 137.506714,60.0792236 137.955658,74 Z M171,205 C167.766929,217.568771 167.766929,228.568771 171,238 C163.120102,234.509628 156.511978,230.096268 151.175629,224.759918 C145.839279,219.423569 141.447403,212.836929 138,205 C148.182385,208.525581 159.182385,208.525581 171,205 Z M316.341436,50 C316.433546,49.9761431 316.529469,49.9779998 316.629205,50.0055704 C322.895823,50.2497429 325.119241,58.4675845 325.246399,64.0537697 L325.255354,64.8925523 C325.356628,70.2592924 327.906746,73.8511112 329.835921,73.9954809 L329.955658,74 L306,74 C306.448944,60.0792236 310.06601,51.6253662 316.341436,50 Z" id="fill" fill="#CAD5E3"></path>
                        <path d="M258.204735,77.6699422 C258.204735,77.6699422 258.124226,78.0630265 258.476542,78.0955593 C258.654695,78.1014298 258.844115,78.1014298 259.043158,78.1014298 C260.313467,78.1014298 261.47557,77.6205315 261.501624,76.4393218 C261.525565,75.3924016 260.621186,75.0768579 259.531377,75.0768579 L258.762432,75.0768579 L258.204735,77.6699422 Z M263.96807,76.4970491 C263.96807,78.0637603 262.691189,80.1306938 258.274917,79.876302 C257.757357,79.8462153 257.439311,79.8021859 256.972451,79.6840405 C255.308984,79.2623371 255.894143,77.240656 255.894143,77.240656 L257.586715,69.4173738 C258.518088,69.2610696 259.562595,69.1661619 260.635504,69.1661619 C262.9975,69.1661619 264.562618,70.034274 264.562618,71.6589571 C264.562618,73.1801712 263.137159,74.0069446 262.058147,74.194314 C262.913235,74.2601134 263.96807,74.9398777 263.96807,76.4970491 Z M259.649677,70.9828619 L259.222719,72.9984278 C259.222719,72.9984278 259.116626,73.4299155 259.47833,73.4299155 L259.976408,73.4299155 C261.257749,73.4299155 262.145228,72.9128152 262.167527,72.0018968 C262.1856,71.2504625 261.557487,70.9248899 260.665548,70.9248899 C260.257838,70.9248899 259.829707,70.953509 259.649677,70.9828619 Z M274.766683,79.9045297 L273.364696,79.9045297 L275.587737,69.4754436 C276.507138,69.2540738 277.474892,69.2102891 278.595684,69.2200734 C281.331355,69.2313253 282.585469,70.3093107 282.585469,72.1883856 C282.585469,73.9101779 281.269624,76.4435779 277.485924,76.4435779 C277.0984,76.4435779 276.765096,76.3978363 276.524508,76.381203 C276.524508,76.381203 276.216319,77.8312364 276.033002,78.6856504 C275.802037,79.7582544 275.125337,79.9045297 274.766683,79.9045297 Z M277.807961,71.0587881 L277.189941,73.9666822 C277.189941,73.9666822 276.990663,74.5848054 277.702102,74.5848054 C277.789887,74.5887191 277.885184,74.5914098 277.990104,74.5914098 C279.580573,74.5786902 280.397401,73.4977696 280.397401,72.3786902 C280.397401,71.2777118 279.667419,71.0069313 278.788625,71.0069313 C278.339838,71.0069313 278.003014,71.028946 277.807961,71.0587881 Z M267.814957,75.2969313 C267.814957,76.9431399 268.73248,77.995686 270.306518,77.995686 C270.954582,77.995686 271.662735,77.8824327 272.617814,77.1525239 L272.243434,78.9058706 C272.243434,78.9058706 272.139453,79.4875473 271.519086,79.7135646 C271.01514,79.9104736 270.483498,80 269.677701,80 C267.433066,80 265.242651,78.8483878 265.242651,75.436113 C265.242651,72.2442295 267.205387,69 270.99425,69 C271.737611,69 272.263151,69.109095 272.936096,69.3353569 C273.973796,69.6841672 274.099841,70.2697576 274.031068,70.6207694 C273.960887,70.9800978 273.716073,71.8435624 273.716073,71.8435624 C273.063314,71.2359573 271.926327,71.0649767 271.294223,71.0649767 C268.872374,71.0649767 267.814957,73.5993551 267.814957,75.2969313 Z M289.501512,72.7868913 C289.577796,72.8947632 290.483349,74.0693685 289.649386,75.4582499 C288.736557,76.9779964 286.245464,78.7103069 285.539659,78.9700801 C284.167012,79.5686346 283.237752,78.4586057 283.158416,78.3421726 C282.902336,77.998499 282.840135,77.9258506 282.716202,77.6751279 C282.692026,77.7167111 285.351413,76.4276295 286.30391,74.7598955 C287.335743,73.3274739 287.425641,70.5176673 286.298746,69.9893151 C286.639561,70.1681232 287.442541,70.6485324 288.167124,71.3214476 C288.890064,71.9601179 289.515126,72.797654 289.501512,72.7868913 Z M286.34044,73.9342962 C285.493568,72.9773916 284.60022,72.3988948 283.940655,72.0691639 C283.940655,72.0691639 283.619322,71.9030754 283.451496,71.8076785 C283.696075,71.2348076 284.017878,70.8255793 284.017878,70.8255793 C284.063414,70.7636936 285.038209,69.5700089 285.895644,69.9892662 C286.83218,70.4283367 286.927477,72.443658 286.34044,73.9342962 Z M254.785473,72.7868913 C254.861758,72.8947632 255.76731,74.0693685 254.933347,75.4582499 C254.020518,76.9779964 251.529426,78.7103069 250.823621,78.9700801 C249.450973,79.5686346 248.521713,78.4586057 248.442378,78.3421726 C248.186297,77.998499 248.124096,77.9258506 248.000164,77.6751279 C247.975988,77.7167111 250.635374,76.4276295 251.587872,74.7598955 C252.619704,73.3274739 252.709602,70.5176673 251.582708,69.9893151 C251.923522,70.1681232 252.726502,70.6485324 253.451085,71.3214476 C254.174026,71.9601179 254.799087,72.797654 254.785473,72.7868913 Z M251.624402,73.9342962 C250.777529,72.9773916 249.884182,72.3988948 249.224616,72.0691639 C249.224616,72.0691639 248.903283,71.9030754 248.735458,71.8076785 C248.980037,71.2348076 249.301839,70.8255793 249.301839,70.8255793 C249.347375,70.7636936 250.322171,69.5700089 251.179606,69.9892662 C252.116142,70.4283367 252.211439,72.443658 251.624402,73.9342962 Z" id="fill" fill="#8497B0"></path>
                        <path d="M218,184 L218,188 L154,188 L154,184 L218,184 Z M290,184 L290,188 L271,188 L271,184 L290,184 Z M218,172 L218,176 L154,176 L154,172 L218,172 Z M290,172 L290,176 L271,176 L271,172 L290,172 Z M271,152 L271,156 L173,156 L173,152 L271,152 Z M290,140 L290,144 L154,144 L154,140 L290,140 Z M271,128 L271,132 L173,132 L173,128 L271,128 Z M217.072685,106.501345 C219.2077,106.501345 220.107791,107.275423 220.107791,109.795677 C220.107791,112.279927 219.229302,113.086409 217.256303,113.086409 C216.964674,113.086409 216.638616,113.056031 216.331291,113.005907 L216.03218,112.949595 L216.03218,115.361838 L214.437219,115.361838 L214.437219,108.312328 C214.437219,107.876684 214.451621,107.505847 214.491225,107.095405 C215.211297,106.674163 216.201397,106.501345 217.072685,106.501345 Z M241.177095,106.501345 C243.290508,106.501345 244.053785,107.430239 244.053785,109.792077 C244.053785,112.161115 243.290508,113.086409 241.177095,113.086409 C239.067283,113.086409 238.304006,112.189918 238.304006,109.792077 C238.304006,107.401436 239.067283,106.501345 241.177095,106.501345 Z M234.754053,106.501345 C235.554233,106.501345 236.142161,106.564745 236.812096,106.703606 L237.105089,106.767772 L236.953874,107.93429 C236.446223,107.83348 235.902568,107.747071 235.32651,107.747071 L235.125839,107.748294 C234.638278,107.756466 234.048381,107.819078 234.048381,108.297926 C234.048381,108.822139 234.6286,108.941767 235.13041,109.098822 L235.644332,109.270997 C236.523546,109.573904 237.198699,109.899775 237.198699,111.145813 C237.198699,112.665166 236.089787,113.086409 234.671244,113.086409 C234.044781,113.086409 233.299286,113.012344 232.681892,112.880086 L232.385014,112.809181 L232.536229,111.621061 C233.015077,111.71107 233.785555,111.815481 234.282405,111.815481 L234.477802,111.815017 C234.959161,111.809799 235.582136,111.754275 235.582136,111.199819 C235.582136,110.591357 235.009678,110.533752 234.476825,110.371735 L234.086718,110.249092 C233.228336,109.964921 232.460622,109.568541 232.460622,108.366333 C232.460622,106.918987 233.472323,106.501345 234.754053,106.501345 Z M228.431821,106.501345 C230.772056,106.501345 231.254505,107.729069 231.254505,109.669665 C231.254505,109.838882 231.247304,110.011699 231.232903,110.184516 C230.575117,110.304408 229.357402,110.430133 228.477394,110.4882 L227.142891,110.558954 C227.200497,111.559855 227.73335,111.80468 228.658644,111.80468 C229.275849,111.80468 229.854478,111.760594 230.374851,111.705224 L230.970076,111.635463 L231.10329,112.841584 L230.712492,112.903675 C230.09257,112.997233 229.314892,113.086409 228.298607,113.086409 C226.123988,113.086409 225.555131,111.693068 225.555131,109.792077 C225.555131,107.466243 226.286005,106.501345 228.431821,106.501345 Z M224.078985,106.501345 C224.235001,106.501345 224.381416,106.506146 224.522497,106.515747 L224.730651,106.533749 L224.601038,107.815478 C224.467825,107.797476 224.302208,107.790275 224.140192,107.790275 C223.765754,107.790275 223.32651,107.858682 223.074484,107.988295 C223.052882,108.182715 223.041406,108.407512 223.037018,108.629272 L223.03488,108.848782 L223.03488,113 L221.44712,113 L221.44712,108.312328 C221.44712,107.876684 221.461522,107.505847 221.501126,107.095405 C222.221198,106.674163 223.211298,106.501345 224.078985,106.501345 Z M210.448025,106.501345 C212.429466,106.501345 212.779724,107.531743 212.801524,108.782385 L212.802662,113 L211.207702,113 L211.207702,109.061203 C211.207702,108.229519 211.009682,107.783074 210.109591,107.783074 C209.861166,107.783074 209.486728,107.847881 209.195099,107.995496 C209.243704,108.211518 209.268006,108.439691 209.27712,108.676977 L209.281508,108.917189 L209.281508,113 L207.686547,113 L207.686547,109.061203 C207.686547,108.243921 207.495728,107.783074 206.620839,107.783074 C206.347212,107.783074 206.001577,107.855082 205.803557,107.952292 C205.781955,108.146711 205.770479,108.371509 205.766091,108.593269 L205.763953,108.812778 L205.763953,113 L204.172593,113 L204.172593,108.312328 C204.172593,107.876684 204.190595,107.505847 204.226598,107.095405 C204.93947,106.713767 205.947572,106.501345 206.941272,106.501345 C207.646943,106.501345 208.143793,106.638159 208.489428,106.868582 C209.065486,106.64896 209.767556,106.501345 210.448025,106.501345 Z M202.458823,104.611155 L202.458823,113 L200.752251,113 L200.752251,104.611155 L202.458823,104.611155 Z M217.072685,107.754272 C216.719849,107.754272 216.313008,107.811877 216.071784,107.923489 C216.050182,108.117908 216.038706,108.342706 216.034318,108.564466 L216.03218,108.783975 L216.03218,111.685868 C216.295006,111.768676 216.651442,111.826282 216.932271,111.826282 C218.462425,111.826282 218.502029,110.962195 218.502029,109.795677 L218.500033,109.53542 C218.482752,108.589256 218.326811,107.754272 217.072685,107.754272 Z M241.177095,107.786675 C240.168994,107.786675 239.909768,108.189915 239.909768,109.792077 L239.915452,110.169613 C239.958172,111.464695 240.253002,111.797479 241.177095,111.797479 C242.188797,111.797479 242.455224,111.351034 242.455224,109.792077 L242.449396,109.426642 C242.405644,108.167863 242.104489,107.786675 241.177095,107.786675 Z M228.431821,107.725469 C227.361531,107.725469 227.13331,108.332472 227.10066,109.197533 L227.096086,109.464444 L228.197797,109.410438 C228.615439,109.388836 229.263505,109.334831 229.637942,109.284426 C229.648743,109.212418 229.652344,109.100807 229.652344,109.0288 C229.652344,108.186315 229.339112,107.725469 228.431821,107.725469 Z M212.370615,94.5013453 C214.50563,94.5013453 215.40572,95.2754233 215.40572,97.7956772 C215.40572,100.279927 214.527232,101.086409 212.554233,101.086409 C212.262604,101.086409 211.936546,101.056031 211.629221,101.005907 L211.33011,100.949595 L211.33011,103.361838 L209.735149,103.361838 L209.735149,96.3123278 C209.735149,95.8766839 209.749551,95.5058465 209.789155,95.0954052 C210.509227,94.6741628 211.499327,94.5013453 212.370615,94.5013453 Z M189.11589,92.5247462 C189.896768,92.5247462 190.58946,92.6100882 191.118106,92.7327277 L191.308511,92.780372 L191.157295,94.0945044 C190.60644,94.0044953 190.026781,93.9504899 189.429121,93.9504899 C187.412918,93.9504899 187.376914,95.1566114 187.376914,96.8055775 L187.379744,97.2879685 C187.402621,98.6895393 187.608058,99.6606651 189.429121,99.6606651 C189.901489,99.6606651 190.376161,99.6261016 190.823642,99.5661916 L191.153695,99.5166506 L191.308511,100.834383 C190.761255,100.981998 189.990778,101.086409 189.11589,101.086409 C186.329209,101.086409 185.64154,99.7830774 185.64154,96.8055775 L185.64782,96.3368336 C185.722383,93.6877633 186.483246,92.5247462 189.11589,92.5247462 Z M195.186096,94.5013453 C197.299509,94.5013453 198.062786,95.4302389 198.062786,97.7920768 C198.062786,100.161115 197.299509,101.086409 195.186096,101.086409 C193.076284,101.086409 192.313007,100.189918 192.313007,97.7920768 C192.313007,95.401436 193.076284,94.5013453 195.186096,94.5013453 Z M223.733351,94.5013453 C225.846764,94.5013453 226.610041,95.4302389 226.610041,97.7920768 C226.610041,100.161115 225.846764,101.086409 223.733351,101.086409 C221.623538,101.086409 220.860261,100.189918 220.860261,97.7920768 C220.860261,95.401436 221.623538,94.5013453 223.733351,94.5013453 Z M229.612738,92.1107045 L229.612738,94.6381591 C229.994376,94.5553508 230.448022,94.5013453 230.836861,94.5013453 C232.80986,94.5013453 233.684748,95.3078266 233.684748,97.7920768 C233.684748,100.312331 232.788258,101.086409 230.649643,101.086409 C229.781955,101.086409 228.788255,100.913591 228.068182,100.492349 C228.04118,100.184518 228.024303,99.8989641 228.017552,99.5916394 L228.014177,99.2754263 L228.014177,92.1107045 L229.612738,92.1107045 Z M237.504728,94.5013453 C238.881133,94.5013453 240.033852,94.8719308 240.11735,96.3846912 L240.122192,96.5643532 L240.122192,99.2754263 C240.122192,99.7110702 240.10419,100.081908 240.068186,100.492349 C239.326511,100.924392 238.361614,101.086409 237.202297,101.086409 C235.430919,101.086409 234.732449,100.398739 234.732449,99.0414027 C234.732449,97.9072885 235.229299,97.2052177 236.507427,97.0035974 C237.177095,96.8955865 237.853963,96.870384 238.559634,96.8415811 C238.559634,96.1035067 238.2176,95.768673 237.382316,95.768673 C236.71882,95.768673 236.005067,95.8295118 235.406567,95.8990418 L235.117687,95.9342897 L234.988074,94.74617 C235.661342,94.6309584 236.561433,94.5013453 237.504728,94.5013453 Z M250.905268,92.7767716 L250.905268,94.5877541 L252.194198,94.5877541 L252.194198,95.8010763 L250.905268,95.8010763 L250.905268,99.1170103 C250.905268,99.649864 251.12849,99.858685 251.664944,99.858685 L251.933621,99.8532845 L251.933621,99.8532845 L252.204999,99.8370829 L252.327411,100.974797 C251.985376,101.036004 251.571335,101.086409 251.2293,101.086409 C249.940534,101.086409 249.363636,100.548407 249.313853,99.441091 L249.310307,99.2790266 L249.310307,95.8010763 L248.262601,95.8010763 L248.262601,94.5877541 L249.310307,94.5877541 L249.310307,93.0359977 L250.905268,92.7767716 Z M256.118589,94.5013453 C258.458825,94.5013453 258.941274,95.729069 258.941274,97.6696645 C258.941274,97.8388816 258.934073,98.011699 258.919672,98.1845164 C258.261885,98.3044085 257.044171,98.4301331 256.164163,98.4881998 L254.82966,98.5589541 C254.887265,99.5598549 255.420119,99.8046796 256.345412,99.8046796 C256.962617,99.8046796 257.541247,99.7605935 258.06162,99.7052235 L258.656845,99.6354625 L258.790059,100.841584 L258.399261,100.903675 C257.779339,100.997233 257.00166,101.086409 255.985376,101.086409 C253.810757,101.086409 253.2419,99.6930683 253.2419,97.7920768 C253.2419,95.4662425 253.972773,94.5013453 256.118589,94.5013453 Z M244.633441,94.5013453 C246.864346,94.5013453 247.170849,95.4669106 247.188803,96.7801242 L247.189699,101 L245.598338,101 L245.598338,97.0612032 L245.592596,96.8058151 C245.555818,96.086333 245.32219,95.7827144 244.32741,95.7794741 C243.978175,95.7794741 243.574934,95.8406803 243.337311,95.9522915 C243.315708,96.1467111 243.304232,96.3715087 243.299844,96.5932686 L243.297707,96.8127782 L243.297707,101 L241.706346,101 L241.706346,96.3123278 C241.706346,95.8766839 241.724348,95.5058465 241.760352,95.0954052 C242.512827,94.6957649 243.499327,94.5013453 244.633441,94.5013453 Z M219.376915,94.5013453 C219.532931,94.5013453 219.679346,94.5061458 219.820427,94.5157468 L220.028581,94.5337486 L219.898968,95.8154777 C219.765754,95.7974759 219.600138,95.7902752 219.438121,95.7902752 C219.063684,95.7902752 218.624439,95.8586821 218.372414,95.9882951 C218.350812,96.1827147 218.339336,96.4075124 218.334948,96.6292722 L218.33281,96.8487818 L218.33281,101 L216.74505,101 L216.74505,96.3123278 C216.74505,95.8766839 216.759452,95.5058465 216.799056,95.0954052 C217.519128,94.6741628 218.509228,94.5013453 219.376915,94.5013453 Z M205.745955,94.5013453 C207.727396,94.5013453 208.077654,95.5317426 208.099454,96.7823854 L208.100592,101 L206.505631,101 L206.505631,97.0612032 C206.505631,96.2295194 206.307611,95.7830745 205.407521,95.7830745 C205.159096,95.7830745 204.784658,95.847881 204.493029,95.9954959 C204.541633,96.2115176 204.565936,96.4396906 204.575049,96.676977 L204.579437,96.9171887 L204.579437,101 L202.984477,101 L202.984477,97.0612032 C202.984477,96.2439209 202.793657,95.7830745 201.918769,95.7830745 C201.645142,95.7830745 201.299507,95.8550817 201.101487,95.9522915 C201.079885,96.1467111 201.068409,96.3715087 201.064021,96.5932686 L201.061883,96.8127782 L201.061883,101 L199.470523,101 L199.470523,96.3123278 C199.470523,95.8766839 199.488524,95.5058465 199.524528,95.0954052 C200.2374,94.7137667 201.245501,94.5013453 202.239202,94.5013453 C202.944873,94.5013453 203.441723,94.6381591 203.787358,94.8685823 C204.363416,94.6489602 205.065486,94.5013453 205.745955,94.5013453 Z M238.559634,98.8397824 L238.559634,97.8856863 L237.960476,97.9171966 C237.654503,97.9368114 237.347752,97.9670545 237.079885,98.0297008 C236.518229,98.1629142 236.302207,98.3465327 236.302207,99.0198005 C236.302207,99.6966687 236.691046,99.8730865 237.389516,99.8730865 C237.745952,99.8730865 238.174395,99.8478839 238.52003,99.7002691 C238.541632,99.5058495 238.553109,99.2810518 238.557496,99.059292 L238.559634,98.8397824 Z M230.509228,95.7614723 C230.287446,95.7614723 230.014971,95.79834 229.780285,95.855485 L229.612738,95.9018864 L229.612738,98.8037788 C229.612738,99.0918078 229.623539,99.4050393 229.652342,99.6642654 C229.889966,99.7758767 230.296807,99.8334825 230.649643,99.8334825 C231.960775,99.8334825 232.071617,98.9208656 232.078578,97.9226908 L232.075176,97.4012245 C232.050003,96.4376587 231.862826,95.7614723 230.509228,95.7614723 Z M212.370615,95.7542716 C212.017779,95.7542716 211.610938,95.8118774 211.369714,95.9234886 C211.348112,96.1179082 211.336635,96.3427058 211.332248,96.5644657 L211.33011,96.7839753 L211.33011,99.6858676 C211.592936,99.768676 211.949372,99.8262818 212.2302,99.8262818 C213.583798,99.8262818 213.770975,99.1500953 213.796148,98.1865296 L213.79955,97.6650633 L213.794656,97.4071545 C213.764236,96.5150732 213.567735,95.7542716 212.370615,95.7542716 Z M223.733351,95.7866748 C222.767254,95.7866748 222.488926,96.1570121 222.467409,97.5979935 L222.466023,97.7920768 C222.466023,99.401439 222.725249,99.7974789 223.733351,99.7974789 C224.702899,99.7974789 224.987984,99.3874626 225.010057,97.9812003 L225.01148,97.7920768 C225.01148,96.2403205 224.745053,95.7866748 223.733351,95.7866748 Z M195.186096,95.7866748 C194.177995,95.7866748 193.918768,96.1899154 193.918768,97.7920768 L193.924452,98.1696128 C193.967173,99.4646953 194.262003,99.7974789 195.186096,99.7974789 C196.197798,99.7974789 196.464225,99.3510339 196.464225,97.7920768 L196.458397,97.4266421 C196.414645,96.1678632 196.11349,95.7866748 195.186096,95.7866748 Z M256.118589,95.7254687 C254.994785,95.7254687 254.799361,96.3946898 254.783918,97.3291837 L254.782855,97.4644438 L255.884566,97.4104384 C256.302208,97.3888362 256.950273,97.3348308 257.324711,97.2844257 C257.335512,97.2124185 257.339112,97.1008072 257.339112,97.0288 C257.339112,96.1863151 257.025881,95.7254687 256.118589,95.7254687 Z" id="fill" fill="#B3C0D2"></path>
                    </g>
                    <g id="status" transform="translate(261.000000, 136.000000)">
                        <g id="depth">
                            <use fill="black" fill-opacity="1" filter="url(#filter-2)" xlink:href="#path-1"></use>
                            <use fill="#FFFFFF" fill-rule="evenodd" xlink:href="#path-1"></use>
                        </g>
                        <circle id="circle" fill="#FFCB1F" cx="44" cy="40" r="40"></circle>
                        <path d="M75.6449758,64.5028235 C80.8983853,57.7335321 84.0259636,49.2320086 84.0259636,40 C84.0259636,17.90861 66.1173536,-1.13686838e-13 44.0259636,-1.13686838e-13 C34.828862,-1.13686838e-13 26.3567318,3.1039718 19.6,8.32148846 C26.7954949,15.7387695 66.9002312,56.0000123 75.6449758,64.5028235 Z" id="fill" fill="#FFE141"></path>
                        <path d="M44,20 C55.045695,20 64,28.954305 64,40 C64,51.045695 55.045695,60 44,60 C32.954305,60 24,51.045695 24,40 C24,34.6956702 26.1071368,29.6085919 29.8578644,25.8578644 C33.6085919,22.1071368 38.6956702,20 44,20 Z M60.0000366,40 C60.0000366,31.163444 52.836556,23.9999634 44,23.9999634 C40.44669,23.9955812 36.9950905,25.1860308 34.2,27.38 L56.62,49.8 C58.8139692,47.0049095 60.0044188,43.55331 60.0000366,40 Z M13.7835603,13.7882914 C7.68907388,20.8085637 4,29.9734672 4,40 C4,62.09139 21.90861,80 44,80 C54.0279642,80 63.194053,76.3098727 70.2144356,70.2134491 C62.8795822,78.6598051 52.0634258,84 40,84 C17.90861,84 0,66.09139 0,44 C0,31.9375285 5.33935005,21.122129 13.7835603,13.7882914 Z M31.38,30.2 L53.8,52.62 C51.0049095,54.8139692 47.55331,56.0044188 44,56.0000366 C39.7565362,56.0000366 35.6868736,54.3142906 32.6862915,51.3137085 C29.6857094,48.3131264 27.9999634,44.2434638 27.9999634,40 C27.9957502,36.5833557 29.0962253,33.2607486 31.1313141,30.5253924 L31.38,30.2 Z" id="fill" fill="#002473"></path>
                        <path d="M44,4 C63.882251,4 80,20.117749 80,40 C80,59.882251 63.882251,76 44,76 C24.117749,76 8,59.882251 8,40 C8,20.117749 24.117749,4 44,4 Z M44,6 C25.2223185,6 10,21.2223185 10,40 C10,58.7776815 25.2223185,74 44,74 C62.7776815,74 78,58.7776815 78,40 C78,21.2223185 62.7776815,6 44,6 Z" id="fill" fill="#FFA733"></path>
                    </g>
                </g>
            </g>
        </g>
    </g>
</svg>