<?xml version="1.0" encoding="UTF-8"?>
<svg width="436px" height="356px" viewBox="0 0 436 356" version="1.1" xmlns="http://www.w3.org/2000/svg" xmlns:xlink="http://www.w3.org/1999/xlink">
    <!-- Generator: Sketch 64 (93537) - https://sketch.com -->
    <title>scenes/a/sc_atm_damaged</title>
    <desc>Created with Sketch.</desc>
    <defs>
        <circle id="path-1" cx="40" cy="44" r="40"></circle>
        <filter x="-19.4%" y="-18.1%" width="138.8%" height="138.8%" filterUnits="objectBoundingBox" id="filter-2">
            <feMorphology radius="0.5" operator="erode" in="SourceAlpha" result="shadowSpreadOuter1"></feMorphology>
            <feOffset dx="0" dy="2" in="shadowSpreadOuter1" result="shadowOffsetOuter1"></feOffset>
            <feGaussianBlur stdDeviation="2" in="shadowOffsetOuter1" result="shadowBlurOuter1"></feGaussianBlur>
            <feColorMatrix values="0 0 0 0 0.321568627   0 0 0 0 0.439215686   0 0 0 0 0.580392157  0 0 0 0.2 0" type="matrix" in="shadowBlurOuter1" result="shadowMatrixOuter1"></feColorMatrix>
            <feOffset dx="0" dy="1" in="SourceAlpha" result="shadowOffsetOuter2"></feOffset>
            <feGaussianBlur stdDeviation="5" in="shadowOffsetOuter2" result="shadowBlurOuter2"></feGaussianBlur>
            <feColorMatrix values="0 0 0 0 0.321568627   0 0 0 0 0.439215686   0 0 0 0 0.580392157  0 0 0 0.12 0" type="matrix" in="shadowBlurOuter2" result="shadowMatrixOuter2"></feColorMatrix>
            <feOffset dx="0" dy="4" in="SourceAlpha" result="shadowOffsetOuter3"></feOffset>
            <feGaussianBlur stdDeviation="2.5" in="shadowOffsetOuter3" result="shadowBlurOuter3"></feGaussianBlur>
            <feColorMatrix values="0 0 0 0 0.321568627   0 0 0 0 0.439215686   0 0 0 0 0.580392157  0 0 0 0.14 0" type="matrix" in="shadowBlurOuter3" result="shadowMatrixOuter3"></feColorMatrix>
            <feMerge>
                <feMergeNode in="shadowMatrixOuter1"></feMergeNode>
                <feMergeNode in="shadowMatrixOuter2"></feMergeNode>
                <feMergeNode in="shadowMatrixOuter3"></feMergeNode>
            </feMerge>
        </filter>
    </defs>
    <g id="1.ATM_retiro_k3a" stroke="none" stroke-width="1" fill="none" fill-rule="evenodd">
        <g id="1.12.0.1.ATM_Retiro_K3A" transform="translate(-294.000000, -112.000000)">
            <g id="scenes/a/sc_atm_damaged" transform="translate(278.000000, 104.000000)">
                <g id="scene" transform="translate(16.000000, 8.000000)">
                    <g>
                        <path d="M326.771819,141.7032 C373.022541,156.404033 392.605936,200.734614 383.166275,249.08615 L383.079437,249.512483 C384.968607,240.000106 385.735209,230.640215 385.397121,221.627492 C344.076302,217.245596 293.985374,231.514863 249.073615,270.430047 C220.892625,294.848338 199.170512,324.985307 184.089418,356.007078 C126.696648,355.883833 72.9104311,340.625947 35.79,317.711564 C50.9056659,280.124783 110.956314,270.834953 172.290938,230.100357 C229.186379,192.313987 260.680153,120.695905 326.771819,141.7032 Z" id="fill" fill="#0246C6" transform="translate(210.634587, 246.963539) scale(-1, 1) translate(-210.634587, -246.963539) "></path>
                        <path d="M316,15 C320.334914,15 323.864543,18.4478378 323.996193,22.7508207 L324,23 L324,311 C324,315.334914 320.552162,318.864543 316.249179,318.996193 L316,319 L215.549454,319.000176 C223.843313,330.973244 231.055965,343.414907 237.175242,356.002971 C207.266694,356.065395 176.378564,352.01912 146.358833,342.804304 C107.971862,331.021092 76.6980361,312.412109 53.0650171,290.37688 C40.6976896,267.264675 35.0495842,243.427634 35.8675394,221.622659 C53.6572082,219.73614 73.0724365,221.306657 93.0000873,226.812583 L93,23 C93,18.6650857 96.4478378,15.1354571 100.750821,15.0038068 L101,15 L316,15 Z" id="fill" fill="#0050DA"></path>
                        <path d="M31,272 C33.7614237,272 36,274.238576 36,277 C36,279.761424 33.7614237,282 31,282 C28.2385763,282 26,279.761424 26,277 C26,274.238576 28.2385763,272 31,272 Z M316,15 C320.418278,15 324,18.581722 324,23 L324,196.882812 L142.249023,15 L316,15 Z" id="fill" fill="#0066F2"></path>
                        <path d="M35.8708534,221.58 C35.0528982,243.384975 40.7010036,267.222017 53.0683311,290.334222 C57.1899013,294.177139 61.5438662,297.915848 66.1267652,301.532668 L65.8930376,301.349972 C38.6103958,279.76621 19.4864647,253.850255 9.11,227.425323 C17.4624586,224.552564 26.4378411,222.580376 35.8708534,221.58 Z M291,52 L291,249 L126,249 L126,52 L291,52 Z" id="fill" fill="#0035B6"></path>
                        <path d="M80.0000487,10.0618877 L80,327 L80.0038068,327.249179 C80.1329254,331.469413 83.5305874,334.867075 87.7508207,334.996193 L88,335 L327,335 C327,339.334914 323.552162,342.864543 319.249179,342.996193 L319,343 L81,343 C76.6650857,343 73.1354571,339.552162 73.0038068,335.249179 L73,335 L73,18 C73,13.9203656 76.0537136,10.5539641 80.0000487,10.0618877 Z M274,102 L274,203 L143,203 L143,102 L274,102 Z" id="fill" fill="#002473"></path>
                        <polygon id="fill" fill="#001F5A" points="126 52 143 102 274 102 291 52"></polygon>
                        <path d="M267,265 C271.334914,265 274.864543,268.447838 274.996193,272.750821 L275,273 L275,281 C275,285.334914 271.552162,288.864543 267.249179,288.996193 L267,289 L151,289 C146.665086,289 143.135457,285.552162 143.003807,281.249179 L143,281 L143,273 C143,268.665086 146.447838,265.135457 150.750821,265.003807 L151,265 L267,265 Z M263,272 C265.761424,272 268,274.238576 268,277 C268,279.688755 265.877693,281.881818 263.21689,281.99538 L263,282 L155,282 C152.238576,282 150,279.761424 150,277 C150,274.311245 152.122307,272.118182 154.78311,272.00462 L155,272 L263,272 Z M328,0 C332.334914,0 335.864543,3.44783777 335.996193,7.75082067 L336,8 L336,327 C336,331.334914 332.552162,334.864543 328.249179,334.996193 L328,335 L88,335 C83.6650857,335 80.1354571,331.552162 80.0038068,327.249179 L80,327 L80,8 C80,3.66508574 83.4478378,0.135457134 87.7508207,0.00380682464 L88,0 L328,0 Z M316,15 L101,15 C96.581722,15 93,18.581722 93,23 L93,311 C93,315.418278 96.581722,319 101,319 L316,319 C320.418278,319 324,315.418278 324,311 L324,23 C324,18.581722 320.418278,15 316,15 Z M274,203 L291,249 L126,249 L143,203 L274,203 Z" id="fill" fill="#007BFF"></path>
                        <path d="M266.827407,265 C271.162321,265 274.69195,268.447838 274.8236,272.750821 L274.827407,273 L274.827407,281 C274.827407,285.334914 271.379569,288.864543 267.076586,288.996193 L266.827407,289 L235.7348,289 L211.827407,265 L266.827407,265 Z M328.964586,2.27373675e-13 C333.2995,2.27373675e-13 336.829129,3.44783777 336.960779,7.75082067 L336.964508,8.0353355 L335.955947,236.372559 L323.999555,224.407 L324,23 C324,18.581722 320.418278,15 316,15 L114.756555,15 L99.7685547,2.27373675e-13 L328.964586,2.27373675e-13 Z M366.5,158 C368.432997,158 370,159.567003 370,161.5 C370,163.432997 368.432997,165 366.5,165 C364.567003,165 363,163.432997 363,161.5 C363,159.567003 364.567003,158 366.5,158 Z" id="fill" fill="#419DFF"></path>
                        <path d="M263,272 C265.761424,272 268,274.238576 268,277 C268,279.688755 265.877693,281.881818 263.21689,281.99538 L263,282 L155,282 C152.238576,282 150,279.761424 150,277 C150,274.311245 152.122307,272.118182 154.78311,272.00462 L155,272 L263,272 Z M335.999231,275.793789 L336.001319,178.06658 L341.776565,179.217748 C387.50013,188.39262 421.592089,197.10758 433.256858,231.830274 C443.771383,263.129018 423.255535,294.381541 385.474304,317.704486 C378.361522,300.017765 361.299064,288.596664 338.835038,277.216542 L338.131284,276.860919 L335.999231,275.793789 Z M73.0002371,87.8861841 L72.9981489,151.786183 C49.528972,167.096304 36.9500137,192.552696 35.8622868,221.621841 C26.432007,222.621309 17.4583208,224.593228 9.10656889,227.465269 C-10.2666836,178.1214 0.871367087,127.009313 46.3583938,99.0371305 C55.165667,93.6211103 63.7599168,90.0768453 72.2085977,88.0698467 L73.0002371,87.8861841 Z M274,102 L274,203 L173,102 L274,102 Z" id="fill" fill="#002B9E"></path>
                        <circle id="circle" fill="#ACD3FF" cx="63" cy="62" r="2"></circle>
                        <path d="M160,191 L258,191 C262.418278,191 266,187.418278 266,183 L266,122 C266,117.581722 262.418278,114 258,114 L160,114 C155.581722,114 152,117.581722 152,122 L152,183 C152,187.418278 155.581722,191 160,191 Z" id="fill" fill="#FFD89F"></path>
                        <path d="M185,183.002319 C185,187.195007 187.887573,189.488647 189.701294,190.323792 C212.185425,167.846049 237.618327,142.404785 266,114 L193,114 C188.581722,114 185,117.581722 185,122 C185,142.334106 185,162.668213 185,183.002319 Z" id="fill" fill="#FFE8C7" transform="translate(225.500000, 152.161896) scale(-1, 1) translate(-225.500000, -152.161896) "></path>
                    </g>
                    <g id="status" transform="translate(293.000000, 230.000000)">
                        <g id="depth">
                            <use fill="black" fill-opacity="1" filter="url(#filter-2)" xlink:href="#path-1"></use>
                            <use fill="#FFFFFF" fill-rule="evenodd" xlink:href="#path-1"></use>
                        </g>
                        <path d="M4,40 C4,62.09139 21.90861,80 44,80 C54.0279642,80 63.194053,76.3098727 70.2144356,70.2134491 C62.8795822,78.6598051 52.0634258,84 40,84 C17.90861,84 0,66.09139 0,44 C0,31.9375285 5.33935005,21.122129 13.7835603,13.7882914 C7.68907388,20.8085637 4,29.9734672 4,40 Z" id="fill" fill="#002473"></path>
                        <circle id="circle" fill="#E30425" cx="44" cy="40" r="40"></circle>
                        <path d="M75.6449758,64.5028235 C80.8983853,57.7335321 84.0259636,49.2320086 84.0259636,40 C84.0259636,17.90861 66.1173536,-1.13686838e-13 44.0259636,-1.13686838e-13 C34.828862,-1.13686838e-13 26.3567318,3.1039718 19.6,8.32148846 C26.7954949,15.7387695 66.9002312,56.0000123 75.6449758,64.5028235 Z" id="fill" fill="#FF003C"></path>
                        <path d="M55.7741226,25.4717631 C56.5975548,24.6483309 58.2148259,24.9305547 59.3863988,26.1021276 C60.5091562,27.2248849 60.8151328,28.7569728 60.1139494,29.6074298 L60.0167633,29.7144037 L49.486,40.244 L60.0167633,50.7741226 C60.8401955,51.5975548 60.5579717,53.2148259 59.3863988,54.3863988 C58.2148259,55.5579717 56.5975548,55.8401955 55.7741226,55.0167633 L45.244,44.486 L34.7144037,55.0167633 C33.9252813,55.8058858 32.4070948,55.5795708 31.2508059,54.5281978 L31.1021276,54.3863988 C29.9793702,53.2636415 29.6733936,51.7315536 30.374577,50.8810966 L30.4717631,50.7741226 L41.001,40.244 L30.4717631,29.7144037 C29.6483309,28.8909716 29.9305547,27.2737004 31.1021276,26.1021276 C32.2737004,24.9305547 33.8909716,24.6483309 34.7144037,25.4717631 L45.244,36.001 L55.7741226,25.4717631 Z" id="fill" fill="#FFFFFF"></path>
                        <path d="M44,4 C63.882251,4 80,20.117749 80,40 C80,59.882251 63.882251,76 44,76 C24.117749,76 8,59.882251 8,40 C8,20.117749 24.117749,4 44,4 Z M44,6 C25.2223185,6 10,21.2223185 10,40 C10,58.7776815 25.2223185,74 44,74 C62.7776815,74 78,58.7776815 78,40 C78,21.2223185 62.7776815,6 44,6 Z" id="fill" fill="#8F1100"></path>
                    </g>
                </g>
            </g>
        </g>
    </g>
</svg>