<svg xmlns="http://www.w3.org/2000/svg" width="68" height="68" viewBox="0 0 68 68">
    <g fill="none" fill-rule="evenodd">
        <g>
            <g>
                <path fill="#6AC90F" d="M34 0c18.778 0 34 15.222 34 34S52.778 68 34 68 0 52.778 0 34 15.222 0 34 0zm0 1.172C15.87 1.172 1.172 15.87 1.172 34 1.172 52.13 15.87 66.828 34 66.828c18.13 0 32.828-14.698 32.828-32.828C66.828 15.87 52.13 1.172 34 1.172zm0 7.035c14.245 0 25.793 11.548 25.793 25.793S48.245 59.793 34 59.793 8.207 48.245 8.207 34 19.755 8.207 34 8.207z" transform="translate(-478 -90) translate(478 90)"/>
                <path fill="#FFF" d="M30.097 39.322l-4.62-4.95c-.441-.473-1.183-.498-1.656-.057-.474.442-.5 1.184-.057 1.657l5.47 5.862c.462.495 1.246.497 1.71.005l13.288-14.068c.444-.471.423-1.213-.048-1.658-.47-.444-1.212-.423-1.657.048l-12.43 13.16z" transform="translate(-478 -90) translate(478 90)"/>
            </g>
        </g>
    </g>
</svg>
