<svg width="20" height="20" viewBox="0 0 20 20" fill="none" xmlns="http://www.w3.org/2000/svg">
<path fill-rule="evenodd" clip-rule="evenodd" d="M10 0C15.523 0 20 4.478 20 10C20 15.522 15.523 20 10 20C4.477 20 0 15.522 0 10C0 4.478 4.477 0 10 0ZM10 2C5.589 2 2 5.589 2 10C2 14.411 5.589 18 10 18C14.411 18 18 14.411 18 10C18 5.589 14.411 2 10 2ZM13 12H10C9.447 12 9 11.553 9 11V6C9 5.447 9.447 5 10 5C10.553 5 11 5.447 11 6V10H13C13.553 10 14 10.447 14 11C14 11.553 13.553 12 13 12Z" fill="#E30425"/>
</svg>
