<svg xmlns="http://www.w3.org/2000/svg" width="72" height="72" viewBox="0 0 72 72">
    <g fill="none" fill-rule="evenodd">
        <g>
            <g>
                <g>
                    <path fill="#FFF" d="M51 39V21h4.5c.825 0 1.5-.672 1.5-1.5s-.675-1.5-1.5-1.5h-39c-.828 0-1.5.672-1.5 1.5s.672 1.5 1.5 1.5H21v18H9L8.997 8.997h54L63 39H51zm-7.287 24c-.126-.483-.213-.978-.213-1.5 0-2.793 1.917-5.118 4.5-5.79V63h-4.287zm-3.027 0h-9.372c.084-.495.186-.984.186-1.5 0-4.458-3.249-8.133-7.5-8.85L23.997 21h24L48 52.653c-4.254.717-7.5 4.392-7.5 8.847 0 .516.099 1.005.186 1.5zm-12.399 0H24v-7.29c2.583.67 4.5 2.997 4.5 5.79 0 .522-.087 1.017-.213 1.5zM63 6c1.656 0 3 1.344 3 3v30c0 1.656-1.344 3-3 3H51v21c0 1.656-1.344 3-3 3H24c-1.659 0-3-1.344-3-3V42H9c-1.659 0-3-1.344-3-3V9c0-1.656 1.341-3 3-3zM36 33c-3.312 0-6 2.688-6 6s2.688 6 6 6 6-2.688 6-6-2.688-6-6-6zm0 3c1.656 0 3 1.344 3 3s-1.344 3-3 3-3-1.344-3-3 1.344-3 3-3z" transform="translate(-384 -169) translate(352 112) translate(32 57)"/>
                    <path fill="#0A47F0" d="M51 45c3.182 0 6.234 1.264 8.485 3.515C61.735 50.765 63 53.818 63 57c0 6.628-5.374 12-12 12s-12-5.372-12-12 5.374-12 12-12z" transform="translate(-384 -169) translate(352 112) translate(32 57)"/>
                    <path fill="#FFF" d="M58.343 54.44c.61.586.61 1.534 0 2.12l-6.24 6c-.304.293-.704.44-1.103.44-.4 0-.799-.147-1.103-.44l-6.24-6c-.61-.586-.61-1.534 0-2.12.305-.293.704-.44 1.103-.44h12.48c.398 0 .797.147 1.103.44z" transform="translate(-384 -169) translate(352 112) translate(32 57)"/>
                </g>
            </g>
        </g>
    </g>
</svg>
