<svg xmlns="http://www.w3.org/2000/svg" width="48" height="48" viewBox="0 0 48 48">
    <g fill="none" fill-rule="evenodd">
        <g>
            <g>
                <path fill="#202E44" d="M29.999 4c1.104 0 2 .895 2 2 0 .362-.099.718-.285 1.029l-3.234 5.387.455.392.523.484c2.562 2.44 6.703 7.479 9.337 15.426 1.727 5.212 1.593 9.592-.375 12.33C37.024 42.978 34.768 44 31.894 44H12.05c-2.752 0-4.964-1.048-6.391-3.03-2.019-2.806-2.204-7.158-.513-12.252 3.025-9.128 8.02-14.417 10.354-16.342L12.284 7.03c-.57-.946-.263-2.175.684-2.744.31-.187.667-.286 1.03-.286h16zm-2.73 10H16.664c-3.35 2.732-7.25 8.19-9.623 15.35-1.506 4.537-1.35 8.242.238 10.45 1.038 1.44 2.64 2.2 4.772 2.2h19.843c2.264 0 3.91-.744 4.908-2.123 1.53-2.13 1.642-5.869.099-10.528C34.53 22.2 30.638 16.759 27.269 14zm2.102 9.072c.513.205.763.787.557 1.3l-4 10c-.205.512-.787.762-1.3.556-.512-.205-.762-.787-.556-1.3l4-10c.205-.512.787-.762 1.3-.556zm-9.747.182l.534.185c.392.144.699.28 1.273.554.498.237.71.834.472 1.333-.238.498-.835.71-1.334.472l-.519-.243-.397-.168c-.19-.075-.386-.143-.663-.236-1.124-.375-2.408-.06-2.865.775-.196.36-.156.83.08 1.104.154.179.364.324.697.482l.437.188.534.21 1.367.471c.63.23 1.026.42 1.484.717 2.3 1.49 1.233 5.31-1.86 5.847-1.278.145-2.431-.026-3.426-.404-.465-.177-.805-.361-1.008-.503-.454-.315-.566-.938-.251-1.392.28-.403.803-.536 1.235-.34l.305.176.26.121c.052.023.108.045.169.068.71.27 1.545.394 2.432.295 1.327-.23 1.749-1.74 1.055-2.19-.37-.241-.716-.394-1.422-.636l-1.037-.355-.775-.308c-.757-.317-1.272-.631-1.711-1.141-.79-.918-.908-2.291-.32-3.37.984-1.799 3.297-2.365 5.254-1.712zM30 6H13.998l3.604 5.998H26.4L29.999 6z" transform="translate(-32 -24) translate(32 24)"/>
                <path fill="#3D77FF" d="M36 28c2.122 0 4.156.842 5.657 2.343C43.157 31.843 44 33.878 44 36c0 4.418-3.582 8-8 8s-8-3.582-8-8 3.582-8 8-8z" transform="translate(-32 -24) translate(32 24)"/>
                <g fill="#FFF">
                    <path d="M3.335 5.723L1.138 3.526c-.26-.26-.682-.26-.942 0-.261.26-.261.683 0 .943l3.333 3.333c.26.26.682.26.942 0l3.334-3.33C7.935 4.341 8 4.17 8 4c0-.17-.065-.341-.195-.471-.26-.261-.682-.261-.943-.001L4.668 5.721V.667C4.668.298 4.37 0 4.001 0c-.368 0-.666.298-.666.667v5.056z" transform="translate(-32 -24) translate(32 24) translate(32 32)"/>
                </g>
            </g>
        </g>
    </g>
</svg>
