<svg xmlns="http://www.w3.org/2000/svg" width="48" height="48" viewBox="0 0 48 48">
    <g fill="none" fill-rule="evenodd">
        <g>
            <g>
                <path fill="#FFF" d="M6 36c-1.106 0-2-.894-2-2V14c0-1.104.894-2 2-2h36c1.106 0 2 .896 2 2v20c0 1.106-.894 2-2 2H6zm.002-6.709L6 34h4.71c-.672-2.257-2.451-4.037-4.708-4.709zm29.221-15.29H12.777c-.763 3.364-3.411 6.012-6.775 6.776v6.447c3.364.764 6.012 3.413 6.775 6.777h22.446c.764-3.365 3.412-6.014 6.777-6.777v-6.446c-3.365-.764-6.013-3.412-6.777-6.777zM42 29.291c-2.257.671-4.038 2.452-4.71 4.71L42 34v-4.71zM24 18c3.314 0 6 2.688 6 6 0 3.314-2.686 6-6 6s-6-2.686-6-6c0-3.312 2.686-6 6-6zm0 2c-2.208 0-4 1.792-4 4s1.792 4 4 4 4-1.792 4-4-1.792-4-4-4zM6 14l.002 4.71c2.256-.672 4.035-2.451 4.708-4.708L6 14zm36 0l-4.71.002c.673 2.258 2.453 4.037 4.71 4.709V14z" transform="translate(-32 -24) translate(32 24)"/>
                <path fill="#FF961F" d="M38.333 26c2.21 0 4.33.878 5.893 2.44 1.562 1.563 2.44 3.683 2.44 5.893 0 4.603-3.731 8.334-8.333 8.334-4.601 0-8.333-3.731-8.333-8.334C30 29.731 33.732 26 38.333 26z" transform="translate(-32 -24) translate(32 24)"/>
                <path fill="#FFF" d="M38.837 30.962l.957 2.028 2.134.327c.143.029.26.133.303.273.044.14.008.292-.093.398l-1.545 1.575.374 2.224c.036.145-.018.297-.137.387-.119.09-.28.102-.41.029l-1.92-1.058-1.909 1.05c-.13.073-.291.062-.41-.028s-.173-.243-.137-.388l.375-2.224-1.556-1.575c-.102-.105-.138-.258-.094-.397.044-.14.16-.245.303-.274l2.134-.319.956-2.028c.063-.13.194-.212.338-.212.144 0 .275.082.337.212z" transform="translate(-32 -24) translate(32 24)"/>
            </g>
        </g>
    </g>
</svg>
