<svg xmlns="http://www.w3.org/2000/svg" width="48" height="48" viewBox="0 0 48 48">
    <g fill="none" fill-rule="evenodd">
        <g fill="#FF961F">
            <g>
                <path d="M42.315 17.652l-11.391-1.7-5.106-10.823C25.484 4.439 24.784 4 24.017 4c-.768 0-1.468.438-1.802 1.129L17.11 15.952l-11.392 1.74c-.766.155-1.387.714-1.62 1.46-.234.744-.042 1.558.5 2.121l8.247 8.402-2.002 11.864c-.143.604.003 1.24.395 1.722s.986.755 1.607.738c.328-.006.65-.088.941-.24l10.23-5.641 10.19 5.601c.292.152.614.234.942.24.621.017 1.215-.256 1.607-.738.392-.481.538-1.118.395-1.722l-2.002-11.864 8.248-8.402c.541-.558.737-1.364.513-2.108-.225-.744-.835-1.307-1.594-1.473zm-7.057 9.598L33.4 29.16c-.044.045-.064.109-.054.17l.419 2.655 1.699 10.6c.017.11-.057.212-.166.23-.045.007-.092-.001-.131-.024l-8.435-4.856-.005-.003-2.619-1.407c-.059-.032-.13-.032-.19 0L21.3 37.932l-.003.002-8.465 4.78c-.096.054-.218.02-.272-.077-.023-.039-.03-.085-.024-.13l1.7-10.604.42-2.655c.009-.062-.011-.125-.055-.17l-1.859-1.911-7.464-7.62c-.078-.08-.076-.206.002-.284.03-.03.07-.049.112-.055l10.062-1.43.01-.002 2.77-.53c.065-.013.12-.056.146-.116l1.18-2.656v-.004l4.273-9.083c.047-.1.166-.143.266-.096.042.02.076.054.096.097l4.273 9.193.002.003 1.177 2.652c.028.063.085.106.153.117l2.77.424 10.045 1.538c.109.016.184.119.167.228-.006.041-.026.08-.055.11l-7.467 7.596z" transform="translate(-32 -24) translate(32 24)"/>
            </g>
        </g>
    </g>
</svg>
