<svg xmlns="http://www.w3.org/2000/svg" width="48" height="48" viewBox="0 0 48 48">
    <g fill="none" fill-rule="evenodd">
        <g>
            <g>
                <path fill="#202E44" d="M15.996 3.997L34.003 4c1.104 0 2 .895 2 2v13c0 .552-.448 1-1 1-.553 0-1-.448-1-1V6l-18.007-.003L8 14l8.003.001V6h2v8c0 1.105-.896 2-2 2H8l.003 26h27c.552 0 1 .448 1 1s-.448 1-1 1h-27c-1.105 0-2-.895-2-2L6 13.996c0-.53.21-1.039.586-1.414l7.995-7.999c.375-.375.884-.586 1.415-.586zM20 31c.552 0 1 .448 1 1s-.448 1-1 1h-4c-.552 0-1-.448-1-1s.448-1 1-1h4zm4-8c.552 0 1 .448 1 1 0 .49-.354.9-.82.984L24 25h-8c-.552 0-1-.448-1-1 0-.49.354-.9.82-.984L16 23h8z" transform="translate(-32 -24) translate(32 24)"/>
                <path fill="#3D77FF" d="M34 22c4.418 0 8 3.582 8 8 0 1.667-.51 3.215-1.383 4.497l2.944 2.942c.585.586.585 1.536 0 2.122-.55.549-1.419.583-2.008.103l-.114-.103-2.942-2.944C37.215 37.49 35.667 38 34 38c-4.418 0-8-3.582-8-8s3.582-8 8-8zm0 3c-2.761 0-5 2.239-5 5s2.239 5 5 5 5-2.239 5-5-2.239-5-5-5z" transform="translate(-32 -24) translate(32 24)"/>
            </g>
        </g>
    </g>
</svg>
