<svg xmlns="http://www.w3.org/2000/svg" width="48" height="48" viewBox="0 0 48 48">
    <g fill="none" fill-rule="evenodd">
        <g>
            <g>
                <path fill="#202E44" d="M34 26V14h3c.55 0 1-.448 1-1s-.45-1-1-1H11c-.552 0-1 .448-1 1s.448 1 1 1h3v12H6L5.998 5.998h36L42 26h-8zm-4.858 16c-.084-.322-.142-.652-.142-1 0-1.862 1.278-3.412 3-3.86V42h-2.858zm-2.018 0h-6.248c.056-.33.124-.656.124-1 0-2.972-2.166-5.422-5-5.9L15.998 14h16L32 35.102c-2.836.478-5 2.928-5 5.898 0 .344.066.67.124 1zm-8.266 0H16v-4.86c1.722.446 3 1.998 3 3.86 0 .348-.058.678-.142 1zM42 4c1.104 0 2 .896 2 2v20c0 1.104-.896 2-2 2h-8v14c0 1.104-.896 2-2 2H16c-1.106 0-2-.896-2-2V28H6c-1.106 0-2-.896-2-2V6c0-1.104.894-2 2-2zM24 22c-2.208 0-4 1.792-4 4s1.792 4 4 4 4-1.792 4-4-1.792-4-4-4zm0 2c1.104 0 2 .896 2 2s-.896 2-2 2-2-.896-2-2 .896-2 2-2z" transform="translate(-32 -24) translate(32 24)"/>
                <path fill="#3D77FF" d="M34 30c2.122 0 4.156.842 5.657 2.343C41.157 33.843 42 35.878 42 38c0 4.418-3.582 8-8 8s-8-3.582-8-8 3.582-8 8-8z" transform="translate(-32 -24) translate(32 24)"/>
                <path fill="#FFF" d="M38.895 36.293c.407.391.407 1.023 0 1.414l-4.16 4c-.203.195-.469.293-.735.293s-.532-.098-.735-.293l-4.16-4c-.407-.39-.407-1.023 0-1.414.203-.195.47-.293.735-.293h8.32c.266 0 .532.098.735.293z" transform="translate(-32 -24) translate(32 24)"/>
            </g>
        </g>
    </g>
</svg>
