<svg xmlns="http://www.w3.org/2000/svg" width="48" height="48" viewBox="0 0 48 48">
    <g fill="none" fill-rule="evenodd">
        <g>
            <g>
                <path fill="#FF961F" d="M24 2c2.122 0 4.156.842 5.657 2.343C31.157 5.843 32 7.878 32 10c0 4.418-3.582 8-8 8s-8-3.582-8-8 3.582-8 8-8z" transform="translate(-32 -24) translate(32 24)"/>
                <path fill="#FFF" d="M28.895 8.293c.407.391.407 1.023 0 1.414l-4.16 4c-.203.195-.469.293-.735.293s-.532-.098-.735-.293l-4.16-4c-.407-.39-.407-1.023 0-1.414.203-.195.47-.293.735-.293h8.32c.266 0 .532.098.735.293z" transform="translate(-32 -24) translate(32 24)"/>
                <g fill="#FFF">
                    <path d="M38 24H2V10h4v6H5l-.18.015c-.466.086-.82.494-.82.984 0 .552.448 1 1 1h30l.18-.016c.466-.086.82-.494.82-.984 0-.552-.448-1-1-1h-1v-6h4v14zm-17.984-8h-.018H20c-1.104 0-2-.897-2-2 0-1.107.896-2 2-2s2 .893 2 2c0 1.103-.896 2-2 2h.016zM8 10V7.94c.188.036.386.04.58.058h.844C11.984 7.781 14 5.657 14 3.041c0-.358-.042-.706-.112-1.042h12.224c-.07.336-.112.684-.112 1.042 0 2.616 2.016 4.74 4.576 4.958h.844c.194-.018.392-.022.58-.058V16H23.444h.002c.344-.59.554-1.268.554-2 0-2.208-1.792-4-4-4s-4 1.792-4 4c0 .732.21 1.41.554 2h.002H8v-6zm0-8h3.802c.122.323.198.673.198 1.041 0 1.656-1.344 3-3 3-.352 0-.686-.072-1-.182V2zm20.196 0H32v3.86c-.314.11-.648.181-1 .181-1.658 0-3-1.344-3-3 0-.368.076-.718.196-1.042zM38 8h-4V1.998c0-1.104-.896-2-2-2H8C6.896 0 6 .895 6 2v6H2C.896 8 0 9.007 0 10.25v13.5C0 24.991.896 26 2 26h36c1.106 0 2-1.008 2-2.25v-13.5C40 9.007 39.106 8 38 8z" transform="translate(-32 -24) translate(32 24) translate(4 20)"/>
                </g>
            </g>
        </g>
    </g>
</svg>
