<svg xmlns="http://www.w3.org/2000/svg" width="72" height="72" viewBox="0 0 72 72">
    <g fill="none" fill-rule="evenodd">
        <g>
            <g>
                <g>
                    <path fill="#0A47F0" d="M36 3c3.182 0 6.234 1.264 8.485 3.515C46.735 8.765 48 11.818 48 15c0 6.628-5.374 12-12 12s-12-5.372-12-12S29.374 3 36 3z" transform="translate(-64 -489) translate(32 432) translate(32 57)"/>
                    <path fill="#FFF" d="M43.343 12.44c.61.586.61 1.534 0 2.12l-6.24 6c-.304.293-.704.44-1.103.44-.4 0-.799-.147-1.103-.44l-6.24-6c-.61-.586-.61-1.534 0-2.12.305-.293.704-.44 1.103-.44h12.48c.398 0 .797.147 1.103.44zM63 66H9V45h6v9h-1.5l-.27.023c-.699.13-1.23.741-1.23 1.476 0 .828.672 1.5 1.5 1.5h45l.27-.024c.699-.129 1.23-.74 1.23-1.476 0-.828-.672-1.5-1.5-1.5H57v-9h6v21zM36.024 54h-.027H36c-1.656 0-3-1.345-3-3 0-1.66 1.344-3 3-3s3 1.34 3 3c0 1.655-1.344 3-3 3h.024zM18 45v-3.088c.282.054.579.06.87.087h1.266c3.84-.327 6.864-3.513 6.864-7.437 0-.537-.063-1.059-.168-1.563h18.336c-.105.504-.168 1.026-.168 1.563 0 3.924 3.024 7.11 6.864 7.437h1.266c.291-.027.588-.033.87-.087V54H41.166h.003c.516-.885.831-1.902.831-3 0-3.312-2.688-6-6-6s-6 2.688-6 6c0 1.098.315 2.115.831 3h.003H18v-9zm0-12h5.703c.183.485.297 1.01.297 1.562 0 2.484-2.016 4.5-4.5 4.5-.528 0-1.029-.108-1.5-.273V33zm30.294 0H54v5.79c-.471.164-.972.272-1.5.272-2.487 0-4.5-2.016-4.5-4.5 0-.552.114-1.077.294-1.563zM63 42h-6v-9.001c0-1.656-1.344-3-3-3H18c-1.656 0-3 1.344-3 3v9H9c-1.656 0-3 1.512-3 3.375v20.25C6 67.487 7.344 69 9 69h54c1.659 0 3-1.512 3-3.375v-20.25C66 43.511 64.659 42 63 42z" transform="translate(-64 -489) translate(32 432) translate(32 57)"/>
                </g>
            </g>
        </g>
    </g>
</svg>
