<svg xmlns="http://www.w3.org/2000/svg" width="48" height="48" viewBox="0 0 48 48">
    <g fill="none" fill-rule="evenodd">
        <g>
            <g>
                <path fill="#202E44" d="M33.2 4c.442 0 .81.318.885.738l.015.162v4.5h6.1c.994 0 1.8.806 1.8 1.8v27c0 .994-.806 1.8-1.8 1.8H7.8c-.994 0-1.8-.806-1.8-1.8v-27c0-.994.806-1.8 1.8-1.8h6.1V4.9c0-.497.403-.9.9-.9.442 0 .81.318.885.738l.015.162v4.5h16.6V4.9c0-.497.403-.9.9-.9zm7 16.2H7.8v18h32.4v-18zm0-9H7.8v7.2h32.4v-7.2z" transform="translate(-32 -24) translate(32 24)"/>
                <path fill="#0AA693" d="M36 28c2.122 0 4.156.842 5.657 2.343C43.157 31.843 44 33.878 44 36c0 4.418-3.582 8-8 8s-8-3.582-8-8 3.582-8 8-8z" transform="translate(-32 -24) translate(32 24)"/>
                <path fill="#FFF" d="M35.083 32.17l.285.097.21.079c.203.079.397.167.71.316.331.158.472.556.314.888-.159.332-.557.472-.89.314l-.279-.131-.218-.097c-.168-.07-.316-.123-.555-.203-.75-.25-1.605-.04-1.91.516-.13.24-.104.554.053.737.113.13.27.234.53.35l.253.108.14.056c.11.044.216.083.365.134l.256.087c.728.242 1.062.379 1.47.643 1.532.993.82 3.539-1.24 3.896-.853.097-1.622-.017-2.285-.269-.31-.118-.536-.24-.672-.335-.303-.21-.378-.625-.168-.927.194-.28.563-.364.857-.21l.135.081c.068.039.177.09.321.146.474.18 1.03.262 1.621.196.885-.154 1.167-1.16.704-1.46-.235-.153-.456-.253-.882-.402l-.635-.215-.155-.056-.438-.173-.046-.02c-.505-.211-.848-.42-1.14-.76-.527-.612-.606-1.527-.214-2.245.48-.877 1.433-1.309 2.42-1.311.364 0 .731.052 1.083.17zm5.109-.142c.352.106.552.478.447.83l-2 6.667c-.106.353-.478.553-.83.447-.353-.106-.553-.478-.448-.83l2-6.667c.106-.353.478-.553.83-.447z" transform="translate(-32 -24) translate(32 24)"/>
            </g>
        </g>
    </g>
</svg>
