<svg width="82" height="44" xmlns="http://www.w3.org/2000/svg">
    <g fill="none" fill-rule="evenodd">
        <rect fill="#FFF" width="82" height="44" rx="1"/>
        <g fill-rule="nonzero">
            <path d="M49.89 12.104c-4.791 0-8.157 2.592-8.187 6.299-.03 2.746 2.407 4.277 4.24 5.19 1.892.932 2.523 1.532 2.517 2.367-.019 1.279-1.513 1.862-2.902 1.862-1.936 0-2.969-.288-4.555-.998l-.63-.304-.677 4.272c1.133.531 3.225.992 5.4 1.016 5.084 0 8.393-2.562 8.432-6.519.02-2.178-1.274-3.826-4.071-5.187-1.689-.885-2.733-1.471-2.717-2.368.001-.792.876-1.641 2.775-1.641a8.342 8.342 0 0 1 3.625.733l.432.22.659-4.138c-.957-.385-2.468-.804-4.341-.804zm-15.042.333-3.03 19.089h4.842l3.032-19.09h-4.843v.001zm-7.093.019-4.742 13.01-.505-2.644c-1.181-3.242-3.737-6.642-6.714-8.02l4.337 16.706 5.127-.003 7.625-19.05h-5.128zm35.157 0c-1.16 0-2.03.337-2.541 1.585l-7.19 17.491h5.087s.831-2.354 1.02-2.87c.555 0 5.496.011 6.2.011.15.666.59 2.859.59 2.859h4.498l-3.922-19.075h-3.742zm.342 5.147.323 1.646 1.125 5.508h-4.02c.401-1.095 1.929-5.335 1.929-5.335-.03.051.397-1.105.643-1.819z" fill="#1A1F71"/>
            <path d="M18.616 12.446h-7.812l-.046.328c6.074 1.58 10.081 5.462 11.75 10.053l-1.698-8.774c-.292-1.206-1.142-1.565-2.194-1.607" fill="#FA9B00"/>
        </g>
    </g>
</svg>
